<svg width="484" height="42" viewBox="0 0 484 42" fill="none" xmlns="http://www.w3.org/2000/svg">
<path d="M484 20.1789L436.761 20.1712" stroke="#FEFFCD" stroke-width="5"/>
<path d="M417.116 6.21731L441.477 20.5L417.116 34.7827L417.116 6.21731Z" fill="#FEFFCD" stroke="#FEFFCD"/>
<path d="M4.40063e-06 20.1789L47.2386 20.1712" stroke="#FEFFCD" stroke-width="5"/>
<path d="M66.8836 6.21731L42.523 20.5L66.8836 34.7827L66.8836 6.21731Z" fill="#FEFFCD" stroke="#FEFFCD"/>
<path d="M122 42V0H148.369V42H141.045V6.76667H129.383V42H122Z" fill="#FEFFCD"/>
<path d="M155.027 6.70833V0H185.615V6.70833H174.013V42H166.629V6.70833H155.027Z" fill="#FEFFCD"/>
<path d="M189.518 0H197.546L204.344 18.2C204.617 18.9 204.832 19.6389 204.988 20.4167C205.145 21.1556 205.262 21.8361 205.34 22.4583C205.457 23.2361 205.555 23.975 205.633 24.675H206.102C206.141 23.975 206.219 23.2361 206.336 22.4583C206.414 21.8361 206.532 21.1556 206.688 20.4167C206.844 19.6389 207.039 18.9 207.274 18.2L213.602 0H221.396L205.75 42H198.074L202.41 31.0917L189.518 0Z" fill="#FEFFCD"/>
<path d="M232.038 9.91667V36.8667H237.605V9.91667H243.641V36.8667H249.208V9.91667H255.302V42H225.944L225.885 9.91667H232.038Z" fill="#FEFFCD"/>
<path d="M262.545 42V9.91667H269.929V22.5167H281.59V9.91667H288.915V42H281.59V29.225H269.929V42H262.545Z" fill="#FEFFCD"/>
<path d="M297.447 9.91667H304.186V27.2417C304.186 28.2528 304.147 29.2639 304.069 30.275C303.991 31.2861 303.893 32.2 303.776 33.0167C303.698 33.7944 303.619 34.4361 303.541 34.9417C303.463 35.4472 303.424 35.7 303.424 35.7H304.069C304.264 34.9611 304.479 34.2028 304.713 33.425C304.909 32.7639 305.124 32.0833 305.358 31.3833C305.631 30.6444 305.924 29.9444 306.237 29.2833L315.261 9.91667H324.285V42H317.546V24.5583C317.546 23.4306 317.585 22.3806 317.664 21.4083C317.742 20.3972 317.82 19.5028 317.898 18.725C317.976 17.7917 318.074 16.9361 318.191 16.1583H317.546C317.39 16.8194 317.195 17.5 316.96 18.2C316.765 18.8222 316.531 19.5222 316.257 20.3C315.984 21.0778 315.671 21.8556 315.32 22.6333L306.53 42H297.447V9.91667Z" fill="#FEFFCD"/>
<path d="M340.436 9.91667V22.575H345.592L353.679 9.91667H361.824L351.98 25.4917L362 42H353.62L345.592 28.8167H340.436V42H333.111V9.91667H340.436Z" fill="#FEFFCD"/>
</svg>
