<svg width="484" height="42" viewBox="0 0 484 42" fill="none" xmlns="http://www.w3.org/2000/svg">
<path d="M484 21.1789L436.761 21.1712" stroke="#FEFFCD" stroke-width="5"/>
<path d="M417.116 7.21731L441.477 21.5L417.116 35.7827L417.116 7.21731Z" fill="#FEFFCD" stroke="#FEFFCD"/>
<path d="M4.40063e-06 21.1789L47.2386 21.1712" stroke="#FEFFCD" stroke-width="5"/>
<path d="M66.8837 7.21731L42.5231 21.5L66.8837 35.7827L66.8837 7.21731Z" fill="#FEFFCD" stroke="#FEFFCD"/>
<path d="M129.383 0V17.0333H134.775L142.861 0H151.006L141.22 20.125L151.475 42H143.213L134.775 23.625H129.383V42H122V0H129.383Z" fill="#FEFFCD"/>
<path d="M157.136 42V0H183.506V42H176.181V6.76667H164.52V42H157.136Z" fill="#FEFFCD"/>
<path d="M191.921 0H198.484V25.9C198.484 26.9111 198.425 27.9611 198.308 29.05C198.23 30.1389 198.132 31.1306 198.015 32.025C197.937 32.9194 197.859 33.6583 197.781 34.2417C197.703 34.825 197.664 35.1167 197.664 35.1167H198.308C198.465 34.3 198.621 33.4639 198.777 32.6083C198.933 31.9083 199.109 31.1694 199.304 30.3917C199.5 29.6139 199.715 28.8944 199.949 28.2333L209.969 0H218.994V42H212.431V16.0417C212.431 14.9139 212.47 13.825 212.548 12.775C212.626 11.6861 212.704 10.6944 212.782 9.8C212.899 8.75 213.017 7.75833 213.134 6.825H212.489C212.372 7.56389 212.235 8.32222 212.079 9.1C211.923 9.76111 211.747 10.5194 211.552 11.375C211.356 12.1917 211.102 12.9889 210.79 13.7667L200.945 42H191.921V0Z" fill="#FEFFCD"/>
<path d="M232.038 9.91667V36.8667H237.605V9.91667H243.641V36.8667H249.208V9.91667H255.302V42H225.944L225.885 9.91667H232.038Z" fill="#FEFFCD"/>
<path d="M262.545 42V9.91667H269.929V22.5167H281.59V9.91667H288.915V42H281.59V29.225H269.929V42H262.545Z" fill="#FEFFCD"/>
<path d="M297.447 9.91667H304.186V27.2417C304.186 28.2528 304.147 29.2639 304.069 30.275C303.991 31.2861 303.893 32.2 303.776 33.0167C303.698 33.7944 303.62 34.4361 303.541 34.9417C303.463 35.4472 303.424 35.7 303.424 35.7H304.069C304.264 34.9611 304.479 34.2028 304.713 33.425C304.909 32.7639 305.124 32.0833 305.358 31.3833C305.631 30.6444 305.924 29.9444 306.237 29.2833L315.261 9.91667H324.285V42H317.546V24.5583C317.546 23.4306 317.586 22.3806 317.664 21.4083C317.742 20.3972 317.82 19.5028 317.898 18.725C317.976 17.7917 318.074 16.9361 318.191 16.1583H317.546C317.39 16.8194 317.195 17.5 316.961 18.2C316.765 18.8222 316.531 19.5222 316.257 20.3C315.984 21.0778 315.671 21.8556 315.32 22.6333L306.53 42H297.447V9.91667Z" fill="#FEFFCD"/>
<path d="M340.436 9.91667V22.575H345.592L353.679 9.91667H361.824L351.98 25.4917L362 42H353.62L345.592 28.8167H340.436V42H333.111V9.91667H340.436Z" fill="#FEFFCD"/>
</svg>
