<svg width="512" height="42" viewBox="0 0 512 42" fill="none" xmlns="http://www.w3.org/2000/svg">
<path d="M512 21.1789L464.761 21.1712" stroke="#FEFFCD" stroke-width="5"/>
<path d="M445.116 7.21731L469.477 21.5L445.116 35.7827L445.116 7.21731Z" fill="#FEFFCD" stroke="#FEFFCD"/>
<path d="M4.40063e-06 21.1789L47.2386 21.1712" stroke="#FEFFCD" stroke-width="5"/>
<path d="M66.8835 7.21731L42.5229 21.5L66.8835 35.7827L66.8835 7.21731Z" fill="#FEFFCD" stroke="#FEFFCD"/>
<path d="M122 0.567567H128.385V25.7676C128.385 26.7514 128.328 27.773 128.214 28.8324C128.138 29.8919 128.043 30.8568 127.929 31.727C127.853 32.5973 127.777 33.3162 127.701 33.8838C127.625 34.4514 127.587 34.7351 127.587 34.7351H128.214C128.366 33.9405 128.518 33.127 128.67 32.2946C128.822 31.6135 128.993 30.8946 129.183 30.1378C129.373 29.3811 129.582 28.6811 129.81 28.0378L139.558 0.567567H148.337V41.4324H141.952V16.1757C141.952 15.0784 141.99 14.0189 142.066 12.9973C142.142 11.9378 142.218 10.973 142.294 10.1027C142.408 9.08108 142.522 8.11621 142.636 7.20811H142.009C141.895 7.92703 141.762 8.66486 141.61 9.42162C141.458 10.0649 141.287 10.8027 141.097 11.6351C140.907 12.4297 140.66 13.2054 140.356 13.9622L130.779 41.4324H122V0.567567Z" fill="#FEFFCD"/>
<path d="M156.523 41.4324V0.567567H182.176V41.4324H175.05V7.15135H163.706V41.4324H156.523Z" fill="#FEFFCD"/>
<path d="M203.816 42C201.764 42 199.902 41.7162 198.229 41.1487C196.557 40.5432 195.132 39.6919 193.954 38.5946C192.776 37.4973 191.864 36.173 191.218 34.6216C190.572 33.0703 190.249 31.3486 190.249 29.4568V12.5432C190.249 10.6514 190.572 8.92973 191.218 7.37838C191.864 5.82703 192.776 4.5027 193.954 3.40541C195.132 2.30811 196.557 1.47567 198.229 0.908107C199.902 0.302702 201.764 0 203.816 0C205.83 0 207.635 0.283784 209.232 0.851351C210.866 1.41892 212.272 2.23243 213.45 3.29189C214.628 4.31351 215.559 5.58108 216.243 7.09459C216.927 8.57027 217.307 10.2162 217.383 12.0324H210.258C210.182 10.2541 209.555 8.87297 208.376 7.88919C207.236 6.86757 205.716 6.35676 203.816 6.35676C201.84 6.35676 200.263 6.90541 199.084 8.0027C197.944 9.1 197.374 10.6135 197.374 12.5432V29.4568C197.374 31.3865 197.925 32.9 199.027 33.9973C200.168 35.0946 201.764 35.6432 203.816 35.6432C205.716 35.6432 207.236 35.1324 208.376 34.1108C209.555 33.0514 210.182 31.6514 210.258 29.9108H217.383C217.193 33.6189 215.882 36.5703 213.45 38.7649C211.056 40.9216 207.844 42 203.816 42Z" fill="#FEFFCD"/>
<path d="M233.038 0.567567H242.672L253.446 41.4324H246.092L243.641 31.1595H231.727L229.275 41.4324H221.979L233.038 0.567567ZM242.273 25.5405L238.795 10.9541C238.643 10.273 238.491 9.59189 238.339 8.91081C238.225 8.22973 238.13 7.62432 238.054 7.09459C237.978 6.48919 237.902 5.88378 237.826 5.27838H237.541C237.465 5.88378 237.389 6.48919 237.313 7.09459C237.237 7.62432 237.142 8.22973 237.028 8.91081C236.914 9.59189 236.762 10.273 236.572 10.9541L233.095 25.5405H242.273Z" fill="#FEFFCD"/>
<path d="M263.571 10.2162V36.4378H268.986V10.2162H274.858V36.4378H280.273V10.2162H286.202V41.4324H257.642L257.585 10.2162H263.571Z" fill="#FEFFCD"/>
<path d="M293.248 41.4324V10.2162H300.431V22.4757H311.775V10.2162H318.901V41.4324H311.775V29.0027H300.431V41.4324H293.248Z" fill="#FEFFCD"/>
<path d="M327.202 10.2162H333.757V27.073C333.757 28.0568 333.719 29.0405 333.643 30.0243C333.567 31.0081 333.472 31.8973 333.358 32.6919C333.282 33.4487 333.206 34.073 333.13 34.5649C333.054 35.0568 333.016 35.3027 333.016 35.3027H333.643C333.833 34.5838 334.042 33.8459 334.27 33.0892C334.46 32.4459 334.669 31.7838 334.898 31.1027C335.164 30.3838 335.449 29.7027 335.753 29.0595L344.532 10.2162H353.31V41.4324H346.755V24.4622C346.755 23.3649 346.793 22.3432 346.869 21.3973C346.945 20.4135 347.021 19.5432 347.097 18.7865C347.173 17.8784 347.268 17.0459 347.382 16.2892H346.755C346.603 16.9324 346.413 17.5946 346.185 18.2757C345.995 18.8811 345.767 19.5622 345.501 20.3189C345.235 21.0757 344.931 21.8324 344.589 22.5892L336.038 41.4324H327.202V10.2162Z" fill="#FEFFCD"/>
<path d="M369.022 10.2162V22.5324H374.038L381.905 10.2162H389.829L380.252 25.3703L390 41.4324H381.848L374.038 28.6054H369.022V41.4324H361.896V10.2162H369.022Z" fill="#FEFFCD"/>
</svg>
