<svg width="636" height="105" viewBox="0 0 636 105" fill="none" xmlns="http://www.w3.org/2000/svg">
<path d="M184.863 0.566037H191.263V25.6981C191.263 26.6792 191.205 27.6981 191.091 28.7547C191.015 29.8113 190.92 30.7736 190.805 31.6415C190.729 32.5094 190.653 33.2264 190.577 33.7925C190.501 34.3585 190.463 34.6415 190.463 34.6415H191.091C191.243 33.8491 191.396 33.0377 191.548 32.2075C191.701 31.5283 191.872 30.8113 192.062 30.0566C192.253 29.3019 192.462 28.6038 192.691 27.9623L202.461 0.566037H211.26V41.3208H204.861V16.1321C204.861 15.0377 204.899 13.9811 204.975 12.9623C205.052 11.9057 205.128 10.9434 205.204 10.0755C205.318 9.0566 205.433 8.09434 205.547 7.18868H204.918C204.804 7.90566 204.671 8.64151 204.518 9.39623C204.366 10.0377 204.195 10.7736 204.004 11.6038C203.814 12.3962 203.566 13.1698 203.261 13.9245L193.662 41.3208H184.863V0.566037Z" fill="#FEFFCD"/>
<path d="M219.466 41.3208V0.566037H245.178V41.3208H238.035V7.13207H226.665V41.3208H219.466Z" fill="#FEFFCD"/>
<path d="M266.867 41.8868C264.81 41.8868 262.944 41.6038 261.268 41.0377C259.592 40.434 258.163 39.5849 256.983 38.4906C255.802 37.3962 254.888 36.0755 254.24 34.5283C253.592 32.9811 253.269 31.2642 253.269 29.3774V12.5094C253.269 10.6226 253.592 8.90566 254.24 7.35849C254.888 5.81132 255.802 4.49057 256.983 3.39623C258.163 2.30189 259.592 1.4717 261.268 0.905659C262.944 0.301886 264.81 0 266.867 0C268.886 0 270.695 0.283019 272.295 0.849056C273.933 1.41509 275.343 2.22641 276.523 3.28302C277.704 4.30189 278.638 5.56604 279.323 7.07547C280.009 8.54717 280.39 10.1887 280.466 12H273.324C273.248 10.2264 272.619 8.84906 271.438 7.86792C270.296 6.84906 268.772 6.33962 266.867 6.33962C264.887 6.33962 263.306 6.88679 262.125 7.98113C260.982 9.07547 260.411 10.5849 260.411 12.5094V29.3774C260.411 31.3019 260.963 32.8113 262.068 33.9057C263.211 35 264.81 35.5472 266.867 35.5472C268.772 35.5472 270.296 35.0377 271.438 34.0189C272.619 32.9623 273.248 31.566 273.324 29.8302H280.466C280.275 33.5283 278.961 36.4717 276.523 38.6604C274.124 40.8113 270.905 41.8868 266.867 41.8868Z" fill="#FEFFCD"/>
<path d="M296.156 0.566037H305.812L316.611 41.3208H309.241L306.784 31.0755H294.842L292.385 41.3208H285.072L296.156 0.566037ZM305.412 25.4717L301.927 10.9245C301.775 10.2453 301.622 9.56604 301.47 8.88679C301.356 8.20755 301.26 7.60377 301.184 7.07547C301.108 6.4717 301.032 5.86792 300.956 5.26415H300.67C300.594 5.86792 300.518 6.4717 300.442 7.07547C300.365 7.60377 300.27 8.20755 300.156 8.88679C300.042 9.56604 299.889 10.2453 299.699 10.9245L296.213 25.4717H305.412Z" fill="#FEFFCD"/>
<path d="M326.759 10.1887V36.3396H332.187V10.1887H338.072V36.3396H343.501V10.1887H349.443V41.3208H320.817L320.76 10.1887H326.759Z" fill="#FEFFCD"/>
<path d="M356.505 41.3208V10.1887H363.705V22.4151H375.075V10.1887H382.217V41.3208H375.075V28.9245H363.705V41.3208H356.505Z" fill="#FEFFCD"/>
<path d="M390.537 10.1887H397.108V27C397.108 27.9811 397.069 28.9623 396.993 29.9434C396.917 30.9245 396.822 31.8113 396.708 32.6038C396.631 33.3585 396.555 33.9811 396.479 34.4717C396.403 34.9623 396.365 35.2076 396.365 35.2076H396.993C397.184 34.4906 397.393 33.7547 397.622 33C397.812 32.3585 398.022 31.6981 398.25 31.0189C398.517 30.3019 398.803 29.6226 399.107 28.9811L407.906 10.1887H416.706V41.3208H410.135V24.3962C410.135 23.3019 410.173 22.283 410.249 21.3396C410.325 20.3585 410.401 19.4906 410.478 18.7358C410.554 17.8302 410.649 17 410.763 16.2453H410.135C409.982 16.8868 409.792 17.5472 409.563 18.2264C409.373 18.8302 409.144 19.5094 408.878 20.2642C408.611 21.0189 408.306 21.7736 407.964 22.5283L399.393 41.3208H390.537V10.1887Z" fill="#FEFFCD"/>
<path d="M432.453 10.1887V22.4717H437.481L445.366 10.1887H453.308L443.709 25.3019L453.479 41.3208H445.309L437.481 28.5283H432.453V41.3208H425.311V10.1887H432.453Z" fill="#FEFFCD"/>
<path d="M122 72.1698C122 69.4528 122.4 66.9245 123.2 64.5849C124.038 62.2075 125.238 60.0755 126.8 58.1887C128.361 56.2641 130.266 54.6226 132.513 53.2642C134.761 51.8679 137.294 50.8113 140.112 50.0943V57.0566C138.398 57.4717 136.856 58.1321 135.484 59.0377C134.151 59.9057 133.008 61 132.056 62.3208C131.142 63.6038 130.418 65.0943 129.885 66.7924C129.39 68.4528 129.142 70.2453 129.142 72.1698V82.9811C129.142 86.7924 130.113 90.0377 132.056 92.717C133.999 95.3585 136.684 97.0755 140.112 97.8679V105C134.323 103.491 129.847 100.83 126.685 97.0189C123.562 93.2075 122 88.5283 122 82.9811V72.1698Z" fill="#FEFFCD"/>
<path d="M150.946 97.9245V66.7924H158.145V79.0189H169.516V66.7924H176.658V97.9245H169.516V85.5283H158.145V97.9245H150.946Z" fill="#FEFFCD"/>
<path d="M183.835 89.2075C183.835 87.6604 184.12 86.283 184.692 85.0755C185.263 83.8302 186.082 82.7736 187.149 81.9057C188.215 81.0377 189.491 80.3774 190.977 79.9245C192.501 79.434 194.196 79.1887 196.062 79.1887H203.947V76.5283C203.947 75.0943 203.395 73.9623 202.29 73.1321C201.223 72.2642 199.719 71.8302 197.776 71.8302C196.214 71.8302 194.9 72.1132 193.834 72.6792C192.767 73.2453 192.082 74.0189 191.777 75H184.806C185.035 73.6415 185.511 72.434 186.234 71.3774C186.958 70.283 187.891 69.3585 189.034 68.6038C190.177 67.8491 191.491 67.2642 192.977 66.8491C194.462 66.434 196.081 66.2264 197.833 66.2264C199.852 66.2264 201.681 66.4717 203.318 66.9623C204.956 67.4151 206.347 68.0943 207.489 69C208.632 69.8679 209.508 70.9434 210.118 72.2264C210.765 73.4717 211.089 74.8679 211.089 76.4151V97.9245H204.347V91.8113H203.833C203.49 93.8491 202.423 95.4717 200.633 96.6792C198.843 97.8868 196.614 98.4906 193.948 98.4906C190.863 98.4906 188.406 97.6604 186.577 96C184.749 94.3019 183.835 92.0377 183.835 89.2075ZM190.977 88.3585C190.977 89.7925 191.453 90.9245 192.405 91.7547C193.396 92.5472 194.767 92.9434 196.519 92.9434C198.652 92.9434 200.424 92.434 201.833 91.4151C203.242 90.3585 203.947 89.0377 203.947 87.4528V83.8302H196.119C194.519 83.8302 193.262 84.2264 192.348 85.0189C191.434 85.8113 190.977 86.9245 190.977 88.3585Z" fill="#FEFFCD"/>
<path d="M253.726 97.9245V66.7924H279.437V97.9245H272.295V73.3585H260.925V97.9245H253.726Z" fill="#FEFFCD"/>
<path d="M300.841 98.4906C298.785 98.4906 296.899 98.1887 295.185 97.5849C293.509 96.9811 292.08 96.1509 290.9 95.0943C289.719 94 288.805 92.6981 288.157 91.1887C287.51 89.6792 287.186 88 287.186 86.1509V78.5094C287.186 76.6604 287.51 74.9811 288.157 73.4717C288.805 71.9623 289.719 70.6792 290.9 69.6226C292.08 68.5283 293.509 67.6981 295.185 67.1321C296.899 66.5283 298.785 66.2264 300.841 66.2264C302.898 66.2264 304.765 66.5283 306.441 67.1321C308.155 67.6981 309.603 68.5283 310.783 69.6226C311.964 70.6792 312.878 71.9623 313.526 73.4717C314.173 74.9811 314.497 76.6604 314.497 78.5094V86.1509C314.497 88 314.173 89.6981 313.526 91.2453C312.878 92.7547 311.964 94.0566 310.783 95.1509C309.603 96.2076 308.174 97.0377 306.498 97.6415C304.822 98.2075 302.937 98.4906 300.841 98.4906ZM294.328 86.1509C294.328 88.0377 294.899 89.5283 296.042 90.6226C297.223 91.717 298.823 92.2641 300.841 92.2641C302.86 92.2641 304.441 91.717 305.584 90.6226C306.765 89.5283 307.355 88.0377 307.355 86.1509V78.5094C307.355 76.6226 306.765 75.1321 305.584 74.0377C304.441 72.9434 302.86 72.3962 300.841 72.3962C298.823 72.3962 297.223 72.9434 296.042 74.0377C294.899 75.1321 294.328 76.6226 294.328 78.5094V86.1509Z" fill="#FEFFCD"/>
<path d="M322.246 97.9245V66.7924H336.873C340.453 66.7924 343.234 67.5472 345.215 69.0566C347.195 70.5283 348.186 72.566 348.186 75.1698C348.186 77.0566 347.538 78.5472 346.243 79.6415C344.986 80.7358 343.215 81.3208 340.929 81.3962V81.9057C343.52 81.9434 345.5 82.5849 346.872 83.8302C348.243 85.0377 348.929 86.7736 348.929 89.0377C348.929 91.8302 347.881 94.0189 345.786 95.6038C343.691 97.1509 340.777 97.9245 337.044 97.9245H322.246ZM329.045 84.7925V92.5472H336.701C338.301 92.5472 339.539 92.2075 340.415 91.5283C341.329 90.8491 341.786 89.9057 341.786 88.6981C341.786 87.4906 341.329 86.5472 340.415 85.8679C339.539 85.1509 338.301 84.7925 336.701 84.7925H329.045ZM329.045 79.4717H336.416C337.863 79.4717 338.987 79.1509 339.787 78.5094C340.625 77.8679 341.044 76.9811 341.044 75.8491C341.044 74.717 340.625 73.8302 339.787 73.1887C338.987 72.5094 337.863 72.1698 336.416 72.1698H329.045V79.4717Z" fill="#FEFFCD"/>
<path d="M355.02 66.7924H361.191V76.9811H363.19C366.771 76.9811 369.552 77.9245 371.532 79.8113C373.513 81.6604 374.504 84.2453 374.504 87.566C374.504 89.1132 374.237 90.5283 373.704 91.8113C373.17 93.0943 372.409 94.1887 371.418 95.0943C370.428 96 369.228 96.6981 367.819 97.1887C366.447 97.6792 364.905 97.9245 363.19 97.9245H355.02V66.7924ZM377.532 66.7924H383.703V97.9245H377.532V66.7924ZM361.191 92.434H363.019C364.657 92.434 365.952 92 366.904 91.1321C367.857 90.2641 368.333 89.0755 368.333 87.566C368.333 86.0189 367.876 84.7925 366.962 83.8868C366.047 82.9434 364.733 82.4717 363.019 82.4717H361.191V92.434Z" fill="#FEFFCD"/>
<path d="M395.279 66.7924V92.9434H400.707V66.7924H406.592V92.9434H412.02V66.7924H417.963V97.9245H389.337L389.28 66.7924H395.279Z" fill="#FEFFCD"/>
<path d="M432.453 66.7924V79.0755H437.481L445.366 66.7924H453.308L443.709 81.9057L453.479 97.9245H445.309L437.481 85.1321H432.453V97.9245H425.311V66.7924H432.453Z" fill="#FEFFCD"/>
<path d="M458.485 78.3962C458.485 76.5472 458.809 74.8679 459.457 73.3585C460.104 71.8491 461.018 70.566 462.199 69.5094C463.38 68.4528 464.808 67.6415 466.484 67.0755C468.16 66.5094 470.046 66.2264 472.141 66.2264C474.198 66.2264 476.045 66.5283 477.683 67.1321C479.359 67.6981 480.788 68.5094 481.968 69.566C483.149 70.6226 484.063 71.9057 484.711 73.4151C485.359 74.9245 485.682 76.6038 485.682 78.4528V84.1132H465.57V86.1509C465.57 88.2641 466.142 89.9057 467.284 91.0755C468.465 92.2453 470.084 92.8302 472.141 92.8302C473.665 92.8302 474.979 92.5849 476.083 92.0943C477.188 91.6038 477.969 90.9245 478.426 90.0566H485.454C485.111 91.3396 484.54 92.5094 483.74 93.566C482.94 94.5849 481.949 95.4717 480.769 96.2264C479.626 96.9434 478.312 97.5094 476.826 97.9245C475.379 98.3019 473.817 98.4906 472.141 98.4906C470.084 98.4906 468.198 98.2075 466.484 97.6415C464.808 97.0755 463.38 96.2642 462.199 95.2076C461.018 94.1132 460.104 92.8113 459.457 91.3019C458.809 89.7924 458.485 88.1132 458.485 86.2642V78.3962ZM465.57 79.3585H478.712V78.4528C478.712 76.3774 478.121 74.7736 476.94 73.6415C475.798 72.4717 474.198 71.8868 472.141 71.8868C470.084 71.8868 468.465 72.4717 467.284 73.6415C466.142 74.7736 465.57 76.3585 465.57 78.3962V79.3585Z" fill="#FEFFCD"/>
<path d="M495.83 50.0943C498.649 50.8113 501.182 51.8679 503.43 53.2642C505.677 54.6226 507.582 56.2641 509.143 58.1887C510.705 60.0755 511.905 62.2075 512.743 64.5849C513.581 66.9245 514 69.4528 514 72.1698V82.9811C514 88.5283 512.419 93.2075 509.258 97.0189C506.134 100.83 501.658 103.491 495.83 105V97.8679C497.545 97.4528 499.068 96.8113 500.401 95.9434C501.773 95.0377 502.934 93.9434 503.887 92.6604C504.839 91.3774 505.563 89.9245 506.058 88.3019C506.591 86.6415 506.858 84.8679 506.858 82.9811V72.1698C506.858 70.2453 506.591 68.4528 506.058 66.7924C505.563 65.0943 504.839 63.6038 503.887 62.3208C502.934 61 501.773 59.9057 500.401 59.0377C499.068 58.1321 497.545 57.4717 495.83 57.0566V50.0943Z" fill="#FEFFCD"/>
<path d="M636 52.1789L588.761 52.1712" stroke="#FEFFCD" stroke-width="5"/>
<path d="M569.116 38.2173L593.477 52.5L569.116 66.7827L569.116 38.2173Z" fill="#FEFFCD" stroke="#FEFFCD"/>
<path d="M4.40063e-06 52.1789L47.2386 52.1712" stroke="#FEFFCD" stroke-width="5"/>
<path d="M66.8835 38.2173L42.5229 52.5L66.8835 66.7827L66.8835 38.2173Z" fill="#FEFFCD" stroke="#FEFFCD"/>
</svg>
