<svg width="45" height="45" viewBox="0 0 45 45" fill="none" xmlns="http://www.w3.org/2000/svg">
<circle cx="22.5" cy="22.5" r="22.5" fill="#76797C"/>
<path d="M22.5 0C18.0499 0 13.6998 1.3196 9.99968 3.79193C6.29957 6.26426 3.41569 9.77828 1.71272 13.8896C0.00974887 18.001 -0.435826 22.525 0.432341 26.8895C1.30051 31.2541 3.44343 35.2632 6.59011 38.4099C9.73679 41.5566 13.7459 43.6995 18.1105 44.5677C22.475 45.4358 26.999 44.9903 31.1104 43.2873C35.2217 41.5843 38.7357 38.7004 41.2081 35.0003C43.6804 31.3002 45 26.9501 45 22.5C45 16.5326 42.6295 10.8097 38.4099 6.5901C34.1903 2.37053 28.4674 0 22.5 0ZM12.8572 39.1821V35.9678C12.7866 34.6107 13.2527 33.2802 14.1548 32.2639C15.0569 31.2475 16.3226 30.6267 17.6786 30.5357H27.3214C28.6803 30.6267 29.9485 31.2497 30.8511 32.2696C31.7537 33.2895 32.2178 34.6241 32.1429 35.9839V39.1982C29.2154 40.9036 25.888 41.8021 22.5 41.8021C19.112 41.8021 15.7846 40.9036 12.8572 39.1982V39.1821ZM35.3571 36.8357V35.8554C35.401 33.6642 34.584 31.5433 33.0816 29.9478C31.5793 28.3522 29.5112 27.4093 27.3214 27.3214H17.6786C15.4874 27.4052 13.4169 28.3469 11.9137 29.9433C10.4104 31.5398 9.59488 33.6631 9.64287 35.8554V36.8036C6.73162 34.1997 4.67963 30.7732 3.7584 26.9776C2.83717 23.1819 3.09014 19.196 4.48383 15.5473C5.87752 11.8986 8.34624 8.75899 11.5633 6.54403C14.7804 4.32908 18.5942 3.14313 22.5 3.14313C26.4058 3.14313 30.2196 4.32908 33.4367 6.54403C36.6538 8.75899 39.1225 11.8986 40.5162 15.5473C41.9099 19.196 42.1628 23.1819 41.2416 26.9776C40.3204 30.7732 38.2684 34.1997 35.3571 36.8036V36.8357Z" fill="#5C5C5C"/>
<path d="M22.5006 8.27783C20.9112 8.27783 19.3576 8.74755 18.0362 9.62758C16.7147 10.5076 15.6847 11.7584 15.0765 13.2219C14.4683 14.6853 14.3092 16.2957 14.6193 17.8492C14.9293 19.4028 15.6946 20.8299 16.8185 21.95C17.9423 23.07 19.3741 23.8328 20.9329 24.1418C22.4916 24.4509 24.1074 24.2923 25.5757 23.6861C27.044 23.0799 28.299 22.0534 29.182 20.7363C30.065 19.4192 30.5363 17.8708 30.5363 16.2868C30.5363 14.1627 29.6896 12.1256 28.1827 10.6236C26.6757 9.12163 24.6318 8.27783 22.5006 8.27783ZM22.5006 21.0921C21.547 21.0921 20.6148 20.8103 19.8219 20.2823C19.029 19.7543 18.4111 19.0038 18.0461 18.1257C17.6812 17.2476 17.5857 16.2814 17.7718 15.3493C17.9578 14.4171 18.417 13.5609 19.0913 12.8889C19.7656 12.2168 20.6247 11.7592 21.5599 11.5737C22.4952 11.3883 23.4646 11.4835 24.3456 11.8472C25.2266 12.2109 25.9796 12.8268 26.5094 13.6171C27.0392 14.4073 27.322 15.3364 27.322 16.2868C27.322 17.5612 26.814 18.7835 25.9098 19.6847C25.0056 20.5859 23.7793 21.0921 22.5006 21.0921Z" fill="#5C5C5C"/>
</svg>
