<svg width="263" height="263" viewBox="0 0 263 263" fill="none" xmlns="http://www.w3.org/2000/svg">
<circle cx="73.7754" cy="51.6778" r="8.06481" stroke="#FEFFCD" stroke-width="3.22592"/>
<circle cx="36.6778" cy="87.1629" r="8.06481" stroke="#FEFFCD" stroke-width="3.22592"/>
<circle cx="36.6778" cy="135.552" r="8.06481" stroke="#FEFFCD" stroke-width="3.22592"/>
<circle cx="128.616" cy="162.972" r="8.06481" stroke="#FEFFCD" stroke-width="3.22592"/>
<circle cx="131.843" cy="117.809" r="8.06481" stroke="#FEFFCD" stroke-width="3.22592"/>
<circle cx="122.165" cy="77.4851" r="8.06481" stroke="#FEFFCD" stroke-width="3.22592"/>
<circle cx="180.231" cy="51.6778" r="8.06481" stroke="#FEFFCD" stroke-width="3.22592"/>
<circle cx="217.329" cy="87.1629" r="8.06481" stroke="#FEFFCD" stroke-width="3.22592"/>
<circle cx="222.168" cy="145.23" r="8.06481" stroke="#FEFFCD" stroke-width="3.22592"/>
<circle cx="185.07" cy="185.554" r="8.06481" stroke="#FEFFCD" stroke-width="3.22592"/>
<circle cx="167.327" cy="221.039" r="8.06481" stroke="#FEFFCD" stroke-width="3.22592"/>
<circle cx="172.167" cy="145.23" r="9.67777" stroke="#FEFFCD" stroke-width="3.22592"/>
<circle cx="173.779" cy="100.067" r="12.9037" stroke="#FEFFCD" stroke-width="3.22592"/>
<circle cx="68.9372" cy="162.972" r="9.67777" stroke="#FEFFCD" stroke-width="3.22592"/>
<circle cx="72.1631" cy="116.196" r="12.9037" stroke="#FEFFCD" stroke-width="3.22592"/>
<line x1="182.566" y1="192.366" x2="171.275" y2="214.948" stroke="#FEFFCD" stroke-width="1.61296"/>
<line x1="176.706" y1="183.076" x2="136.382" y2="166.947" stroke="#FEFFCD" stroke-width="1.61296"/>
<line x1="135.77" y1="165.8" x2="163.19" y2="214.189" stroke="#FEFFCD" stroke-width="1.61296"/>
<line x1="189.339" y1="178.532" x2="216.759" y2="151.111" stroke="#FEFFCD" stroke-width="1.61296"/>
<line x1="176.172" y1="154.699" x2="182.624" y2="178.894" stroke="#FEFFCD" stroke-width="1.61296"/>
<line x1="181.845" y1="142.81" x2="214.104" y2="142.81" stroke="#FEFFCD" stroke-width="1.61296"/>
<line x1="162.867" y1="145.942" x2="135.446" y2="160.459" stroke="#FEFFCD" stroke-width="1.61296"/>
<line x1="120.552" y1="163.779" x2="78.6147" y2="163.779" stroke="#FEFFCD" stroke-width="1.61296"/>
<line x1="121.673" y1="158.773" x2="79.7363" y2="126.513" stroke="#FEFFCD" stroke-width="1.61296"/>
<line x1="124.667" y1="156.876" x2="76.2781" y2="58.4855" stroke="#FEFFCD" stroke-width="1.61296"/>
<line x1="42.0329" y1="141.384" x2="61.3884" y2="157.514" stroke="#FEFFCD" stroke-width="1.61296"/>
<line x1="35.8713" y1="127.487" x2="35.8713" y2="95.2278" stroke="#FEFFCD" stroke-width="1.61296"/>
<line x1="221.362" y1="95.1968" x2="222.975" y2="137.134" stroke="#FEFFCD" stroke-width="1.61296"/>
<line x1="215.147" y1="139.348" x2="182.887" y2="107.089" stroke="#FEFFCD" stroke-width="1.61296"/>
<line x1="177.982" y1="136.67" x2="211.854" y2="93.1197" stroke="#FEFFCD" stroke-width="1.61296"/>
<line x1="172.973" y1="112.97" x2="172.973" y2="135.552" stroke="#FEFFCD" stroke-width="1.61296"/>
<line x1="162.062" y1="141.075" x2="136.254" y2="124.945" stroke="#FEFFCD" stroke-width="1.61296"/>
<line x1="72.9678" y1="129.154" x2="71.3548" y2="153.348" stroke="#FEFFCD" stroke-width="1.61296"/>
<line x1="59.6737" y1="121.727" x2="43.5441" y2="131.404" stroke="#FEFFCD" stroke-width="1.61296"/>
<line x1="60.2776" y1="111.902" x2="42.535" y2="92.5468" stroke="#FEFFCD" stroke-width="1.61296"/>
<line x1="71.3572" y1="103.263" x2="72.9701" y2="59.7127" stroke="#FEFFCD" stroke-width="1.61296"/>
<line x1="42.5415" y1="81.7724" x2="66.736" y2="55.965" stroke="#FEFFCD" stroke-width="1.61296"/>
<line x1="81.3521" y1="107.49" x2="115.224" y2="81.6827" stroke="#FEFFCD" stroke-width="1.61296"/>
<line x1="80.652" y1="54.2178" x2="114.524" y2="75.1863" stroke="#FEFFCD" stroke-width="1.61296"/>
<line x1="81.8408" y1="49.2585" x2="172.167" y2="49.2585" stroke="#FEFFCD" stroke-width="1.61296"/>
<line x1="85.0664" y1="118.616" x2="123.777" y2="118.616" stroke="#FEFFCD" stroke-width="1.61296"/>
<line x1="124.582" y1="85.4997" x2="126.195" y2="111.307" stroke="#FEFFCD" stroke-width="1.61296"/>
<line x1="134.433" y1="109.248" x2="174.757" y2="57.6331" stroke="#FEFFCD" stroke-width="1.61296"/>
<line x1="137.976" y1="113.842" x2="160.558" y2="104.164" stroke="#FEFFCD" stroke-width="1.61296"/>
<line x1="130.56" y1="78.3627" x2="162.82" y2="92.8794" stroke="#FEFFCD" stroke-width="1.61296"/>
<line x1="208.91" y1="86.2744" x2="133.101" y2="49.1763" stroke="#FEFFCD" stroke-width="1.61296"/>
<line x1="184.863" y1="94.4485" x2="209.057" y2="87.9967" stroke="#FEFFCD" stroke-width="1.61296"/>
<line x1="213.552" y1="79.6865" x2="187.745" y2="55.4921" stroke="#FEFFCD" stroke-width="1.61296"/>
<circle cx="131.5" cy="131.5" r="130" stroke="#FEFFCD" stroke-width="3"/>
</svg>
