<svg width="308" height="308" viewBox="0 0 308 308" fill="none" xmlns="http://www.w3.org/2000/svg">
<circle cx="154" cy="154" r="154" fill="url(#paint0_linear)"/>
<path d="M82.9238 132.725C87.123 132.725 90.541 134.023 93.1777 136.621C95.8145 139.258 97.1328 142.676 97.1328 146.875C97.1328 151.074 95.7852 154.482 93.0898 157.1C90.3945 159.717 86.8984 161.025 82.6016 161.025H73.4316V175H65.873V132.725H82.9238ZM73.4316 154.932H80.9023C83.6172 154.932 85.7168 154.229 87.2012 152.822C88.7051 151.416 89.457 149.434 89.457 146.875C89.457 144.336 88.7148 142.373 87.2305 140.986C85.7461 139.6 83.6465 138.906 80.9316 138.906H73.4316V154.932ZM110.229 153.291H118.959C121.361 153.291 123.227 152.656 124.555 151.387C125.863 150.117 126.518 148.34 126.518 146.055C126.518 143.828 125.834 142.07 124.467 140.781C123.08 139.492 121.186 138.848 118.783 138.848H110.229V153.291ZM110.229 175H102.67V132.725H119.662C124.213 132.725 127.797 133.906 130.414 136.27C132.992 138.613 134.281 141.816 134.281 145.879C134.281 148.711 133.588 151.191 132.201 153.32C130.775 155.508 128.812 157.051 126.312 157.949L135.541 175H126.898L118.607 159.092H110.229V175ZM167.768 175H140.404V132.725H167.768V139.111H147.963V150.537H166.684V156.543H147.963V168.613H167.768V175ZM179.926 163.105C180.16 165.039 181.166 166.602 182.943 167.793C184.682 168.965 186.85 169.551 189.447 169.551C191.986 169.551 194.066 168.984 195.688 167.852C197.289 166.719 198.09 165.273 198.09 163.516C198.09 161.992 197.504 160.762 196.332 159.824C195.16 158.867 193.246 158.076 190.59 157.451L185.111 156.162C177.455 154.404 173.627 150.547 173.627 144.59C173.627 140.859 175.102 137.822 178.051 135.479C180.961 133.174 184.73 132.021 189.359 132.021C194.008 132.021 197.758 133.174 200.609 135.479C203.441 137.764 204.906 140.771 205.004 144.502H197.797C197.621 142.529 196.762 140.977 195.219 139.844C193.715 138.73 191.742 138.174 189.301 138.174C186.918 138.174 184.984 138.711 183.5 139.785C182.035 140.859 181.303 142.275 181.303 144.033C181.303 145.439 181.879 146.582 183.031 147.461C184.164 148.34 186.029 149.092 188.627 149.717L193.49 150.83C197.768 151.807 200.873 153.232 202.807 155.107C204.74 156.982 205.707 159.492 205.707 162.637C205.707 166.641 204.203 169.824 201.195 172.188C198.207 174.531 194.154 175.703 189.037 175.703C184.154 175.703 180.238 174.58 177.289 172.334C174.32 170.068 172.758 166.992 172.602 163.105H179.926ZM217.016 163.105C217.25 165.039 218.256 166.602 220.033 167.793C221.771 168.965 223.939 169.551 226.537 169.551C229.076 169.551 231.156 168.984 232.777 167.852C234.379 166.719 235.18 165.273 235.18 163.516C235.18 161.992 234.594 160.762 233.422 159.824C232.25 158.867 230.336 158.076 227.68 157.451L222.201 156.162C214.545 154.404 210.717 150.547 210.717 144.59C210.717 140.859 212.191 137.822 215.141 135.479C218.051 133.174 221.82 132.021 226.449 132.021C231.098 132.021 234.848 133.174 237.699 135.479C240.531 137.764 241.996 140.771 242.094 144.502H234.887C234.711 142.529 233.852 140.977 232.309 139.844C230.805 138.73 228.832 138.174 226.391 138.174C224.008 138.174 222.074 138.711 220.59 139.785C219.125 140.859 218.393 142.275 218.393 144.033C218.393 145.439 218.969 146.582 220.121 147.461C221.254 148.34 223.119 149.092 225.717 149.717L230.58 150.83C234.857 151.807 237.963 153.232 239.896 155.107C241.83 156.982 242.797 159.492 242.797 162.637C242.797 166.641 241.293 169.824 238.285 172.188C235.297 174.531 231.244 175.703 226.127 175.703C221.244 175.703 217.328 174.58 214.379 172.334C211.41 170.068 209.848 166.992 209.691 163.105H217.016Z" fill="white"/>
<defs>
<linearGradient id="paint0_linear" x1="154" y1="0" x2="154" y2="308" gradientUnits="userSpaceOnUse">
<stop stop-color="#982222"/>
<stop offset="1" stop-color="#FF2F2F"/>
</linearGradient>
</defs>
</svg>
