<svg width="68" height="68" viewBox="0 0 68 68" fill="none" xmlns="http://www.w3.org/2000/svg">
<path d="M27.5799 5.05312L27.6079 4.92668L27.6079 45.6282L10.3481 28.5892C9.50548 27.7548 8.36397 27.2972 7.16588 27.2972C5.9678 27.2972 4.83427 27.7548 3.98962 28.5892L1.30857 31.2405C0.46592 32.0742 -1.52181e-06 33.1851 -1.47002e-06 34.3698C-1.41821e-06 35.5552 0.462593 36.6668 1.30525 37.5005L30.8241 66.7086C31.6701 67.5456 32.7969 68.0033 33.9957 68C35.2011 68.0033 36.3286 67.5456 37.1733 66.7086L66.6948 37.5005C67.5367 36.6668 68 35.5559 68 34.3698C68 33.1851 67.5361 32.0742 66.6948 31.2405L64.0137 28.5892C63.1724 27.7548 62.0488 27.2972 60.8508 27.2972C59.6533 27.2972 58.589 27.7548 57.747 28.5892L40.3908 45.8205L40.3908 4.99253C40.3908 2.55134 38.2642 0.499998 35.7981 0.499998L32.0062 0.499999C29.5401 0.499999 27.5799 2.61193 27.5799 5.05312Z" fill="white"/>
</svg>
