<svg width="20" height="20" viewBox="0 0 20 20" fill="none" xmlns="http://www.w3.org/2000/svg">
<path d="M10 7.61875C9.52907 7.61893 9.06877 7.75873 8.67729 8.0205C8.28582 8.28226 7.98074 8.65422 7.80065 9.08935C7.62055 9.52449 7.57352 10.0032 7.66551 10.4651C7.75749 10.927 7.98435 11.3512 8.31741 11.6841C8.65047 12.017 9.07477 12.2438 9.53666 12.3356C9.99856 12.4274 10.4773 12.3802 10.9124 12.1999C11.3474 12.0196 11.7193 11.7144 11.9809 11.3229C12.2425 10.9313 12.3821 10.4709 12.3821 10C12.3817 9.36844 12.1305 8.7629 11.6839 8.31641C11.2372 7.86992 10.6316 7.61899 10 7.61875ZM15.5674 5.78839C15.4462 5.48118 15.2631 5.20215 15.0296 4.96862C14.7961 4.73509 14.517 4.55203 14.2098 4.4308C13.2723 4.06071 11.0402 4.14375 10 4.14375C8.95982 4.14375 6.72991 4.05759 5.78973 4.4308C5.48252 4.55203 5.20349 4.73509 4.96996 4.96862C4.73642 5.20215 4.55337 5.48118 4.43214 5.78839C4.0625 6.72589 4.14509 8.96027 4.14509 9.99955C4.14509 11.0388 4.0625 13.2705 4.43393 14.2112C4.55515 14.5184 4.73821 14.7974 4.97174 15.0309C5.20528 15.2645 5.4843 15.4475 5.79152 15.5688C6.72902 15.9388 8.96116 15.8558 10.0018 15.8558C11.0424 15.8558 13.2714 15.942 14.2116 15.5688C14.5188 15.4475 14.7978 15.2645 15.0314 15.0309C15.2649 14.7974 15.448 14.5184 15.5692 14.2112C15.942 13.2737 15.8562 11.0393 15.8562 10C15.8562 8.96071 15.942 6.72946 15.5692 5.78884L15.5674 5.78839ZM10 13.6607C9.27598 13.6607 8.56822 13.446 7.96622 13.0438C7.36421 12.6415 6.89501 12.0698 6.61794 11.4009C6.34087 10.732 6.26838 9.99594 6.40963 9.28583C6.55088 8.57572 6.89952 7.92344 7.41148 7.41148C7.92344 6.89952 8.57572 6.55088 9.28583 6.40963C9.99594 6.26838 10.732 6.34087 11.4009 6.61794C12.0698 6.89501 12.6415 7.36421 13.0438 7.96622C13.446 8.56822 13.6607 9.27598 13.6607 10C13.6613 10.4809 13.567 10.9572 13.3833 11.4016C13.1995 11.846 12.9299 12.2498 12.5898 12.5898C12.2498 12.9299 11.846 13.1995 11.4016 13.3833C10.9572 13.567 10.4809 13.6613 10 13.6607ZM13.8116 7.04018C13.6426 7.04027 13.4773 6.99023 13.3368 6.89639C13.1962 6.80256 13.0866 6.66914 13.0219 6.51301C12.9571 6.35689 12.9401 6.18507 12.9731 6.01929C13.006 5.85351 13.0873 5.70122 13.2068 5.58167C13.3263 5.46213 13.4785 5.38071 13.6443 5.3477C13.8101 5.31469 13.9819 5.33159 14.138 5.39625C14.2942 5.46091 14.4277 5.57043 14.5216 5.71095C14.6155 5.85148 14.6656 6.0167 14.6656 6.18571C14.6661 6.29795 14.6444 6.40918 14.6018 6.51301C14.5592 6.61685 14.4965 6.71125 14.4173 6.7908C14.3381 6.87035 14.244 6.93349 14.1404 6.97659C14.0368 7.01969 13.9256 7.04191 13.8134 7.04196L13.8116 7.04018ZM17.8571 0H2.14286C1.57454 0 1.02949 0.225765 0.627628 0.627628C0.225765 1.02949 0 1.57454 0 2.14286L0 17.8571C0 18.4255 0.225765 18.9705 0.627628 19.3724C1.02949 19.7742 1.57454 20 2.14286 20H17.8571C18.4255 20 18.9705 19.7742 19.3724 19.3724C19.7742 18.9705 20 18.4255 20 17.8571V2.14286C20 1.57454 19.7742 1.02949 19.3724 0.627628C18.9705 0.225765 18.4255 0 17.8571 0ZM17.0929 12.9464C17.0353 14.0906 16.7741 15.1045 15.9388 15.9375C15.1036 16.7705 14.0906 17.0371 12.9478 17.0915C11.7688 17.158 8.23393 17.158 7.05491 17.0915C5.91071 17.0339 4.90045 16.7723 4.06384 15.9375C3.22723 15.1027 2.96429 14.0884 2.90982 12.9464C2.8433 11.767 2.8433 8.2317 2.90982 7.05357C2.96741 5.90938 3.22545 4.89554 4.06384 4.0625C4.90223 3.22946 5.91518 2.96607 7.05491 2.91161C8.23393 2.84509 11.7688 2.84509 12.9478 2.91161C14.092 2.9692 15.1054 3.2308 15.9388 4.06563C16.7723 4.90045 17.0384 5.91473 17.0929 7.05893C17.1594 8.23393 17.1594 11.7661 17.0929 12.9464Z" fill="#D5D5D5"/>
</svg>
