<svg width="214" height="237" viewBox="0 0 214 237" fill="none" xmlns="http://www.w3.org/2000/svg">
<g filter="url(#filter0_f)">
<path d="M37.6667 95.4V72.3C37.6667 53.9205 44.9714 36.2938 57.9739 23.2975C70.9765 10.3012 88.6117 3 107 3C125.388 3 143.024 10.3012 156.026 23.2975C169.029 36.2938 176.333 53.9205 176.333 72.3V95.4H187.889C194.018 95.4 199.897 97.8337 204.231 102.166C208.565 106.498 211 112.373 211 118.5V210.9C211 217.027 208.565 222.902 204.231 227.234C199.897 231.566 194.018 234 187.889 234H26.1111C19.9817 234 14.1033 231.566 9.76909 227.234C5.43491 222.902 3 217.027 3 210.9V118.5C3 105.795 13.4 95.4 26.1111 95.4H37.6667ZM95.4444 173.132V199.35H118.556V173.132C122.961 170.589 126.405 166.664 128.352 161.966C130.299 157.268 130.64 152.059 129.324 147.148C128.007 142.236 125.105 137.895 121.069 134.8C117.033 131.704 112.088 130.026 107 130.026C101.912 130.026 96.9671 131.704 92.9308 134.8C88.8946 137.895 85.9931 142.236 84.6764 147.148C83.3596 152.059 83.7012 157.268 85.6481 161.966C87.595 166.664 91.0385 170.589 95.4444 173.132ZM72.3333 72.3V95.4H141.667V72.3C141.667 63.1102 138.014 54.2969 131.513 47.7988C125.012 41.3006 116.194 37.65 107 37.65C97.8058 37.65 88.9882 41.3006 82.487 47.7988C75.9857 54.2969 72.3333 63.1102 72.3333 72.3Z" fill="#414141"/>
</g>
<defs>
<filter id="filter0_f" x="0" y="0" width="214" height="237" filterUnits="userSpaceOnUse" color-interpolation-filters="sRGB">
<feFlood flood-opacity="0" result="BackgroundImageFix"/>
<feBlend mode="normal" in="SourceGraphic" in2="BackgroundImageFix" result="shape"/>
<feGaussianBlur stdDeviation="1.5" result="effect1_foregroundBlur"/>
</filter>
</defs>
</svg>
