<svg width="648" height="488" viewBox="0 0 648 488" fill="none" xmlns="http://www.w3.org/2000/svg">
<rect x="5" y="483" width="478" height="638" transform="rotate(-90 5 483)" fill="#262829" stroke="url(#paint0_linear)" stroke-width="10"/>
<path d="M118.367 226.575C111.082 226.575 104.46 225.718 98.4991 224.003C92.5385 222.156 87.3066 219.584 82.8031 216.287C78.432 212.857 74.922 208.768 72.2728 204.02C69.7562 199.271 68.2329 193.929 67.7031 187.994H97.5056C98.1679 192.215 100.42 195.578 104.261 198.084C108.102 200.59 112.804 201.844 118.367 201.844C124.725 201.844 129.759 199.997 133.467 196.304C137.309 192.478 139.229 187.4 139.229 181.069C139.229 174.738 137.242 169.725 133.269 166.032C129.295 162.207 123.997 160.294 117.374 160.294H99.4925V133.584L118.566 116.964C120.288 115.513 122.076 114.128 123.931 112.809C125.785 111.49 127.441 110.369 128.898 109.446C130.752 108.259 132.54 107.204 134.262 106.28V104.302C132.275 104.829 130.09 105.225 127.706 105.489C125.719 105.885 123.334 106.214 120.553 106.478C117.904 106.742 115.056 106.874 112.01 106.874H74.657V82.1421H163.071V108.852L137.441 129.429C134.924 131.408 132.408 133.056 129.891 134.375C128.699 135.167 127.507 135.826 126.315 136.354C132.938 136.882 138.898 138.333 144.196 140.707C149.494 143.081 153.932 146.181 157.508 150.006C161.217 153.831 164.065 158.382 166.051 163.658C168.038 168.934 169.032 174.738 169.032 181.069C169.032 187.928 167.773 194.193 165.257 199.865C162.872 205.405 159.429 210.153 154.925 214.11C150.554 218.068 145.256 221.167 139.03 223.41C132.805 225.52 125.917 226.575 118.367 226.575Z" fill="#FFEA87"/>
<path d="M237.5 226.575C230.215 226.575 223.592 225.718 217.631 224.003C211.671 222.156 206.439 219.584 201.935 216.287C197.564 212.857 194.054 208.768 191.405 204.02C188.889 199.271 187.365 193.929 186.836 187.994H216.638C217.3 192.215 219.552 195.578 223.393 198.084C227.234 200.59 231.937 201.844 237.5 201.844C243.858 201.844 248.891 199.997 252.6 196.304C256.441 192.478 258.362 187.4 258.362 181.069C258.362 174.738 256.375 169.725 252.401 166.032C248.427 162.207 243.129 160.294 236.506 160.294H218.625V133.584L237.699 116.964C239.42 115.513 241.209 114.128 243.063 112.809C244.917 111.49 246.573 110.369 248.03 109.446C249.884 108.259 251.673 107.204 253.394 106.28V104.302C251.408 104.829 249.222 105.225 246.838 105.489C244.851 105.885 242.467 106.214 239.685 106.478C237.036 106.742 234.188 106.874 231.142 106.874H193.789V82.1421H282.204V108.852L256.573 129.429C254.057 131.408 251.54 133.056 249.023 134.375C247.831 135.167 246.639 135.826 245.447 136.354C252.07 136.882 258.03 138.333 263.329 140.707C268.627 143.081 273.064 146.181 276.64 150.006C280.349 153.831 283.197 158.382 285.184 163.658C287.171 168.934 288.164 174.738 288.164 181.069C288.164 187.928 286.906 194.193 284.389 199.865C282.005 205.405 278.561 210.153 274.058 214.11C269.687 218.068 264.388 221.167 258.163 223.41C251.937 225.52 245.05 226.575 237.5 226.575Z" fill="#FFEA87"/>
<path d="M68.2992 303.772C68.2992 297.045 69.4913 290.978 71.8755 285.57C74.2597 280.162 77.6373 275.545 82.0083 271.72C86.3794 267.763 91.6114 264.729 97.7043 262.619C103.93 260.508 110.817 259.453 118.367 259.453C125.917 259.453 132.739 260.508 138.832 262.619C145.057 264.729 150.355 267.763 154.726 271.72C159.097 275.545 162.475 280.162 164.859 285.57C167.244 290.978 168.436 297.045 168.436 303.772V361.348C168.436 367.943 167.177 374.01 164.661 379.55C162.276 384.958 158.899 389.641 154.528 393.598C150.157 397.423 144.859 400.457 138.633 402.699C132.54 404.81 125.785 405.865 118.367 405.865C110.817 405.865 103.93 404.81 97.7043 402.699C91.6114 400.589 86.3794 397.621 82.0083 393.796C77.6373 389.839 74.2597 385.156 71.8755 379.748C69.4913 374.208 68.2992 368.075 68.2992 361.348V303.772ZM97.1083 361.348C97.1083 366.888 99.0289 371.372 102.87 374.802C106.844 378.231 112.01 379.946 118.367 379.946C124.725 379.946 129.825 378.231 133.666 374.802C137.64 371.372 139.627 366.888 139.627 361.348V303.772C139.627 298.232 137.64 293.748 133.666 290.318C129.825 286.889 124.725 285.174 118.367 285.174C112.01 285.174 106.844 286.889 102.87 290.318C99.0289 293.748 97.1083 298.232 97.1083 303.772V361.348ZM109.427 319.799C109.427 316.765 110.221 314.391 111.811 312.676C113.533 310.829 115.718 309.906 118.367 309.906C121.017 309.906 123.136 310.829 124.725 312.676C126.447 314.391 127.308 316.765 127.308 319.799V347.498C127.308 350.532 126.447 352.972 124.725 354.819C123.136 356.533 121.017 357.391 118.367 357.391C115.718 357.391 113.533 356.533 111.811 354.819C110.221 352.972 109.427 350.532 109.427 347.498V319.799Z" fill="#FFEA87"/>
<path d="M191.803 378.165H230.149V303.575C230.149 297.903 230.347 293.814 230.745 291.308C230.877 289.725 231.009 288.406 231.142 287.351H230.546C230.016 288.01 229.288 288.736 228.36 289.527C227.698 290.186 226.771 290.978 225.579 291.901C224.519 292.824 223.195 293.814 221.605 294.869L193.591 312.874V284.185L227.168 261.432H259.951V378.165H290.151V403.886H191.803V378.165Z" fill="#FFEA87"/>
<path d="M367.808 101.136V82.1421H451.337V101.136H420.605V205.603H451.337V224.597H367.808V205.603H398.54V101.136H367.808Z" fill="#FFEA87"/>
<path d="M513.513 82.1421H543.064L580.298 224.597H557.839L548.777 186.807H506.421L497.359 224.597H475.098L513.513 82.1421ZM544.443 169.396L531.638 115.975C530.981 113.469 530.456 111.095 530.062 108.852C529.668 106.478 529.339 104.368 529.077 102.521C528.814 100.411 528.551 98.432 528.289 96.5854H527.304C527.041 98.432 526.713 100.411 526.319 102.521C526.056 104.368 525.662 106.478 525.137 108.852C524.743 111.095 524.217 113.469 523.561 115.975L510.755 169.396H544.443Z" fill="#FFEA87"/>
<path d="M362.686 366.69H384.947C385.21 372.889 387.574 377.77 392.039 381.331C396.504 384.892 402.48 386.673 409.966 386.673C417.847 386.673 423.888 384.958 428.091 381.529C432.425 377.967 434.592 373.153 434.592 367.086C434.592 361.809 433.016 357.193 429.864 353.236C426.712 349.279 422.378 346.377 416.862 344.53L400.707 339.386C389.15 335.957 380.482 330.746 374.703 323.756C368.924 316.765 366.035 308.191 366.035 298.035C366.035 292.231 367.02 286.955 368.99 282.206C371.091 277.458 374.046 273.435 377.855 270.137C381.795 266.708 386.457 264.07 391.842 262.223C397.358 260.377 403.465 259.453 410.163 259.453C416.73 259.453 422.706 260.377 428.091 262.223C433.475 263.938 438.072 266.51 441.881 269.939C445.69 273.237 448.71 277.26 450.943 282.008C453.176 286.757 454.358 292.033 454.489 297.837H432.228C432.096 291.901 429.995 287.219 425.924 283.789C421.852 280.228 416.468 278.447 409.769 278.447C403.071 278.447 397.687 280.162 393.615 283.591C389.675 286.889 387.705 291.505 387.705 297.441C387.705 302.19 389.15 306.344 392.039 309.906C395.06 313.335 399.722 316.039 406.026 318.018L422.969 323.36C433.87 326.789 442.144 332.131 447.791 339.386C453.57 346.641 456.459 355.544 456.459 366.096C456.459 372.164 455.343 377.638 453.11 382.518C451.009 387.398 447.922 391.553 443.851 394.983C439.78 398.412 434.855 401.116 429.076 403.095C423.297 404.942 416.796 405.865 409.572 405.865C402.743 405.865 396.439 404.942 390.66 403.095C385.013 401.248 380.088 398.61 375.885 395.181C371.813 391.751 368.596 387.662 366.232 382.914C363.999 378.033 362.817 372.625 362.686 366.69Z" fill="#FFEA87"/>
<path d="M513.513 261.432H543.064L580.298 403.886H557.839L548.777 366.096H506.421L497.359 403.886H475.098L513.513 261.432ZM544.443 348.685L531.638 295.265C530.981 292.759 530.456 290.384 530.062 288.142C529.668 285.768 529.339 283.657 529.077 281.811C528.814 279.7 528.551 277.722 528.289 275.875H527.304C527.041 277.722 526.713 279.7 526.319 281.811C526.056 283.657 525.662 285.768 525.137 288.142C524.743 290.384 524.217 292.759 523.561 295.265L510.755 348.685H544.443Z" fill="#FFEA87"/>
<defs>
<linearGradient id="paint0_linear" x1="486.752" y1="813.366" x2="0.100419" y2="813.366" gradientUnits="userSpaceOnUse">
<stop stop-color="#FFEA87"/>
<stop offset="1" stop-color="white"/>
</linearGradient>
</defs>
</svg>
