<svg width="211" height="278" viewBox="0 0 211 278" fill="none" xmlns="http://www.w3.org/2000/svg">
<rect x="1.47" y="1.85672" width="208.06" height="274.286" fill="#242627" stroke="url(#paint0_linear)" stroke-width="2.94"/>
<path d="M74.9505 104.016C71.4813 104.016 68.3276 103.602 65.4892 102.774C62.6508 101.882 60.1593 100.64 58.0148 99.0474C55.9333 97.3914 54.2618 95.4168 53.0003 93.1238C51.8019 90.8308 51.0765 88.2512 50.8242 85.3849H65.0161C65.3315 87.4231 66.4038 89.0474 68.233 90.2576C70.0621 91.4678 72.3013 92.0729 74.9505 92.0729C77.9781 92.0729 80.3749 91.1811 82.141 89.3977C83.9702 87.5505 84.8848 85.0983 84.8848 82.0409C84.8848 78.9836 83.9387 76.5632 82.0464 74.7798C80.1542 72.9326 77.6311 72.009 74.4774 72.009H65.9622V59.1109L75.0451 51.0853C75.865 50.3847 76.7166 49.7159 77.5996 49.079C78.4827 48.442 79.2711 47.9006 79.9649 47.4548C80.848 46.8815 81.6995 46.3719 82.5195 45.9261V44.9707C81.5733 45.2254 80.5326 45.4165 79.3973 45.5439C78.4511 45.735 77.3158 45.8942 75.9912 46.0216C74.7297 46.149 73.3736 46.2127 71.9228 46.2127H54.1357V34.27H96.2383V47.1681L84.0333 57.1045C82.8348 58.0599 81.6364 58.8561 80.438 59.493C79.8703 59.8752 79.3026 60.1937 78.735 60.4485C81.8887 60.7032 84.7271 61.4039 87.2501 62.5504C89.7731 63.6969 91.8861 65.1937 93.5892 67.0409C95.3553 68.888 96.7114 71.0855 97.6575 73.6333C98.6036 76.181 99.0767 78.9836 99.0767 82.0409C99.0767 85.3531 98.4775 88.3786 97.279 91.1174C96.1437 93.7926 94.5037 96.0856 92.3592 97.9965C90.2777 99.9073 87.7547 101.404 84.7902 102.487C81.8256 103.506 78.5457 104.016 74.9505 104.016Z" fill="#FFEA87"/>
<path d="M136.048 104.016C132.579 104.016 129.425 103.602 126.587 102.774C123.749 101.882 121.257 100.64 119.113 99.0474C117.031 97.3914 115.36 95.4168 114.098 93.1238C112.9 90.8308 112.174 88.2512 111.922 85.3849H126.114C126.429 87.4231 127.502 89.0474 129.331 90.2576C131.16 91.4678 133.399 92.0729 136.048 92.0729C139.076 92.0729 141.473 91.1811 143.239 89.3977C145.068 87.5505 145.983 85.0983 145.983 82.0409C145.983 78.9836 145.037 76.5632 143.144 74.7798C141.252 72.9326 138.729 72.009 135.575 72.009H127.06V59.1109L136.143 51.0853C136.963 50.3847 137.814 49.7159 138.698 49.079C139.581 48.442 140.369 47.9006 141.063 47.4548C141.946 46.8815 142.797 46.3719 143.617 45.9261V44.9707C142.671 45.2254 141.631 45.4165 140.495 45.5439C139.549 45.735 138.414 45.8942 137.089 46.0216C135.828 46.149 134.471 46.2127 133.021 46.2127H115.234V34.27H157.336V47.1681L145.131 57.1045C143.933 58.0599 142.734 58.8561 141.536 59.493C140.968 59.8752 140.401 60.1937 139.833 60.4485C142.987 60.7032 145.825 61.4039 148.348 62.5504C150.871 63.6969 152.984 65.1937 154.687 67.0409C156.453 68.888 157.809 71.0855 158.755 73.6333C159.702 76.181 160.175 78.9836 160.175 82.0409C160.175 85.3531 159.575 88.3786 158.377 91.1174C157.242 93.7926 155.602 96.0856 153.457 97.9965C151.376 99.9073 148.853 101.404 145.888 102.487C142.924 103.506 139.644 104.016 136.048 104.016Z" fill="#FFEA87"/>
<path d="M51.1081 138.985C51.1081 135.736 51.6757 132.807 52.8111 130.195C53.9464 127.584 55.5549 125.354 57.6363 123.507C59.7178 121.596 62.2093 120.131 65.1107 119.112C68.0753 118.093 71.3552 117.584 74.9505 117.584C78.5457 117.584 81.7941 118.093 84.6956 119.112C87.6601 120.131 90.1831 121.596 92.2646 123.507C94.3461 125.354 95.9545 127.584 97.0898 130.195C98.2252 132.807 98.7929 135.736 98.7929 138.985V166.788C98.7929 169.972 98.1936 172.902 96.9952 175.577C95.8599 178.189 94.2514 180.45 92.17 182.361C90.0885 184.208 87.5655 185.673 84.6009 186.756C81.6995 187.775 78.4827 188.285 74.9505 188.285C71.3552 188.285 68.0753 187.775 65.1107 186.756C62.2093 185.737 59.7178 184.304 57.6363 182.457C55.5549 180.546 53.9464 178.285 52.8111 175.673C51.6757 172.998 51.1081 170.036 51.1081 166.788V138.985ZM64.8269 166.788C64.8269 169.463 65.7415 171.628 67.5707 173.284C69.4629 174.941 71.9228 175.769 74.9505 175.769C77.9781 175.769 80.4065 174.941 82.2356 173.284C84.1279 171.628 85.074 169.463 85.074 166.788V138.985C85.074 136.31 84.1279 134.144 82.2356 132.488C80.4065 130.832 77.9781 130.004 74.9505 130.004C71.9228 130.004 69.4629 130.832 67.5707 132.488C65.7415 134.144 64.8269 136.31 64.8269 138.985V166.788ZM70.6929 146.724C70.6929 145.259 71.0713 144.112 71.8282 143.284C72.6482 142.393 73.689 141.947 74.9505 141.947C76.212 141.947 77.2212 142.393 77.9781 143.284C78.798 144.112 79.208 145.259 79.208 146.724V160.1C79.208 161.565 78.798 162.743 77.9781 163.635C77.2212 164.463 76.212 164.877 74.9505 164.877C73.689 164.877 72.6482 164.463 71.8282 163.635C71.0713 162.743 70.6929 161.565 70.6929 160.1V146.724Z" fill="#FFEA87"/>
<path d="M112.759 174.909H131.019V138.889C131.019 136.15 131.113 134.176 131.303 132.966C131.366 132.201 131.429 131.564 131.492 131.055H131.208C130.956 131.373 130.609 131.724 130.167 132.106C129.852 132.424 129.41 132.807 128.843 133.252C128.338 133.698 127.707 134.176 126.95 134.686L113.61 143.38V129.526L129.6 118.539H145.211V174.909H159.592V187.329H112.759V174.909Z" fill="#FFEA87"/>
<path d="M49.2852 215.047V208.832H71.151V215.047H63.8624V237.037H71.151V243.252H49.2852V237.037H56.5738V215.047H49.2852Z" fill="#FFEA87"/>
<path d="M84.5917 208.832H94.3098L103.445 243.252H96.0591L94.2126 235.364H84.4459L82.5994 243.252H75.2622L84.5917 208.832ZM92.8521 229.771L90.1796 218.441C90.0824 217.963 89.9852 217.453 89.888 216.911C89.7909 216.338 89.7099 215.796 89.6451 215.286C89.5803 214.744 89.5155 214.186 89.4507 213.613H89.1592C89.0944 214.186 89.0134 214.744 88.9162 215.286C88.8514 215.796 88.7705 216.338 88.6733 216.911C88.6085 217.453 88.5113 217.963 88.3817 218.441L85.7578 229.771H92.8521Z" fill="#FFEA87"/>
<path d="M106.098 233.93H113.387C113.646 236.32 115.395 237.515 118.635 237.515C120.254 237.515 121.485 237.181 122.328 236.511C123.17 235.81 123.591 234.886 123.591 233.739C123.591 232.719 123.251 231.842 122.571 231.109C121.923 230.376 121.016 229.882 119.85 229.627L116.157 228.815C112.982 228.114 110.569 226.871 108.917 225.086C107.297 223.269 106.487 220.959 106.487 218.154C106.487 216.688 106.762 215.35 107.313 214.139C107.896 212.928 108.706 211.892 109.743 211.031C110.779 210.171 112.026 209.502 113.484 209.023C114.974 208.545 116.643 208.306 118.489 208.306C121.955 208.306 124.725 209.151 126.798 210.84C128.904 212.529 130.07 214.872 130.297 217.867H123.008C122.878 216.816 122.392 216.003 121.55 215.429C120.74 214.824 119.655 214.521 118.295 214.521C116.869 214.521 115.752 214.856 114.942 215.525C114.164 216.194 113.776 217.039 113.776 218.059C113.776 218.951 114.083 219.732 114.699 220.401C115.314 221.038 116.205 221.485 117.371 221.74L121.259 222.6C124.401 223.301 126.782 224.576 128.402 226.424C130.054 228.241 130.88 230.568 130.88 233.404C130.88 234.934 130.588 236.336 130.005 237.611C129.422 238.854 128.58 239.937 127.478 240.861C126.409 241.754 125.114 242.455 123.591 242.965C122.069 243.475 120.368 243.73 118.489 243.73C116.675 243.73 115.023 243.507 113.533 243.06C112.043 242.582 110.763 241.929 109.694 241.1C108.625 240.24 107.783 239.204 107.167 237.993C106.552 236.782 106.196 235.428 106.098 233.93Z" fill="#FFEA87"/>
<path d="M142.863 208.832H152.581L161.716 243.252H154.33L152.484 235.364H142.717L140.87 243.252H133.533L142.863 208.832ZM151.123 229.771L148.451 218.441C148.353 217.963 148.256 217.453 148.159 216.911C148.062 216.338 147.981 215.796 147.916 215.286C147.851 214.744 147.786 214.186 147.722 213.613H147.43C147.365 214.186 147.284 214.744 147.187 215.286C147.122 215.796 147.041 216.338 146.944 216.911C146.879 217.453 146.782 217.963 146.653 218.441L144.029 229.771H151.123Z" fill="#FFEA87"/>
<defs>
<linearGradient id="paint0_linear" x1="105.5" y1="0.386719" x2="105.5" y2="277.613" gradientUnits="userSpaceOnUse">
<stop stop-color="#FFEA87"/>
<stop offset="1" stop-color="white"/>
</linearGradient>
</defs>
</svg>
