<svg width="34" height="36" viewBox="0 0 34 36" fill="none" xmlns="http://www.w3.org/2000/svg">
<path d="M33.143 15.0511H17.1427V21.731H26.2832C25.889 23.8902 24.6933 25.7165 22.8909 26.9401C21.3675 27.9747 19.4234 28.5864 17.1382 28.5864C12.7141 28.5864 8.97199 25.5501 7.63457 21.4701C7.298 20.4355 7.10314 19.3289 7.10314 18.1909C7.10314 17.0528 7.298 15.9462 7.63457 14.9116C8.97641 10.8362 12.7185 7.79981 17.1427 7.79981C19.6359 7.79981 21.8723 8.67248 23.6349 10.3818L28.5063 5.42921C25.5613 2.64026 21.7218 0.930908 17.1427 0.930908C10.5043 0.930908 4.76044 4.79944 1.96603 10.4403C0.814605 12.7704 0.15918 15.4064 0.15918 18.1954C0.15918 20.9843 0.814605 23.6158 1.96603 25.9459C4.76044 31.5868 10.5043 35.4553 17.1427 35.4553C21.7306 35.4553 25.5746 33.9079 28.3823 31.2719C31.593 28.2671 33.4486 23.8407 33.4486 18.5822C33.4486 17.3587 33.3423 16.1846 33.143 15.0511Z" fill="white"/>
</svg>
