<svg width="295" height="195" viewBox="0 0 295 195" fill="none" xmlns="http://www.w3.org/2000/svg">
<path d="M153.33 30.5289H157.556V7.08837H153.297L147 11.3931V15.3405L153.23 11.0845H153.33V30.5289Z" fill="white"/>
<path d="M168.746 20.0838H171.719C174.709 20.0838 176.546 21.5296 176.546 23.9012C176.546 26.0617 174.592 27.5725 171.82 27.5725C168.947 27.5725 167.143 26.143 166.943 23.9987H162.834C163.051 28.1735 166.492 31 171.786 31C177.047 31 180.922 28.206 180.922 24.0637C180.922 20.7986 178.584 18.6543 174.976 18.3944V18.2969C177.949 17.7934 179.954 15.6979 179.954 12.7901C179.954 9.13515 176.58 6.61728 171.836 6.61728C166.859 6.61728 163.535 9.34633 163.301 13.5536H167.31C167.477 11.3606 169.147 9.94737 171.636 9.94737C174.342 9.94737 175.811 11.3119 175.811 13.3587C175.811 15.4542 174.125 16.9324 171.653 16.9324H168.746V20.0838Z" fill="white"/>
<path d="M193.098 8.81027V12.7739H190.61V15.909H193.098V25.8181C193.098 29.2456 194.635 30.6101 198.51 30.6101C199.395 30.6101 200.247 30.5452 200.698 30.4477V27.345C200.431 27.3775 199.863 27.4263 199.462 27.4263C197.959 27.4263 197.257 26.7277 197.257 25.2658V15.909H200.715V12.7739H197.257V8.81027H193.098Z" fill="white"/>
<path d="M210.118 27.6212C208.181 27.6212 206.911 26.7115 206.911 25.282C206.911 23.8363 208.114 22.9916 210.385 22.8454L214.561 22.5854V23.9337C214.561 26.0942 212.64 27.6212 210.118 27.6212ZM208.899 30.7238C211.321 30.7238 213.575 29.5705 214.577 27.6699H214.678V30.5289H218.67V18.3619C218.67 14.8369 215.713 12.5302 211.154 12.5302C206.861 12.5302 203.754 14.8532 203.654 18.102H207.496C207.78 16.6725 209.133 15.7141 211.02 15.7141C213.258 15.7141 214.561 16.7375 214.561 18.6218V19.9214L209.817 20.1975C205.224 20.4737 202.736 22.2768 202.736 25.4444C202.736 28.5958 205.308 30.7238 208.899 30.7238Z" fill="white"/>
<path d="M221.843 17.9071C221.843 20.425 223.547 22.0981 226.887 22.8616L230.194 23.6413C232.015 24.0637 232.683 24.616 232.683 25.6556C232.683 26.9714 231.363 27.7999 229.242 27.7999C227.071 27.7999 225.718 26.9064 225.467 25.2982H221.375C221.643 28.5958 224.599 30.7888 229.075 30.7888C233.652 30.7888 236.825 28.5634 236.825 25.2658C236.825 22.6504 235.422 21.3021 231.747 20.4737L228.541 19.7589C226.737 19.3528 225.885 18.6706 225.885 17.6797C225.885 16.3801 227.154 15.5192 229.092 15.5192C231.079 15.5192 232.399 16.4613 232.532 17.9558H236.407C236.324 14.7394 233.384 12.5302 229.175 12.5302C224.783 12.5302 221.843 14.6907 221.843 17.9071Z" fill="white"/>
<path d="M243.94 20.23H243.89V6H239.731V30.5289H243.89V24.3236L245.36 22.8778L251.239 30.5289H256.049L248.366 20.425L255.749 12.7739H250.922L243.94 20.23Z" fill="white"/>
<path d="M257.018 17.9071C257.018 20.425 258.722 22.0981 262.062 22.8616L265.369 23.6413C267.19 24.0637 267.858 24.616 267.858 25.6556C267.858 26.9714 266.538 27.7999 264.417 27.7999C262.246 27.7999 260.893 26.9064 260.642 25.2982H256.55C256.818 28.5958 259.774 30.7888 264.25 30.7888C268.827 30.7888 272 28.5634 272 25.2658C272 22.6504 270.597 21.3021 266.923 20.4737L263.716 19.7589C261.912 19.3528 261.06 18.6706 261.06 17.6797C261.06 16.3801 262.329 15.5192 264.267 15.5192C266.254 15.5192 267.574 16.4613 267.708 17.9558H271.582C271.499 14.7394 268.559 12.5302 264.35 12.5302C259.958 12.5302 257.018 14.6907 257.018 17.9071Z" fill="white"/>
<circle cx="116" cy="19" r="19" fill="#232526"/>
<path d="M124.295 9.77148L113.353 20.8458L108.247 15.6778L104.6 19.3692L113.353 28.2286L127.942 13.4629L124.295 9.77148Z" fill="white"/>
<path d="M237 121.941H238.133V118.26C238.133 117.138 238.862 116.402 240.047 116.402C241.16 116.402 241.726 117.019 241.726 118.04V121.941H242.859V117.856C242.859 116.431 241.922 115.482 240.385 115.482C239.311 115.482 238.595 115.856 238.159 116.58H238.133V113H237V121.941Z" fill="#FF7A73"/>
<path d="M246.661 121.104C245.776 121.104 245.209 120.718 245.209 120.124C245.209 119.507 245.756 119.156 246.811 119.097L248.647 118.99V119.507C248.647 120.427 247.807 121.104 246.661 121.104ZM246.42 122C247.403 122 248.282 121.543 248.679 120.83H248.705V121.941H249.78V117.547C249.78 116.289 248.712 115.482 247.052 115.482C245.581 115.482 244.428 116.307 244.396 117.387H245.483C245.62 116.782 246.225 116.402 247.039 116.402C248.074 116.402 248.647 116.841 248.647 117.637V118.171L246.681 118.278C244.975 118.373 244.051 119.02 244.051 120.118C244.051 121.252 244.995 122 246.42 122Z" fill="#FF7A73"/>
<path d="M251.284 121.941H252.416V117.981C252.416 117.078 253.015 116.473 253.927 116.473C254.207 116.473 254.454 116.503 254.545 116.532V115.517C254.448 115.499 254.278 115.482 254.076 115.482C253.256 115.482 252.586 115.909 252.377 116.58H252.351V115.541H251.284V121.941Z" fill="#FF7A73"/>
<path d="M257.852 122C258.868 122 259.669 121.596 260.124 120.86H260.144V121.941H261.225V113H260.092V116.58H260.066C259.636 115.879 258.829 115.482 257.826 115.482C256.082 115.482 254.845 116.788 254.845 118.741C254.845 120.694 256.088 122 257.852 122ZM258.054 116.402C259.272 116.402 260.098 117.352 260.098 118.741C260.098 120.136 259.272 121.08 258.054 121.08C256.824 121.08 256.003 120.16 256.003 118.741C256.003 117.328 256.824 116.402 258.054 116.402Z" fill="#FF7A73"/>
<path d="M266.394 114.098V115.541H265.417V116.396H266.394V120.278C266.394 121.507 266.889 121.988 268.158 121.988C268.425 121.988 268.751 121.964 268.887 121.935V121.062C268.809 121.074 268.536 121.092 268.399 121.092C267.8 121.092 267.527 120.825 267.527 120.237V116.396H268.894V115.541H267.527V114.098H266.394Z" fill="#FF7A73"/>
<path d="M272.377 121.104C271.491 121.104 270.925 120.718 270.925 120.124C270.925 119.507 271.472 119.156 272.527 119.097L274.362 118.99V119.507C274.362 120.427 273.523 121.104 272.377 121.104ZM272.136 122C273.119 122 273.998 121.543 274.395 120.83H274.421V121.941H275.495V117.547C275.495 116.289 274.428 115.482 272.767 115.482C271.296 115.482 270.144 116.307 270.111 117.387H271.198C271.335 116.782 271.941 116.402 272.754 116.402C273.79 116.402 274.362 116.841 274.362 117.637V118.171L272.396 118.278C270.691 118.373 269.766 119.02 269.766 120.118C269.766 121.252 270.71 122 272.136 122Z" fill="#FF7A73"/>
<path d="M276.882 117.328C276.882 118.183 277.481 118.747 278.711 119.038L279.942 119.328C280.743 119.518 281.035 119.756 281.035 120.207C281.035 120.783 280.437 121.145 279.48 121.145C278.523 121.145 277.943 120.795 277.826 120.142H276.687C276.797 121.252 277.891 122 279.401 122C281.022 122 282.175 121.228 282.175 120.136C282.175 119.204 281.667 118.753 280.248 118.426L279.18 118.183C278.373 117.999 277.995 117.708 277.995 117.274C277.995 116.716 278.575 116.342 279.44 116.342C280.3 116.342 280.873 116.716 280.944 117.316H282.032C281.986 116.265 280.905 115.487 279.48 115.487C277.956 115.487 276.882 116.247 276.882 117.328Z" fill="#FF7A73"/>
<path d="M284.603 118.402V113H283.47V121.941H284.603V119.513L285.267 118.943L287.904 121.941H289.219L286.061 118.307L289.128 115.541H287.748L284.603 118.402Z" fill="#FF7A73"/>
<path d="M289.707 117.328C289.707 118.183 290.306 118.747 291.537 119.038L292.767 119.328C293.568 119.518 293.861 119.756 293.861 120.207C293.861 120.783 293.262 121.145 292.305 121.145C291.348 121.145 290.768 120.795 290.651 120.142H289.512C289.623 121.252 290.716 122 292.227 122C293.848 122 295 121.228 295 120.136C295 119.204 294.492 118.753 293.073 118.426L292.005 118.183C291.198 117.999 290.82 117.708 290.82 117.274C290.82 116.716 291.4 116.342 292.266 116.342C293.125 116.342 293.698 116.716 293.77 117.316H294.857C294.811 116.265 293.73 115.487 292.305 115.487C290.781 115.487 289.707 116.247 289.707 117.328Z" fill="#FF7A73"/>
<path d="M257.006 98.8614L258.539 101.073H259.679L257.564 98.1493L259.708 95.301H258.569L257.042 97.4801H257.018L255.473 95.301H254.334L256.466 98.1868L254.299 101.073H255.438L256.983 98.8614H257.006Z" fill="white"/>
<path d="M266.533 95.2475C265.658 95.2475 264.853 95.6383 264.483 96.238H264.46V95.301H263.49V103H264.512V100.136H264.536C264.935 100.767 265.658 101.126 266.556 101.126C268.154 101.126 269.246 99.9482 269.246 98.1868C269.246 96.4253 268.148 95.2475 266.533 95.2475ZM266.345 100.296C265.252 100.296 264.507 99.445 264.507 98.1868C264.507 96.934 265.252 96.0773 266.345 96.0773C267.461 96.0773 268.201 96.9126 268.201 98.1868C268.201 99.4664 267.461 100.296 266.345 100.296Z" fill="white"/>
<path d="M270.662 94V95.301H269.781V96.072H270.662V99.5735C270.662 100.682 271.108 101.115 272.253 101.115C272.494 101.115 272.788 101.094 272.911 101.067V100.28C272.841 100.291 272.594 100.307 272.471 100.307C271.93 100.307 271.684 100.066 271.684 99.536V96.072H272.917V95.301H271.684V94H270.662Z" fill="white"/>
<path d="M273.945 96.9126C273.945 97.6835 274.485 98.1921 275.595 98.4545L276.705 98.7168C277.428 98.8882 277.692 99.1023 277.692 99.5092C277.692 100.029 277.152 100.355 276.288 100.355C275.425 100.355 274.902 100.039 274.797 99.4503H273.769C273.869 100.452 274.855 101.126 276.218 101.126C277.68 101.126 278.72 100.43 278.72 99.445C278.72 98.6044 278.262 98.1975 276.981 97.903L276.018 97.6835C275.29 97.5175 274.949 97.2552 274.949 96.8644C274.949 96.3611 275.472 96.0238 276.253 96.0238C277.028 96.0238 277.545 96.3611 277.61 96.9018H278.591C278.55 95.9542 277.575 95.2528 276.288 95.2528C274.914 95.2528 273.945 95.9381 273.945 96.9126Z" fill="white"/>
<path d="M89 172.934H90.1028V168.521C90.1028 167.525 90.7746 166.78 91.6873 166.78C92.5429 166.78 93.107 167.347 93.107 168.204V172.934H94.2098V168.462C94.2098 167.485 94.8626 166.78 95.7753 166.78C96.688 166.78 97.214 167.36 97.214 168.343V172.934H98.3168V168.079C98.3168 166.668 97.4422 165.757 96.0922 165.757C95.1352 165.757 94.3302 166.259 93.9436 167.103H93.9183C93.6204 166.245 92.9295 165.757 92.0042 165.757C91.1169 165.757 90.388 166.219 90.0648 166.978H90.0394V165.823H89V172.934Z" fill="#FFCA57"/>
<path d="M102.513 166.766C103.59 166.766 104.325 167.571 104.351 168.778H100.592C100.668 167.578 101.441 166.766 102.513 166.766ZM104.325 170.902C104.129 171.569 103.463 171.991 102.608 171.991C101.391 171.991 100.592 171.113 100.592 169.761V169.695H105.498V169.247C105.498 167.096 104.357 165.757 102.532 165.757C100.668 165.757 99.4513 167.202 99.4513 169.405C99.4513 171.608 100.662 173 102.582 173C104.04 173 105.225 172.123 105.415 170.902H104.325Z" fill="#FFCA57"/>
<path d="M109.25 173C110.239 173 111.018 172.551 111.462 171.734H111.481V172.934H112.533V163H111.43V166.978H111.405C110.986 166.199 110.201 165.757 109.224 165.757C107.526 165.757 106.322 167.208 106.322 169.379C106.322 171.549 107.532 173 109.25 173ZM109.446 166.78C110.631 166.78 111.436 167.835 111.436 169.379C111.436 170.929 110.631 171.978 109.446 171.978C108.248 171.978 107.45 170.955 107.45 169.379C107.45 167.809 108.248 166.78 109.446 166.78Z" fill="#FFCA57"/>
<path d="M114.162 172.934H115.265V165.823H114.162V172.934ZM114.713 164.675C115.1 164.675 115.41 164.346 115.41 163.95C115.41 163.547 115.1 163.224 114.713 163.224C114.333 163.224 114.016 163.547 114.016 163.95C114.016 164.346 114.333 164.675 114.713 164.675Z" fill="#FFCA57"/>
<path d="M122.395 165.823H121.292V169.953C121.292 171.173 120.614 171.978 119.492 171.978C118.421 171.978 117.895 171.351 117.895 170.183V165.823H116.792V170.381C116.792 171.997 117.66 173 119.156 173C120.202 173 120.905 172.578 121.33 171.76H121.355V172.934H122.395V165.823Z" fill="#FFCA57"/>
<path d="M123.897 172.934H125V168.521C125 167.525 125.671 166.78 126.584 166.78C127.44 166.78 128.004 167.347 128.004 168.204V172.934H129.107V168.462C129.107 167.485 129.759 166.78 130.672 166.78C131.585 166.78 132.111 167.36 132.111 168.343V172.934H133.214V168.079C133.214 166.668 132.339 165.757 130.989 165.757C130.032 165.757 129.227 166.259 128.84 167.103H128.815C128.517 166.245 127.826 165.757 126.901 165.757C126.014 165.757 125.285 166.219 124.962 166.978H124.936V165.823H123.897V172.934Z" fill="#FFCA57"/>
<path d="M138.151 164.22V165.823H137.2V166.773H138.151V171.087C138.151 172.453 138.633 172.987 139.869 172.987C140.128 172.987 140.445 172.96 140.578 172.927V171.958C140.502 171.971 140.236 171.991 140.103 171.991C139.52 171.991 139.254 171.694 139.254 171.041V166.773H140.585V165.823H139.254V164.22H138.151Z" fill="#FFCA57"/>
<path d="M143.976 172.004C143.114 172.004 142.562 171.575 142.562 170.916C142.562 170.23 143.095 169.84 144.121 169.774L145.909 169.656V170.23C145.909 171.252 145.091 172.004 143.976 172.004ZM143.741 173C144.698 173 145.554 172.492 145.94 171.701H145.966V172.934H147.011V168.053C147.011 166.654 145.972 165.757 144.356 165.757C142.923 165.757 141.802 166.674 141.77 167.875H142.828C142.961 167.202 143.551 166.78 144.343 166.78C145.351 166.78 145.909 167.268 145.909 168.152V168.745L143.995 168.864C142.334 168.97 141.434 169.689 141.434 170.909C141.434 172.169 142.353 173 143.741 173Z" fill="#FFCA57"/>
<path d="M148.361 167.809C148.361 168.759 148.945 169.385 150.142 169.708L151.34 170.032C152.12 170.243 152.405 170.507 152.405 171.008C152.405 171.648 151.822 172.05 150.89 172.05C149.959 172.05 149.395 171.661 149.28 170.935H148.171C148.279 172.169 149.344 173 150.814 173C152.392 173 153.514 172.142 153.514 170.929C153.514 169.893 153.02 169.392 151.638 169.029L150.599 168.759C149.813 168.554 149.445 168.231 149.445 167.749C149.445 167.129 150.009 166.714 150.852 166.714C151.689 166.714 152.247 167.129 152.316 167.796H153.375C153.33 166.628 152.278 165.764 150.89 165.764C149.407 165.764 148.361 166.608 148.361 167.809Z" fill="#FFCA57"/>
<path d="M155.878 169.003V163H154.775V172.934H155.878V170.236L156.525 169.603L159.092 172.934H160.372L157.298 168.897L160.283 165.823H158.94L155.878 169.003Z" fill="#FFCA57"/>
<path d="M160.847 167.809C160.847 168.759 161.43 169.385 162.628 169.708L163.826 170.032C164.606 170.243 164.891 170.507 164.891 171.008C164.891 171.648 164.308 172.05 163.376 172.05C162.444 172.05 161.88 171.661 161.766 170.935H160.657C160.765 172.169 161.83 173 163.3 173C164.878 173 166 172.142 166 170.929C166 169.893 165.506 169.392 164.124 169.029L163.085 168.759C162.299 168.554 161.931 168.231 161.931 167.749C161.931 167.129 162.495 166.714 163.338 166.714C164.175 166.714 164.732 167.129 164.802 167.796H165.861C165.816 166.628 164.764 165.764 163.376 165.764C161.893 165.764 160.847 166.608 160.847 167.809Z" fill="#FFCA57"/>
<path d="M116.145 153C117.327 153 117.859 152.562 118.428 151.102L121.039 144.419H119.907L118.038 149.682H118.013L116.145 144.419H115L117.469 150.722L117.339 151.096C117.067 151.855 116.733 152.136 116.114 152.136C115.971 152.136 115.798 152.124 115.674 152.1V152.959C115.804 152.982 116.009 153 116.145 153Z" fill="white"/>
<path d="M128.161 144.361C127.239 144.361 126.391 144.787 126.001 145.442H125.977V144.419H124.956V152.819H126.032V149.694H126.057C126.478 150.383 127.239 150.775 128.186 150.775C129.869 150.775 131.02 149.489 131.02 147.568C131.02 145.646 129.862 144.361 128.161 144.361ZM127.963 149.869C126.812 149.869 126.026 148.94 126.026 147.568C126.026 146.201 126.812 145.266 127.963 145.266C129.139 145.266 129.918 146.178 129.918 147.568C129.918 148.964 129.139 149.869 127.963 149.869Z" fill="white"/>
<path d="M132.511 143V144.419H131.583V145.261H132.511V149.081C132.511 150.29 132.981 150.763 134.188 150.763C134.441 150.763 134.751 150.739 134.881 150.71V149.852C134.806 149.863 134.546 149.881 134.416 149.881C133.847 149.881 133.587 149.618 133.587 149.04V145.261H134.887V144.419H133.587V143H132.511Z" fill="white"/>
<path d="M135.97 146.178C135.97 147.019 136.539 147.574 137.708 147.86L138.878 148.146C139.639 148.333 139.917 148.567 139.917 149.011C139.917 149.577 139.348 149.933 138.438 149.933C137.529 149.933 136.978 149.589 136.867 148.946H135.784C135.889 150.039 136.929 150.775 138.364 150.775C139.905 150.775 141 150.015 141 148.94C141 148.023 140.517 147.579 139.168 147.258L138.154 147.019C137.386 146.838 137.028 146.551 137.028 146.125C137.028 145.576 137.578 145.208 138.401 145.208C139.218 145.208 139.762 145.576 139.831 146.166H140.864C140.821 145.132 139.793 144.367 138.438 144.367C136.99 144.367 135.97 145.114 135.97 146.178Z" fill="white"/>
<path d="M17.1144 105.612C18.2106 105.612 18.9586 106.384 18.9844 107.541H15.1607C15.238 106.39 16.0247 105.612 17.1144 105.612ZM18.9586 109.578C18.7587 110.217 18.0816 110.622 17.2111 110.622C15.9731 110.622 15.1607 109.781 15.1607 108.484V108.421H20.1515V107.991C20.1515 105.928 18.9908 104.644 17.1338 104.644C15.238 104.644 14 106.03 14 108.142C14 110.255 15.2316 111.59 17.1854 111.59C18.6684 111.59 19.8742 110.749 20.0677 109.578H18.9586Z" fill="#88FF64"/>
<path d="M23.6012 110.635C22.7243 110.635 22.1633 110.224 22.1633 109.591C22.1633 108.933 22.7049 108.56 23.7495 108.497L25.5679 108.383V108.933C25.5679 109.914 24.7361 110.635 23.6012 110.635ZM23.3626 111.59C24.3363 111.59 25.2068 111.103 25.6001 110.344H25.6259V111.527H26.6898V106.846C26.6898 105.504 25.6323 104.644 23.9881 104.644C22.5308 104.644 21.3895 105.523 21.3573 106.675H22.4341C22.5695 106.03 23.1692 105.625 23.9752 105.625C25.0004 105.625 25.5679 106.093 25.5679 106.94V107.51L23.6205 107.624C21.9311 107.725 21.0155 108.414 21.0155 109.585C21.0155 110.793 21.9505 111.59 23.3626 111.59Z" fill="#88FF64"/>
<path d="M28.0633 106.611C28.0633 107.522 28.6565 108.123 29.8752 108.433L31.0939 108.743C31.887 108.946 32.1772 109.199 32.1772 109.679C32.1772 110.293 31.5839 110.679 30.6361 110.679C29.6882 110.679 29.1143 110.306 28.9983 109.61H27.8698C27.9795 110.793 29.0627 111.59 30.5587 111.59C32.1643 111.59 33.3056 110.768 33.3056 109.604C33.3056 108.61 32.8026 108.13 31.3969 107.782L30.3395 107.522C29.5399 107.326 29.1659 107.016 29.1659 106.555C29.1659 105.96 29.7398 105.561 30.5974 105.561C31.4485 105.561 32.016 105.96 32.0869 106.599H33.1637C33.1186 105.479 32.0482 104.651 30.6361 104.651C29.1272 104.651 28.0633 105.46 28.0633 106.611Z" fill="#88FF64"/>
<path d="M35.1175 114C36.3491 114 36.9036 113.526 37.4968 111.944L40.2179 104.707H39.0379L37.0906 110.407H37.0648L35.1175 104.707H33.9246L36.4974 111.533L36.362 111.938C36.0783 112.76 35.7301 113.064 35.0852 113.064C34.9369 113.064 34.7564 113.051 34.6274 113.026V113.956C34.7628 113.981 34.9756 114 35.1175 114Z" fill="#88FF64"/>
<path d="M44.6671 103.17V104.707H43.6999V105.618H44.6671V109.755C44.6671 111.065 45.1572 111.577 46.4145 111.577C46.6789 111.577 47.0013 111.552 47.1367 111.52V110.59C47.0593 110.603 46.7885 110.622 46.6531 110.622C46.0599 110.622 45.7891 110.337 45.7891 109.711V105.618H47.1432V104.707H45.7891V103.17H44.6671Z" fill="#88FF64"/>
<path d="M50.5929 110.635C49.716 110.635 49.155 110.224 49.155 109.591C49.155 108.933 49.6966 108.56 50.7412 108.497L52.5596 108.383V108.933C52.5596 109.914 51.7278 110.635 50.5929 110.635ZM50.3543 111.59C51.328 111.59 52.1985 111.103 52.5918 110.344H52.6176V111.527H53.6815V106.846C53.6815 105.504 52.624 104.644 50.9798 104.644C49.5225 104.644 48.3812 105.523 48.349 106.675H49.4258C49.5612 106.03 50.1609 105.625 50.9669 105.625C51.9921 105.625 52.5596 106.093 52.5596 106.94V107.51L50.6122 107.624C48.9228 107.725 48.0072 108.414 48.0072 109.585C48.0072 110.793 48.9422 111.59 50.3543 111.59Z" fill="#88FF64"/>
<path d="M55.055 106.611C55.055 107.522 55.6482 108.123 56.8669 108.433L58.0856 108.743C58.8787 108.946 59.1689 109.199 59.1689 109.679C59.1689 110.293 58.5756 110.679 57.6278 110.679C56.6799 110.679 56.106 110.306 55.9899 109.61H54.8615C54.9711 110.793 56.0544 111.59 57.5504 111.59C59.156 111.59 60.2973 110.768 60.2973 109.604C60.2973 108.61 59.7943 108.13 58.3886 107.782L57.3311 107.522C56.5316 107.326 56.1576 107.016 56.1576 106.555C56.1576 105.96 56.7315 105.561 57.5891 105.561C58.4402 105.561 59.0076 105.96 59.0786 106.599H60.1554C60.1103 105.479 59.0399 104.651 57.6278 104.651C56.1189 104.651 55.055 105.46 55.055 106.611Z" fill="#88FF64"/>
<path d="M62.7024 107.756V102H61.5804V111.527H62.7024V108.939L63.3601 108.332L65.9716 111.527H67.2741L64.1468 107.655L67.1838 104.707H65.8168L62.7024 107.756Z" fill="#88FF64"/>
<path d="M67.7577 106.611C67.7577 107.522 68.3509 108.123 69.5696 108.433L70.7883 108.743C71.5814 108.946 71.8716 109.199 71.8716 109.679C71.8716 110.293 71.2784 110.679 70.3305 110.679C69.3826 110.679 68.8087 110.306 68.6927 109.61H67.5643C67.6739 110.793 68.7572 111.59 70.2531 111.59C71.8587 111.59 73 110.768 73 109.604C73 108.61 72.4971 108.13 71.0914 107.782L70.0339 107.522C69.2343 107.326 68.8603 107.016 68.8603 106.555C68.8603 105.96 69.4342 105.561 70.2918 105.561C71.143 105.561 71.7104 105.96 71.7813 106.599H72.8581C72.813 105.479 71.7426 104.651 70.3305 104.651C68.8216 104.651 67.7577 105.46 67.7577 106.611Z" fill="#88FF64"/>
<path d="M31 89.8584H36.0781V89.0018H32.2695V88.9839L36.0591 84.213V83.4456H31.0063V84.3022H34.8149V84.32L31 89.1089V89.8584Z" fill="white"/>
<path d="M43.8286 83.3861C42.8828 83.3861 42.0132 83.8203 41.6133 84.4866H41.5879V83.4456H40.5405V92H41.645V88.8174H41.6704C42.1021 89.5193 42.8828 89.9179 43.854 89.9179C45.5806 89.9179 46.7612 88.6092 46.7612 86.652C46.7612 84.6948 45.5742 83.3861 43.8286 83.3861ZM43.6255 88.9958C42.4448 88.9958 41.6387 88.05 41.6387 86.652C41.6387 85.26 42.4448 84.3081 43.6255 84.3081C44.8315 84.3081 45.6313 85.2362 45.6313 86.652C45.6313 88.0738 44.8315 88.9958 43.6255 88.9958Z" fill="white"/>
<path d="M48.291 82V83.4456H47.3389V84.3022H48.291V88.1927C48.291 89.4242 48.7734 89.906 50.0112 89.906C50.2715 89.906 50.5889 89.8822 50.7222 89.8525V88.978C50.646 88.9899 50.3794 89.0077 50.2461 89.0077C49.6621 89.0077 49.3955 88.74 49.3955 88.1511V84.3022H50.7285V83.4456H49.3955V82H48.291Z" fill="white"/>
<path d="M51.8394 85.2362C51.8394 86.0928 52.4233 86.6579 53.623 86.9494L54.8228 87.2409C55.6035 87.4313 55.8892 87.6692 55.8892 88.1214C55.8892 88.6984 55.3052 89.0613 54.3721 89.0613C53.439 89.0613 52.874 88.7103 52.7598 88.0559H51.6489C51.7568 89.1684 52.8232 89.9179 54.2959 89.9179C55.8765 89.9179 57 89.1446 57 88.05C57 87.116 56.5049 86.6639 55.1211 86.3367L54.0801 86.0928C53.293 85.9084 52.9248 85.6169 52.9248 85.1826C52.9248 84.6234 53.4897 84.2487 54.334 84.2487C55.1719 84.2487 55.7305 84.6234 55.8003 85.2243H56.8604C56.8159 84.1713 55.7622 83.392 54.3721 83.392C52.8867 83.392 51.8394 84.1535 51.8394 85.2362Z" fill="white"/>
<path d="M183.498 55.4225C183.455 54.5952 182.75 53.9592 181.923 54.002C181.095 54.0448 180.459 54.7502 180.502 55.5775L183.498 55.4225ZM99.8372 100.654C99.0941 101.02 98.7883 101.92 99.1544 102.663L105.119 114.773C105.485 115.517 106.385 115.822 107.128 115.456C107.871 115.09 108.177 114.191 107.811 113.448L102.508 102.683L113.273 97.3807C114.017 97.0146 114.322 96.1154 113.956 95.3723C113.59 94.6291 112.691 94.3234 111.948 94.6894L99.8372 100.654ZM182 55.5C180.502 55.5775 180.502 55.5768 180.502 55.5763C180.502 55.5763 180.502 55.5759 180.502 55.5758C180.502 55.5757 180.502 55.576 180.502 55.5768C180.502 55.5783 180.502 55.5815 180.502 55.5865C180.503 55.5964 180.504 55.6131 180.504 55.6366C180.506 55.6835 180.508 55.7571 180.51 55.856C180.514 56.054 180.516 56.3532 180.508 56.7428C180.493 57.5223 180.441 58.662 180.29 60.0749C179.987 62.9032 179.291 66.8105 177.716 71.1092C174.577 79.6819 167.948 89.8277 153.886 96.1312L155.114 98.8688C170.052 92.1723 177.173 81.3181 180.534 72.1408C182.209 67.5645 182.95 63.4093 183.273 60.3939C183.434 58.8849 183.491 57.6573 183.508 56.8001C183.516 56.3714 183.514 56.0349 183.51 55.8017C183.507 55.6851 183.505 55.5943 183.502 55.5306C183.501 55.4988 183.5 55.4738 183.5 55.4557C183.499 55.4466 183.499 55.4393 183.499 55.4338C183.498 55.431 183.498 55.4287 183.498 55.4268C183.498 55.4259 183.498 55.4248 183.498 55.4243C183.498 55.4234 183.498 55.4225 182 55.5ZM153.886 96.1312C139.649 102.513 126.396 103.618 116.701 103.127C111.854 102.881 107.902 102.237 105.171 101.658C103.806 101.368 102.747 101.094 102.035 100.895C101.679 100.796 101.41 100.715 101.233 100.66C101.144 100.632 101.079 100.611 101.037 100.598C101.016 100.591 101.001 100.586 100.992 100.583C100.987 100.581 100.984 100.58 100.983 100.58C100.982 100.58 100.982 100.579 100.982 100.579C100.982 100.579 100.982 100.58 100.982 100.58C100.982 100.58 100.983 100.58 100.5 102C100.017 103.42 100.018 103.42 100.019 103.421C100.019 103.421 100.02 103.421 100.021 103.421C100.022 103.422 100.024 103.422 100.026 103.423C100.031 103.425 100.037 103.427 100.045 103.429C100.06 103.434 100.081 103.441 100.108 103.45C100.163 103.468 100.241 103.493 100.343 103.525C100.546 103.588 100.843 103.677 101.227 103.784C101.995 103.999 103.116 104.288 104.548 104.592C107.411 105.2 111.521 105.869 116.549 106.123C126.604 106.632 140.351 105.487 155.114 98.8688L153.886 96.1312Z" fill="black"/>
<path d="M7.26566 128.648C7.73636 127.966 8.67057 127.795 9.35229 128.266C10.034 128.736 10.2051 129.671 9.73434 130.352L7.26566 128.648ZM57.8073 177.736C58.5055 178.182 58.7101 179.109 58.2642 179.807L50.9987 191.185C50.5528 191.884 49.6254 192.088 48.9272 191.642C48.2289 191.197 48.0244 190.269 48.4702 189.571L54.9285 179.457L44.8146 172.999C44.1164 172.553 43.9118 171.625 44.3576 170.927C44.8035 170.229 45.7309 170.024 46.4292 170.47L57.8073 177.736ZM8.5 129.5C9.73434 130.352 9.73465 130.352 9.7349 130.351C9.73491 130.351 9.73511 130.351 9.73513 130.351C9.73518 130.351 9.735 130.351 9.73462 130.352C9.73384 130.353 9.7322 130.355 9.72972 130.359C9.72477 130.366 9.71646 130.379 9.70496 130.396C9.68195 130.43 9.64619 130.484 9.59898 130.557C9.50456 130.702 9.36444 130.923 9.18915 131.213C8.83839 131.794 8.34773 132.651 7.80071 133.737C6.70477 135.914 5.39307 138.992 4.52053 142.602C2.77785 149.813 2.8019 159.035 9.66813 167.559L7.33187 169.441C-0.301899 159.965 -0.277855 149.687 1.60447 141.898C2.54443 138.008 3.95148 134.711 5.12116 132.388C5.70696 131.224 6.23583 130.3 6.6214 129.662C6.81427 129.343 6.97152 129.095 7.08241 128.924C7.13787 128.838 7.18176 128.772 7.21273 128.726C7.22823 128.703 7.24049 128.685 7.24937 128.672C7.25381 128.665 7.2574 128.66 7.26012 128.656C7.26148 128.654 7.26262 128.652 7.26355 128.651C7.26401 128.65 7.26453 128.649 7.26477 128.649C7.26524 128.648 7.26566 128.648 8.5 129.5ZM9.66813 167.559C16.494 176.032 28.0441 178.63 38.242 179.001C43.2974 179.185 47.9177 178.817 51.277 178.402C52.9548 178.195 54.3134 177.976 55.2488 177.81C55.7164 177.727 56.0779 177.658 56.3203 177.609C56.4415 177.585 56.5329 177.566 56.5929 177.553C56.6229 177.547 56.645 177.542 56.6591 177.539C56.6661 177.538 56.6711 177.536 56.6741 177.536C56.6756 177.535 56.6766 177.535 56.677 177.535C56.6773 177.535 56.6772 177.535 56.6773 177.535C56.6772 177.535 56.6769 177.535 57 179C57.3231 180.465 57.3226 180.465 57.3219 180.465C57.3215 180.465 57.3207 180.465 57.3199 180.466C57.3182 180.466 57.3161 180.466 57.3135 180.467C57.3082 180.468 57.3009 180.47 57.2915 180.472C57.2728 180.476 57.2459 180.481 57.2111 180.489C57.1416 180.503 57.0403 180.524 56.9089 180.551C56.6462 180.603 56.2631 180.677 55.7727 180.764C54.7921 180.938 53.3811 181.165 51.6449 181.379C48.1761 181.808 43.3901 182.19 38.133 181.999C27.7059 181.62 15.006 178.968 7.33187 169.441L9.66813 167.559Z" fill="black"/>
<path d="M189.728 185.786C189.018 185.36 188.787 184.439 189.214 183.728C189.64 183.018 190.561 182.788 191.272 183.214L189.728 185.786ZM267.855 148.03C268.391 147.398 269.338 147.32 269.97 147.856L280.264 156.59C280.896 157.126 280.973 158.072 280.437 158.704C279.901 159.336 278.955 159.414 278.323 158.878L269.173 151.114L261.409 160.265C260.873 160.896 259.927 160.974 259.295 160.438C258.663 159.902 258.586 158.956 259.122 158.324L267.855 148.03ZM190.5 184.5C191.272 183.214 191.271 183.214 191.271 183.213C191.271 183.213 191.271 183.213 191.271 183.213C191.271 183.213 191.271 183.214 191.272 183.214C191.274 183.215 191.277 183.217 191.282 183.22C191.291 183.225 191.307 183.234 191.328 183.247C191.371 183.272 191.437 183.31 191.526 183.36C191.704 183.461 191.974 183.611 192.33 183.799C193.043 184.176 194.1 184.709 195.459 185.319C198.178 186.541 202.096 188.072 206.873 189.297C216.434 191.748 229.362 192.957 242.996 188.087L244.005 190.913C229.64 196.043 216.068 194.752 206.128 192.203C201.154 190.928 197.073 189.334 194.229 188.056C192.806 187.416 191.691 186.855 190.927 186.451C190.545 186.249 190.251 186.086 190.049 185.972C189.948 185.915 189.871 185.87 189.817 185.839C189.79 185.823 189.769 185.811 189.754 185.802C189.747 185.797 189.741 185.794 189.737 185.791C189.735 185.79 189.733 185.789 189.731 185.788C189.731 185.788 189.73 185.787 189.729 185.787C189.729 185.787 189.728 185.786 190.5 184.5ZM242.996 188.087C256.448 183.283 262.551 173.595 265.323 165.038C266.713 160.746 267.259 156.748 267.456 153.821C267.554 152.36 267.565 151.171 267.552 150.354C267.546 149.946 267.533 149.631 267.522 149.421C267.517 149.316 267.512 149.238 267.509 149.188C267.507 149.163 267.506 149.145 267.505 149.134C267.505 149.128 267.504 149.124 267.504 149.123C267.504 149.122 267.504 149.121 267.504 149.121C267.504 149.121 267.504 149.122 267.504 149.122C267.504 149.122 267.504 149.123 268.999 149C270.494 148.877 270.494 148.878 270.494 148.879C270.494 148.88 270.494 148.881 270.494 148.882C270.495 148.883 270.495 148.886 270.495 148.888C270.495 148.894 270.496 148.901 270.497 148.911C270.498 148.929 270.5 148.955 270.502 148.988C270.507 149.053 270.512 149.148 270.518 149.269C270.531 149.511 270.545 149.861 270.552 150.306C270.566 151.196 270.554 152.468 270.449 154.023C270.24 157.127 269.661 161.379 268.177 165.962C265.199 175.155 258.553 185.717 244.005 190.913L242.996 188.087Z" fill="black"/>
</svg>
