<svg width="691" height="253" viewBox="0 0 691 253" fill="none" xmlns="http://www.w3.org/2000/svg">
<path d="M237.512 250.246C235.402 247.605 234.348 244.184 234.348 239.98C234.348 237.574 234.707 235.488 235.426 233.723C235.887 232.59 236.621 231.383 237.629 230.102H239.34C238.637 230.922 238.027 232.039 237.512 233.453C236.785 235.422 236.422 237.59 236.422 239.957C236.422 243.496 237.383 246.926 239.305 250.246H237.512ZM242.34 243.027C242.363 243.746 242.621 244.328 243.113 244.773C243.613 245.227 244.246 245.453 245.012 245.453C245.941 245.453 246.652 245.18 247.145 244.633C247.637 244.094 247.883 243.309 247.883 242.277V230.09H249.992V242.289C249.992 243.891 249.555 245.145 248.68 246.051C247.805 246.949 246.586 247.398 245.023 247.398C243.617 247.398 242.469 246.992 241.578 246.18C240.688 245.359 240.242 244.309 240.242 243.027H242.34ZM263.551 247H261.629V244.914H261.582C260.785 246.383 259.406 247.117 257.445 247.117C256.062 247.117 254.969 246.699 254.164 245.863C253.359 245.035 252.957 243.902 252.957 242.465V234.367H254.996V242.113C254.996 243.145 255.262 243.934 255.793 244.48C256.316 245.027 257.074 245.301 258.066 245.301C259.105 245.301 259.938 244.973 260.562 244.316C261.195 243.66 261.512 242.789 261.512 241.703V234.367H263.551V247ZM266.445 229.352H268.484V247H266.445V229.352ZM271.484 234.367H273.523V247H271.484V234.367ZM272.504 232.328C272.152 232.328 271.852 232.199 271.602 231.941C271.344 231.691 271.215 231.391 271.215 231.039C271.215 230.68 271.344 230.375 271.602 230.125C271.852 229.875 272.152 229.75 272.504 229.75C272.863 229.75 273.168 229.875 273.418 230.125C273.668 230.375 273.793 230.68 273.793 231.039C273.793 231.391 273.668 231.691 273.418 231.941C273.168 232.199 272.863 232.328 272.504 232.328ZM286.941 247H285.02V244.914H284.973C284.176 246.383 282.797 247.117 280.836 247.117C279.453 247.117 278.359 246.699 277.555 245.863C276.75 245.035 276.348 243.902 276.348 242.465V234.367H278.387V242.113C278.387 243.145 278.652 243.934 279.184 244.48C279.707 245.027 280.465 245.301 281.457 245.301C282.496 245.301 283.328 244.973 283.953 244.316C284.586 243.66 284.902 242.789 284.902 241.703V234.367H286.941V247ZM289.508 237.895C289.508 236.832 289.945 235.961 290.82 235.281C291.688 234.602 292.809 234.262 294.184 234.262C295.465 234.262 296.543 234.605 297.418 235.293C298.285 235.973 298.738 236.832 298.777 237.871H296.82C296.758 237.277 296.484 236.809 296 236.465C295.516 236.121 294.887 235.949 294.113 235.949C293.332 235.949 292.703 236.117 292.227 236.453C291.75 236.789 291.512 237.234 291.512 237.789C291.512 238.625 292.223 239.223 293.645 239.582L295.566 240.062C296.84 240.383 297.738 240.797 298.262 241.305C298.777 241.805 299.035 242.516 299.035 243.438C299.035 244.516 298.566 245.398 297.629 246.086C296.699 246.773 295.504 247.117 294.043 247.117C292.684 247.117 291.555 246.781 290.656 246.109C289.758 245.43 289.258 244.543 289.156 243.449H291.207C291.426 244.77 292.418 245.43 294.184 245.43C295.043 245.43 295.727 245.262 296.234 244.926C296.734 244.598 296.984 244.148 296.984 243.578C296.984 243.133 296.836 242.777 296.539 242.512C296.242 242.254 295.734 242.031 295.016 241.844L292.801 241.27C290.605 240.699 289.508 239.574 289.508 237.895ZM314.211 247.281C311.875 247.281 310.023 246.492 308.656 244.914C307.281 243.344 306.594 241.219 306.594 238.539C306.594 235.883 307.285 233.766 308.668 232.188C310.051 230.602 311.898 229.809 314.211 229.809C316.055 229.809 317.617 230.32 318.898 231.344C320.188 232.375 320.965 233.734 321.23 235.422H319.098C318.824 234.312 318.246 233.426 317.363 232.762C316.465 232.09 315.414 231.754 314.211 231.754C312.562 231.754 311.242 232.371 310.25 233.605C309.258 234.84 308.762 236.484 308.762 238.539C308.762 240.617 309.254 242.27 310.238 243.496C311.223 244.723 312.551 245.336 314.223 245.336C315.465 245.336 316.512 245.051 317.363 244.48C318.215 243.91 318.793 243.109 319.098 242.078H321.23C320.84 243.75 320.039 245.035 318.828 245.934C317.617 246.832 316.078 247.281 314.211 247.281ZM327.594 245.348C328.625 245.348 329.48 245.051 330.16 244.457C330.832 243.855 331.168 243.102 331.168 242.195V241.176L327.863 241.387C325.941 241.504 324.98 242.18 324.98 243.414C324.98 244 325.219 244.469 325.695 244.82C326.164 245.172 326.797 245.348 327.594 245.348ZM327.16 247.117C325.879 247.117 324.848 246.777 324.066 246.098C323.285 245.418 322.895 244.52 322.895 243.402C322.895 242.316 323.301 241.465 324.113 240.848C324.926 240.223 326.098 239.863 327.629 239.77L331.168 239.559V238.504C331.168 237.723 330.918 237.121 330.418 236.699C329.918 236.277 329.203 236.066 328.273 236.066C327.539 236.066 326.922 236.242 326.422 236.594C325.914 236.945 325.598 237.418 325.473 238.012H323.516C323.547 236.949 324.02 236.055 324.934 235.328C325.848 234.609 326.969 234.25 328.297 234.25C329.789 234.25 330.98 234.617 331.871 235.352C332.762 236.094 333.207 237.086 333.207 238.328V247H331.273V244.809H331.227C330.867 245.512 330.32 246.07 329.586 246.484C328.852 246.906 328.043 247.117 327.16 247.117ZM340.953 236.043C339.961 236.043 339.141 236.371 338.492 237.027C337.836 237.684 337.473 238.547 337.402 239.617H344.352C344.328 238.547 344.004 237.684 343.379 237.027C342.762 236.371 341.953 236.043 340.953 236.043ZM346.32 243.391C346.148 244.477 345.57 245.367 344.586 246.062C343.602 246.766 342.434 247.117 341.082 247.117C339.309 247.117 337.898 246.543 336.852 245.395C335.812 244.246 335.293 242.691 335.293 240.73C335.293 238.77 335.812 237.199 336.852 236.02C337.891 234.84 339.27 234.25 340.988 234.25C342.676 234.25 344.012 234.805 344.996 235.914C345.98 237.031 346.473 238.543 346.473 240.449V241.246H337.402V241.363C337.402 242.566 337.742 243.527 338.422 244.246C339.102 244.965 340.004 245.324 341.129 245.324C341.918 245.324 342.602 245.148 343.18 244.797C343.75 244.453 344.125 243.984 344.305 243.391H346.32ZM348.406 237.895C348.406 236.832 348.844 235.961 349.719 235.281C350.586 234.602 351.707 234.262 353.082 234.262C354.363 234.262 355.441 234.605 356.316 235.293C357.184 235.973 357.637 236.832 357.676 237.871H355.719C355.656 237.277 355.383 236.809 354.898 236.465C354.414 236.121 353.785 235.949 353.012 235.949C352.23 235.949 351.602 236.117 351.125 236.453C350.648 236.789 350.41 237.234 350.41 237.789C350.41 238.625 351.121 239.223 352.543 239.582L354.465 240.062C355.738 240.383 356.637 240.797 357.16 241.305C357.676 241.805 357.934 242.516 357.934 243.438C357.934 244.516 357.465 245.398 356.527 246.086C355.598 246.773 354.402 247.117 352.941 247.117C351.582 247.117 350.453 246.781 349.555 246.109C348.656 245.43 348.156 244.543 348.055 243.449H350.105C350.324 244.77 351.316 245.43 353.082 245.43C353.941 245.43 354.625 245.262 355.133 244.926C355.633 244.598 355.883 244.148 355.883 243.578C355.883 243.133 355.734 242.777 355.438 242.512C355.141 242.254 354.633 242.031 353.914 241.844L351.699 241.27C349.504 240.699 348.406 239.574 348.406 237.895ZM364.273 245.348C365.305 245.348 366.16 245.051 366.84 244.457C367.512 243.855 367.848 243.102 367.848 242.195V241.176L364.543 241.387C362.621 241.504 361.66 242.18 361.66 243.414C361.66 244 361.898 244.469 362.375 244.82C362.844 245.172 363.477 245.348 364.273 245.348ZM363.84 247.117C362.559 247.117 361.527 246.777 360.746 246.098C359.965 245.418 359.574 244.52 359.574 243.402C359.574 242.316 359.98 241.465 360.793 240.848C361.605 240.223 362.777 239.863 364.309 239.77L367.848 239.559V238.504C367.848 237.723 367.598 237.121 367.098 236.699C366.598 236.277 365.883 236.066 364.953 236.066C364.219 236.066 363.602 236.242 363.102 236.594C362.594 236.945 362.277 237.418 362.152 238.012H360.195C360.227 236.949 360.699 236.055 361.613 235.328C362.527 234.609 363.648 234.25 364.977 234.25C366.469 234.25 367.66 234.617 368.551 235.352C369.441 236.094 369.887 237.086 369.887 238.328V247H367.953V244.809H367.906C367.547 245.512 367 246.07 366.266 246.484C365.531 246.906 364.723 247.117 363.84 247.117ZM372.594 234.367H374.516V236.418H374.562C374.75 235.754 375.121 235.227 375.676 234.836C376.23 234.445 376.879 234.25 377.621 234.25C377.941 234.25 378.203 234.277 378.406 234.332V236.348C378.188 236.254 377.836 236.207 377.352 236.207C376.531 236.207 375.875 236.48 375.383 237.027C374.883 237.574 374.633 238.293 374.633 239.184V247H372.594V234.367ZM378.816 250.012L379.988 244.633H382.156L380.398 250.012H378.816ZM395.387 232.328H395.34L390.863 235.551V233.324L395.363 230.09H397.426V247H395.387V232.328ZM401.609 234.965C401.609 233.488 402.141 232.258 403.203 231.273C404.266 230.297 405.594 229.809 407.188 229.809C408.695 229.809 409.973 230.258 411.02 231.156C412.066 232.055 412.59 233.152 412.59 234.449C412.59 235.387 412.328 236.293 411.805 237.168C411.297 238.027 410.332 239.191 408.91 240.66L404.633 245.078V245.125H412.871V247H401.715V245.547L407.668 239.277C408.801 238.082 409.555 237.176 409.93 236.559C410.297 235.941 410.48 235.281 410.48 234.578C410.48 233.766 410.156 233.074 409.508 232.504C408.852 231.934 408.059 231.648 407.129 231.648C406.137 231.648 405.309 231.965 404.645 232.598C403.98 233.23 403.648 234.02 403.648 234.965V234.977H401.609V234.965ZM430.613 242.16H423.887L422.188 247H419.973L426.207 230.09H428.293L434.527 247H432.312L430.613 242.16ZM424.508 240.367H429.992L427.285 232.656H427.215L424.508 240.367ZM442.262 230.09C444.77 230.09 446.727 230.832 448.133 232.316C449.539 233.809 450.242 235.883 450.242 238.539C450.242 241.203 449.539 243.281 448.133 244.773C446.734 246.258 444.777 247 442.262 247H436.461V230.09H442.262ZM438.57 245.102H442.121C444.035 245.102 445.508 244.535 446.539 243.402C447.57 242.277 448.086 240.664 448.086 238.562C448.086 236.445 447.574 234.82 446.551 233.688C445.52 232.555 444.043 231.988 442.121 231.988H438.57V245.102ZM451.66 250.246C452.512 248.777 453.129 247.5 453.512 246.414C454.199 244.445 454.543 242.293 454.543 239.957C454.543 237.59 454.184 235.422 453.465 233.453C452.949 232.023 452.34 230.906 451.637 230.102H453.348C454.355 231.383 455.09 232.59 455.551 233.723C456.27 235.488 456.629 237.574 456.629 239.98C456.629 244.176 455.57 247.598 453.453 250.246H451.66Z" fill="white"/>
<path d="M171.916 10.394L168.334 4.04H170.206L172.24 7.802C172.408 8.09 172.54 8.354 172.636 8.594C172.708 8.714 172.768 8.834 172.816 8.954H172.87C172.918 8.846 172.978 8.726 173.05 8.594L173.446 7.802L175.516 4.04H177.298L173.716 10.286L177.496 17H175.642L173.392 12.878L172.996 12.086C172.924 11.954 172.864 11.828 172.816 11.708H172.762C172.714 11.828 172.66 11.954 172.6 12.086C172.54 12.194 172.474 12.32 172.402 12.464C172.342 12.596 172.276 12.728 172.204 12.86L169.936 17H168.136L171.916 10.394ZM182.709 10.394L179.127 4.04H180.999L183.033 7.802C183.201 8.09 183.333 8.354 183.429 8.594C183.501 8.714 183.561 8.834 183.609 8.954H183.663C183.711 8.846 183.771 8.726 183.843 8.594L184.239 7.802L186.309 4.04H188.091L184.509 10.286L188.289 17H186.435L184.185 12.878L183.789 12.086C183.717 11.954 183.657 11.828 183.609 11.708H183.555C183.507 11.828 183.453 11.954 183.393 12.086C183.333 12.194 183.267 12.32 183.195 12.464C183.135 12.596 183.069 12.728 182.997 12.86L180.729 17H178.929L182.709 10.394ZM193.574 15.578V5.462H190.712V4.04H198.092V5.462H195.23V15.578H198.092V17H190.712V15.578H193.574ZM204.295 10.394L200.713 4.04H202.585L204.619 7.802C204.787 8.09 204.919 8.354 205.015 8.594C205.087 8.714 205.147 8.834 205.195 8.954H205.249C205.297 8.846 205.357 8.726 205.429 8.594L205.825 7.802L207.895 4.04H209.677L206.095 10.286L209.875 17H208.021L205.771 12.878L205.375 12.086C205.303 11.954 205.243 11.828 205.195 11.708H205.141C205.093 11.828 205.039 11.954 204.979 12.086C204.919 12.194 204.853 12.32 204.781 12.464C204.721 12.596 204.655 12.728 204.583 12.86L202.315 17H200.515L204.295 10.394ZM223.181 10.34H230.381V11.78H223.181V10.34ZM247.467 10.394L243.885 4.04H245.757L247.791 7.802C247.959 8.09 248.091 8.354 248.187 8.594C248.259 8.714 248.319 8.834 248.367 8.954H248.421C248.469 8.846 248.529 8.726 248.601 8.594L248.997 7.802L251.067 4.04H252.849L249.267 10.286L253.047 17H251.193L248.943 12.878L248.547 12.086C248.475 11.954 248.415 11.828 248.367 11.708H248.313C248.265 11.828 248.211 11.954 248.151 12.086C248.091 12.194 248.025 12.32 247.953 12.464C247.893 12.596 247.827 12.728 247.755 12.86L245.487 17H243.687L247.467 10.394ZM258.26 10.394L254.678 4.04H256.55L258.584 7.802C258.752 8.09 258.884 8.354 258.98 8.594C259.052 8.714 259.112 8.834 259.16 8.954H259.214C259.262 8.846 259.322 8.726 259.394 8.594L259.79 7.802L261.86 4.04H263.642L260.06 10.286L263.84 17H261.986L259.736 12.878L259.34 12.086C259.268 11.954 259.208 11.828 259.16 11.708H259.106C259.058 11.828 259.004 11.954 258.944 12.086C258.884 12.194 258.818 12.32 258.746 12.464C258.686 12.596 258.62 12.728 258.548 12.86L256.28 17H254.48L258.26 10.394ZM269.053 10.394L265.471 4.04H267.343L269.377 7.802C269.545 8.09 269.677 8.354 269.773 8.594C269.845 8.714 269.905 8.834 269.953 8.954H270.007C270.055 8.846 270.115 8.726 270.187 8.594L270.583 7.802L272.653 4.04H274.435L270.853 10.286L274.633 17H272.779L270.529 12.878L270.133 12.086C270.061 11.954 270.001 11.828 269.953 11.708H269.899C269.851 11.828 269.797 11.954 269.737 12.086C269.677 12.194 269.611 12.32 269.539 12.464C269.479 12.596 269.413 12.728 269.341 12.86L267.073 17H265.273L269.053 10.394ZM279.918 15.578V5.462H277.056V4.04H284.436V5.462H281.574V15.578H284.436V17H277.056V15.578H279.918ZM290.711 15.578V5.462H287.849V4.04H295.229V5.462H292.367V15.578H295.229V17H287.849V15.578H290.711ZM301.504 15.578V5.462H298.642V4.04H306.022V5.462H303.16V15.578H306.022V17H298.642V15.578H301.504ZM320.318 10.34H327.518V11.78H320.318V10.34ZM344.604 10.394L341.022 4.04H342.894L344.928 7.802C345.096 8.09 345.228 8.354 345.324 8.594C345.396 8.714 345.456 8.834 345.504 8.954H345.558C345.606 8.846 345.666 8.726 345.738 8.594L346.134 7.802L348.204 4.04H349.986L346.404 10.286L350.184 17H348.33L346.08 12.878L345.684 12.086C345.612 11.954 345.552 11.828 345.504 11.708H345.45C345.402 11.828 345.348 11.954 345.288 12.086C345.228 12.194 345.162 12.32 345.09 12.464C345.03 12.596 344.964 12.728 344.892 12.86L342.624 17H340.824L344.604 10.394ZM355.396 10.394L351.814 4.04H353.686L355.72 7.802C355.888 8.09 356.02 8.354 356.116 8.594C356.188 8.714 356.248 8.834 356.296 8.954H356.35C356.398 8.846 356.458 8.726 356.53 8.594L356.926 7.802L358.996 4.04H360.778L357.196 10.286L360.976 17H359.122L356.872 12.878L356.476 12.086C356.404 11.954 356.344 11.828 356.296 11.708H356.242C356.194 11.828 356.14 11.954 356.08 12.086C356.02 12.194 355.954 12.32 355.882 12.464C355.822 12.596 355.756 12.728 355.684 12.86L353.416 17H351.616L355.396 10.394ZM366.189 10.394L362.607 4.04H364.479L366.513 7.802C366.681 8.09 366.813 8.354 366.909 8.594C366.981 8.714 367.041 8.834 367.089 8.954H367.143C367.191 8.846 367.251 8.726 367.323 8.594L367.719 7.802L369.789 4.04H371.571L367.989 10.286L371.769 17H369.915L367.665 12.878L367.269 12.086C367.197 11.954 367.137 11.828 367.089 11.708H367.035C366.987 11.828 366.933 11.954 366.873 12.086C366.813 12.194 366.747 12.32 366.675 12.464C366.615 12.596 366.549 12.728 366.477 12.86L364.209 17H362.409L366.189 10.394ZM377.054 15.578V5.462H374.192V4.04H381.572V5.462H378.71V15.578H381.572V17H374.192V15.578H377.054ZM395.868 10.34H403.068V11.78H395.868V10.34ZM420.154 10.394L416.572 4.04H418.444L420.478 7.802C420.646 8.09 420.778 8.354 420.874 8.594C420.946 8.714 421.006 8.834 421.054 8.954H421.108C421.156 8.846 421.216 8.726 421.288 8.594L421.684 7.802L423.754 4.04H425.536L421.954 10.286L425.734 17H423.88L421.63 12.878L421.234 12.086C421.162 11.954 421.102 11.828 421.054 11.708H421C420.952 11.828 420.898 11.954 420.838 12.086C420.778 12.194 420.712 12.32 420.64 12.464C420.58 12.596 420.514 12.728 420.442 12.86L418.174 17H416.374L420.154 10.394ZM430.947 10.394L427.365 4.04H429.237L431.271 7.802C431.439 8.09 431.571 8.354 431.667 8.594C431.739 8.714 431.799 8.834 431.847 8.954H431.901C431.949 8.846 432.009 8.726 432.081 8.594L432.477 7.802L434.547 4.04H436.329L432.747 10.286L436.527 17H434.673L432.423 12.878L432.027 12.086C431.955 11.954 431.895 11.828 431.847 11.708H431.793C431.745 11.828 431.691 11.954 431.631 12.086C431.571 12.194 431.505 12.32 431.433 12.464C431.373 12.596 431.307 12.728 431.235 12.86L428.967 17H427.167L430.947 10.394ZM441.74 10.394L438.158 4.04H440.03L442.064 7.802C442.232 8.09 442.364 8.354 442.46 8.594C442.532 8.714 442.592 8.834 442.64 8.954H442.694C442.742 8.846 442.802 8.726 442.874 8.594L443.27 7.802L445.34 4.04H447.122L443.54 10.286L447.32 17H445.466L443.216 12.878L442.82 12.086C442.748 11.954 442.688 11.828 442.64 11.708H442.586C442.538 11.828 442.484 11.954 442.424 12.086C442.364 12.194 442.298 12.32 442.226 12.464C442.166 12.596 442.1 12.728 442.028 12.86L439.76 17H437.96L441.74 10.394ZM452.605 15.578V5.462H449.743V4.04H457.123V5.462H454.261V15.578H457.123V17H449.743V15.578H452.605ZM463.398 15.578V5.462H460.536V4.04H467.916V5.462H465.054V15.578H467.916V17H460.536V15.578H463.398ZM482.212 10.34H489.412V11.78H482.212V10.34ZM506.57 15.578V5.462H503.708V4.04H511.088V5.462H508.226V15.578H511.088V17H503.708V15.578H506.57ZM517.291 10.394L513.709 4.04H515.581L517.615 7.802C517.783 8.09 517.915 8.354 518.011 8.594C518.083 8.714 518.143 8.834 518.191 8.954H518.245C518.293 8.846 518.353 8.726 518.425 8.594L518.821 7.802L520.891 4.04H522.673L519.091 10.286L522.871 17H521.017L518.767 12.878L518.371 12.086C518.299 11.954 518.239 11.828 518.191 11.708H518.137C518.089 11.828 518.035 11.954 517.975 12.086C517.915 12.194 517.849 12.32 517.777 12.464C517.717 12.596 517.651 12.728 517.579 12.86L515.311 17H513.511L517.291 10.394Z" fill="white"/>
<path d="M31.6074 38.394L28.0254 32.04H29.8974L31.9314 35.802C32.0994 36.09 32.2314 36.354 32.3274 36.594C32.3994 36.714 32.4594 36.834 32.5074 36.954H32.5614C32.6094 36.846 32.6694 36.726 32.7414 36.594L33.1374 35.802L35.2074 32.04H36.9894L33.4074 38.286L37.1874 45H35.3334L33.0834 40.878L32.6874 40.086C32.6154 39.954 32.5554 39.828 32.5074 39.708H32.4534C32.4054 39.828 32.3514 39.954 32.2914 40.086C32.2314 40.194 32.1654 40.32 32.0934 40.464C32.0334 40.596 31.9674 40.728 31.8954 40.86L29.6274 45H27.8274L31.6074 38.394ZM42.4004 38.394L38.8184 32.04H40.6904L42.7244 35.802C42.8924 36.09 43.0244 36.354 43.1204 36.594C43.1924 36.714 43.2524 36.834 43.3004 36.954H43.3544C43.4024 36.846 43.4624 36.726 43.5344 36.594L43.9304 35.802L46.0004 32.04H47.7824L44.2004 38.286L47.9804 45H46.1264L43.8764 40.878L43.4804 40.086C43.4084 39.954 43.3484 39.828 43.3004 39.708H43.2464C43.1984 39.828 43.1444 39.954 43.0844 40.086C43.0244 40.194 42.9584 40.32 42.8864 40.464C42.8264 40.596 42.7604 40.728 42.6884 40.86L40.4204 45H38.6204L42.4004 38.394ZM53.1934 38.394L49.6114 32.04H51.4834L53.5174 35.802C53.6854 36.09 53.8174 36.354 53.9134 36.594C53.9854 36.714 54.0454 36.834 54.0934 36.954H54.1474C54.1954 36.846 54.2554 36.726 54.3274 36.594L54.7234 35.802L56.7934 32.04H58.5754L54.9934 38.286L58.7734 45H56.9194L54.6694 40.878L54.2734 40.086C54.2014 39.954 54.1414 39.828 54.0934 39.708H54.0394C53.9914 39.828 53.9374 39.954 53.8774 40.086C53.8174 40.194 53.7514 40.32 53.6794 40.464C53.6194 40.596 53.5534 40.728 53.4814 40.86L51.2134 45H49.4134L53.1934 38.394ZM64.0583 43.578V33.462H61.1963V32.04H68.5763V33.462H65.7143V43.578H68.5763V45H61.1963V43.578H64.0583ZM74.8513 43.578V33.462H71.9893V32.04H79.3693V33.462H76.5073V43.578H79.3693V45H71.9893V43.578H74.8513ZM85.6443 43.578V33.462H82.7823V32.04H90.1623V33.462H87.3003V43.578H90.1623V45H82.7823V43.578H85.6443ZM104.458 38.34H111.658V39.78H104.458V38.34ZM128.744 38.394L125.162 32.04H127.034L129.068 35.802C129.236 36.09 129.368 36.354 129.464 36.594C129.536 36.714 129.596 36.834 129.644 36.954H129.698C129.746 36.846 129.806 36.726 129.878 36.594L130.274 35.802L132.344 32.04H134.126L130.544 38.286L134.324 45H132.47L130.22 40.878L129.824 40.086C129.752 39.954 129.692 39.828 129.644 39.708H129.59C129.542 39.828 129.488 39.954 129.428 40.086C129.368 40.194 129.302 40.32 129.23 40.464C129.17 40.596 129.104 40.728 129.032 40.86L126.764 45H124.964L128.744 38.394ZM139.537 38.394L135.955 32.04H137.827L139.861 35.802C140.029 36.09 140.161 36.354 140.257 36.594C140.329 36.714 140.389 36.834 140.437 36.954H140.491C140.539 36.846 140.599 36.726 140.671 36.594L141.067 35.802L143.137 32.04H144.919L141.337 38.286L145.117 45H143.263L141.013 40.878L140.617 40.086C140.545 39.954 140.485 39.828 140.437 39.708H140.383C140.335 39.828 140.281 39.954 140.221 40.086C140.161 40.194 140.095 40.32 140.023 40.464C139.963 40.596 139.897 40.728 139.825 40.86L137.557 45H135.757L139.537 38.394ZM146.622 32.04H148.35L150.834 42.174C150.894 42.426 150.948 42.66 150.996 42.876C151.044 43.08 151.08 43.26 151.104 43.416C151.128 43.608 151.152 43.776 151.176 43.92H151.248C151.272 43.776 151.302 43.608 151.338 43.416C151.362 43.26 151.398 43.08 151.446 42.876C151.494 42.66 151.548 42.426 151.608 42.174L154.146 32.04H155.838L152.31 45H150.042L146.622 32.04ZM161.195 43.578V33.462H158.333V32.04H165.713V33.462H162.851V43.578H165.713V45H158.333V43.578H161.195ZM180.009 38.34H187.209V39.78H180.009V38.34ZM204.295 38.394L200.713 32.04H202.585L204.619 35.802C204.787 36.09 204.919 36.354 205.015 36.594C205.087 36.714 205.147 36.834 205.195 36.954H205.249C205.297 36.846 205.357 36.726 205.429 36.594L205.825 35.802L207.895 32.04H209.677L206.095 38.286L209.875 45H208.021L205.771 40.878L205.375 40.086C205.303 39.954 205.243 39.828 205.195 39.708H205.141C205.093 39.828 205.039 39.954 204.979 40.086C204.919 40.194 204.853 40.32 204.781 40.464C204.721 40.596 204.655 40.728 204.583 40.86L202.315 45H200.515L204.295 38.394ZM215.088 38.394L211.506 32.04H213.378L215.412 35.802C215.58 36.09 215.712 36.354 215.808 36.594C215.88 36.714 215.94 36.834 215.988 36.954H216.042C216.09 36.846 216.15 36.726 216.222 36.594L216.618 35.802L218.688 32.04H220.47L216.888 38.286L220.668 45H218.814L216.564 40.878L216.168 40.086C216.096 39.954 216.036 39.828 215.988 39.708H215.934C215.886 39.828 215.832 39.954 215.772 40.086C215.712 40.194 215.646 40.32 215.574 40.464C215.514 40.596 215.448 40.728 215.376 40.86L213.108 45H211.308L215.088 38.394ZM222.173 32.04H223.901L226.385 42.174C226.445 42.426 226.499 42.66 226.547 42.876C226.595 43.08 226.631 43.26 226.655 43.416C226.679 43.608 226.703 43.776 226.727 43.92H226.799C226.823 43.776 226.853 43.608 226.889 43.416C226.913 43.26 226.949 43.08 226.997 42.876C227.045 42.66 227.099 42.426 227.159 42.174L229.697 32.04H231.389L227.861 45H225.593L222.173 32.04ZM236.746 43.578V33.462H233.884V32.04H241.264V33.462H238.402V43.578H241.264V45H233.884V43.578H236.746ZM247.539 43.578V33.462H244.677V32.04H252.057V33.462H249.195V43.578H252.057V45H244.677V43.578H247.539ZM258.332 43.578V33.462H255.47V32.04H262.85V33.462H259.988V43.578H262.85V45H255.47V43.578H258.332ZM277.146 38.34H284.346V39.78H277.146V38.34ZM301.432 38.394L297.85 32.04H299.722L301.756 35.802C301.924 36.09 302.056 36.354 302.152 36.594C302.224 36.714 302.284 36.834 302.332 36.954H302.386C302.434 36.846 302.494 36.726 302.566 36.594L302.962 35.802L305.032 32.04H306.814L303.232 38.286L307.012 45H305.158L302.908 40.878L302.512 40.086C302.44 39.954 302.38 39.828 302.332 39.708H302.278C302.23 39.828 302.176 39.954 302.116 40.086C302.056 40.194 301.99 40.32 301.918 40.464C301.858 40.596 301.792 40.728 301.72 40.86L299.452 45H297.652L301.432 38.394ZM312.225 38.394L308.643 32.04H310.515L312.549 35.802C312.717 36.09 312.849 36.354 312.945 36.594C313.017 36.714 313.077 36.834 313.125 36.954H313.179C313.227 36.846 313.287 36.726 313.359 36.594L313.755 35.802L315.825 32.04H317.607L314.025 38.286L317.805 45H315.951L313.701 40.878L313.305 40.086C313.233 39.954 313.173 39.828 313.125 39.708H313.071C313.023 39.828 312.969 39.954 312.909 40.086C312.849 40.194 312.783 40.32 312.711 40.464C312.651 40.596 312.585 40.728 312.513 40.86L310.245 45H308.445L312.225 38.394ZM319.31 32.04H321.038L323.522 42.174C323.582 42.426 323.636 42.66 323.684 42.876C323.732 43.08 323.768 43.26 323.792 43.416C323.816 43.608 323.84 43.776 323.864 43.92H323.936C323.96 43.776 323.99 43.608 324.026 43.416C324.05 43.26 324.086 43.08 324.134 42.876C324.182 42.66 324.236 42.426 324.296 42.174L326.834 32.04H328.526L324.998 45H322.73L319.31 32.04ZM341.904 38.34H349.104V39.78H341.904V38.34ZM366.189 38.394L362.607 32.04H364.479L366.513 35.802C366.681 36.09 366.813 36.354 366.909 36.594C366.981 36.714 367.041 36.834 367.089 36.954H367.143C367.191 36.846 367.251 36.726 367.323 36.594L367.719 35.802L369.789 32.04H371.571L367.989 38.286L371.769 45H369.915L367.665 40.878L367.269 40.086C367.197 39.954 367.137 39.828 367.089 39.708H367.035C366.987 39.828 366.933 39.954 366.873 40.086C366.813 40.194 366.747 40.32 366.675 40.464C366.615 40.596 366.549 40.728 366.477 40.86L364.209 45H362.409L366.189 38.394ZM376.982 38.394L373.4 32.04H375.272L377.306 35.802C377.474 36.09 377.606 36.354 377.702 36.594C377.774 36.714 377.834 36.834 377.882 36.954H377.936C377.984 36.846 378.044 36.726 378.116 36.594L378.512 35.802L380.582 32.04H382.364L378.782 38.286L382.562 45H380.708L378.458 40.878L378.062 40.086C377.99 39.954 377.93 39.828 377.882 39.708H377.828C377.78 39.828 377.726 39.954 377.666 40.086C377.606 40.194 377.54 40.32 377.468 40.464C377.408 40.596 377.342 40.728 377.27 40.86L375.002 45H373.202L376.982 38.394ZM387.847 43.578V33.462H384.985V32.04H392.365V33.462H389.503V43.578H392.365V45H384.985V43.578H387.847ZM394.86 32.04H396.588L399.072 42.174C399.132 42.426 399.186 42.66 399.234 42.876C399.282 43.08 399.318 43.26 399.342 43.416C399.366 43.608 399.39 43.776 399.414 43.92H399.486C399.51 43.776 399.54 43.608 399.576 43.416C399.6 43.26 399.636 43.08 399.684 42.876C399.732 42.66 399.786 42.426 399.846 42.174L402.384 32.04H404.076L400.548 45H398.28L394.86 32.04ZM417.454 38.34H424.654V39.78H417.454V38.34ZM441.74 38.394L438.158 32.04H440.03L442.064 35.802C442.232 36.09 442.364 36.354 442.46 36.594C442.532 36.714 442.592 36.834 442.64 36.954H442.694C442.742 36.846 442.802 36.726 442.874 36.594L443.27 35.802L445.34 32.04H447.122L443.54 38.286L447.32 45H445.466L443.216 40.878L442.82 40.086C442.748 39.954 442.688 39.828 442.64 39.708H442.586C442.538 39.828 442.484 39.954 442.424 40.086C442.364 40.194 442.298 40.32 442.226 40.464C442.166 40.596 442.1 40.728 442.028 40.86L439.76 45H437.96L441.74 38.394ZM452.533 38.394L448.951 32.04H450.823L452.857 35.802C453.025 36.09 453.157 36.354 453.253 36.594C453.325 36.714 453.385 36.834 453.433 36.954H453.487C453.535 36.846 453.595 36.726 453.667 36.594L454.063 35.802L456.133 32.04H457.915L454.333 38.286L458.113 45H456.259L454.009 40.878L453.613 40.086C453.541 39.954 453.481 39.828 453.433 39.708H453.379C453.331 39.828 453.277 39.954 453.217 40.086C453.157 40.194 453.091 40.32 453.019 40.464C452.959 40.596 452.893 40.728 452.821 40.86L450.553 45H448.753L452.533 38.394ZM459.618 32.04H461.346L463.83 42.174C463.89 42.426 463.944 42.66 463.992 42.876C464.04 43.08 464.076 43.26 464.1 43.416C464.124 43.608 464.148 43.776 464.172 43.92H464.244C464.268 43.776 464.298 43.608 464.334 43.416C464.358 43.26 464.394 43.08 464.442 42.876C464.49 42.66 464.544 42.426 464.604 42.174L467.142 32.04H468.834L465.306 45H463.038L459.618 32.04ZM474.191 43.578V33.462H471.329V32.04H478.709V33.462H475.847V43.578H478.709V45H471.329V43.578H474.191ZM484.984 43.578V33.462H482.122V32.04H489.502V33.462H486.64V43.578H489.502V45H482.122V43.578H484.984ZM503.798 38.34H510.998V39.78H503.798V38.34ZM528.084 38.394L524.502 32.04H526.374L528.408 35.802C528.576 36.09 528.708 36.354 528.804 36.594C528.876 36.714 528.936 36.834 528.984 36.954H529.038C529.086 36.846 529.146 36.726 529.218 36.594L529.614 35.802L531.684 32.04H533.466L529.884 38.286L533.664 45H531.81L529.56 40.878L529.164 40.086C529.092 39.954 529.032 39.828 528.984 39.708H528.93C528.882 39.828 528.828 39.954 528.768 40.086C528.708 40.194 528.642 40.32 528.57 40.464C528.51 40.596 528.444 40.728 528.372 40.86L526.104 45H524.304L528.084 38.394ZM535.169 32.04H536.897L539.381 42.174C539.441 42.426 539.495 42.66 539.543 42.876C539.591 43.08 539.627 43.26 539.651 43.416C539.675 43.608 539.699 43.776 539.723 43.92H539.795C539.819 43.776 539.849 43.608 539.885 43.416C539.909 43.26 539.945 43.08 539.993 42.876C540.041 42.66 540.095 42.426 540.155 42.174L542.693 32.04H544.385L540.857 45H538.589L535.169 32.04ZM549.742 43.578V33.462H546.88V32.04H554.26V33.462H551.398V43.578H554.26V45H546.88V43.578H549.742ZM560.535 43.578V33.462H557.673V32.04H565.053V33.462H562.191V43.578H565.053V45H557.673V43.578H560.535ZM571.328 43.578V33.462H568.466V32.04H575.846V33.462H572.984V43.578H575.846V45H568.466V43.578H571.328ZM590.142 38.34H597.342V39.78H590.142V38.34ZM614.428 38.394L610.846 32.04H612.718L614.752 35.802C614.92 36.09 615.052 36.354 615.148 36.594C615.22 36.714 615.28 36.834 615.328 36.954H615.382C615.43 36.846 615.49 36.726 615.562 36.594L615.958 35.802L618.028 32.04H619.81L616.228 38.286L620.008 45H618.154L615.904 40.878L615.508 40.086C615.436 39.954 615.376 39.828 615.328 39.708H615.274C615.226 39.828 615.172 39.954 615.112 40.086C615.052 40.194 614.986 40.32 614.914 40.464C614.854 40.596 614.788 40.728 614.716 40.86L612.448 45H610.648L614.428 38.394ZM625.221 38.394L621.639 32.04H623.511L625.545 35.802C625.713 36.09 625.845 36.354 625.941 36.594C626.013 36.714 626.073 36.834 626.121 36.954H626.175C626.223 36.846 626.283 36.726 626.355 36.594L626.751 35.802L628.821 32.04H630.603L627.021 38.286L630.801 45H628.947L626.697 40.878L626.301 40.086C626.229 39.954 626.169 39.828 626.121 39.708H626.067C626.019 39.828 625.965 39.954 625.905 40.086C625.845 40.194 625.779 40.32 625.707 40.464C625.647 40.596 625.581 40.728 625.509 40.86L623.241 45H621.441L625.221 38.394ZM636.014 38.394L632.432 32.04H634.304L636.338 35.802C636.506 36.09 636.638 36.354 636.734 36.594C636.806 36.714 636.866 36.834 636.914 36.954H636.968C637.016 36.846 637.076 36.726 637.148 36.594L637.544 35.802L639.614 32.04H641.396L637.814 38.286L641.594 45H639.74L637.49 40.878L637.094 40.086C637.022 39.954 636.962 39.828 636.914 39.708H636.86C636.812 39.828 636.758 39.954 636.698 40.086C636.638 40.194 636.572 40.32 636.5 40.464C636.44 40.596 636.374 40.728 636.302 40.86L634.034 45H632.234L636.014 38.394ZM646.879 43.578V33.462H644.017V32.04H651.397V33.462H648.535V43.578H651.397V45H644.017V43.578H646.879ZM657.672 43.578V33.462H654.81V32.04H662.19V33.462H659.328V43.578H662.19V45H654.81V43.578H657.672Z" fill="white"/>
<path d="M150.83 66.394L147.248 60.04H149.12L151.154 63.802C151.322 64.09 151.454 64.354 151.55 64.594C151.622 64.714 151.682 64.834 151.73 64.954H151.784C151.832 64.846 151.892 64.726 151.964 64.594L152.36 63.802L154.43 60.04H156.212L152.63 66.286L156.41 73H154.556L152.306 68.878L151.91 68.086C151.838 67.954 151.778 67.828 151.73 67.708H151.676C151.628 67.828 151.574 67.954 151.514 68.086C151.454 68.194 151.388 68.32 151.316 68.464C151.256 68.596 151.19 68.728 151.118 68.86L148.85 73H147.05L150.83 66.394ZM157.915 60.04H159.643L162.127 70.174C162.187 70.426 162.241 70.66 162.289 70.876C162.337 71.08 162.373 71.26 162.397 71.416C162.421 71.608 162.445 71.776 162.469 71.92H162.541C162.565 71.776 162.595 71.608 162.631 71.416C162.655 71.26 162.691 71.08 162.739 70.876C162.787 70.66 162.841 70.426 162.901 70.174L165.439 60.04H167.131L163.603 73H161.335L157.915 60.04ZM180.509 66.34H187.709V67.78H180.509V66.34ZM204.795 66.394L201.213 60.04H203.085L205.119 63.802C205.287 64.09 205.419 64.354 205.515 64.594C205.587 64.714 205.647 64.834 205.695 64.954H205.749C205.797 64.846 205.857 64.726 205.929 64.594L206.325 63.802L208.395 60.04H210.177L206.595 66.286L210.375 73H208.521L206.271 68.878L205.875 68.086C205.803 67.954 205.743 67.828 205.695 67.708H205.641C205.593 67.828 205.539 67.954 205.479 68.086C205.419 68.194 205.353 68.32 205.281 68.464C205.221 68.596 205.155 68.728 205.083 68.86L202.815 73H201.015L204.795 66.394ZM215.588 66.394L212.006 60.04H213.878L215.912 63.802C216.08 64.09 216.212 64.354 216.308 64.594C216.38 64.714 216.44 64.834 216.488 64.954H216.542C216.59 64.846 216.65 64.726 216.722 64.594L217.118 63.802L219.188 60.04H220.97L217.388 66.286L221.168 73H219.314L217.064 68.878L216.668 68.086C216.596 67.954 216.536 67.828 216.488 67.708H216.434C216.386 67.828 216.332 67.954 216.272 68.086C216.212 68.194 216.146 68.32 216.074 68.464C216.014 68.596 215.948 68.728 215.876 68.86L213.608 73H211.808L215.588 66.394ZM226.381 66.394L222.799 60.04H224.671L226.705 63.802C226.873 64.09 227.005 64.354 227.101 64.594C227.173 64.714 227.233 64.834 227.281 64.954H227.335C227.383 64.846 227.443 64.726 227.515 64.594L227.911 63.802L229.981 60.04H231.763L228.181 66.286L231.961 73H230.107L227.857 68.878L227.461 68.086C227.389 67.954 227.329 67.828 227.281 67.708H227.227C227.179 67.828 227.125 67.954 227.065 68.086C227.005 68.194 226.939 68.32 226.867 68.464C226.807 68.596 226.741 68.728 226.669 68.86L224.401 73H222.601L226.381 66.394ZM237.246 71.578V61.462H234.384V60.04H241.764V61.462H238.902V71.578H241.764V73H234.384V71.578H237.246ZM256.06 66.34H263.26V67.78H256.06V66.34ZM280.346 66.394L276.764 60.04H278.636L280.67 63.802C280.838 64.09 280.97 64.354 281.066 64.594C281.138 64.714 281.198 64.834 281.246 64.954H281.3C281.348 64.846 281.408 64.726 281.48 64.594L281.876 63.802L283.946 60.04H285.728L282.146 66.286L285.926 73H284.072L281.822 68.878L281.426 68.086C281.354 67.954 281.294 67.828 281.246 67.708H281.192C281.144 67.828 281.09 67.954 281.03 68.086C280.97 68.194 280.904 68.32 280.832 68.464C280.772 68.596 280.706 68.728 280.634 68.86L278.366 73H276.566L280.346 66.394ZM291.211 71.578V61.462H288.349V60.04H295.729V61.462H292.867V71.578H295.729V73H288.349V71.578H291.211ZM302.004 71.578V61.462H299.142V60.04H306.522V61.462H303.66V71.578H306.522V73H299.142V71.578H302.004ZM320.818 66.34H328.018V67.78H320.818V66.34ZM345.104 66.394L341.522 60.04H343.394L345.428 63.802C345.596 64.09 345.728 64.354 345.824 64.594C345.896 64.714 345.956 64.834 346.004 64.954H346.058C346.106 64.846 346.166 64.726 346.238 64.594L346.634 63.802L348.704 60.04H350.486L346.904 66.286L350.684 73H348.83L346.58 68.878L346.184 68.086C346.112 67.954 346.052 67.828 346.004 67.708H345.95C345.902 67.828 345.848 67.954 345.788 68.086C345.728 68.194 345.662 68.32 345.59 68.464C345.53 68.596 345.464 68.728 345.392 68.86L343.124 73H341.324L345.104 66.394ZM355.896 66.394L352.314 60.04H354.186L356.22 63.802C356.388 64.09 356.52 64.354 356.616 64.594C356.688 64.714 356.748 64.834 356.796 64.954H356.85C356.898 64.846 356.958 64.726 357.03 64.594L357.426 63.802L359.496 60.04H361.278L357.696 66.286L361.476 73H359.622L357.372 68.878L356.976 68.086C356.904 67.954 356.844 67.828 356.796 67.708H356.742C356.694 67.828 356.64 67.954 356.58 68.086C356.52 68.194 356.454 68.32 356.382 68.464C356.322 68.596 356.256 68.728 356.184 68.86L353.916 73H352.116L355.896 66.394ZM366.761 71.578V61.462H363.899V60.04H371.279V61.462H368.417V71.578H371.279V73H363.899V71.578H366.761ZM373.774 60.04H375.502L377.986 70.174C378.046 70.426 378.1 70.66 378.148 70.876C378.196 71.08 378.232 71.26 378.256 71.416C378.28 71.608 378.304 71.776 378.328 71.92H378.4C378.424 71.776 378.454 71.608 378.49 71.416C378.514 71.26 378.55 71.08 378.598 70.876C378.646 70.66 378.7 70.426 378.76 70.174L381.298 60.04H382.99L379.462 73H377.194L373.774 60.04ZM396.368 66.34H403.568V67.78H396.368V66.34ZM420.654 66.394L417.072 60.04H418.944L420.978 63.802C421.146 64.09 421.278 64.354 421.374 64.594C421.446 64.714 421.506 64.834 421.554 64.954H421.608C421.656 64.846 421.716 64.726 421.788 64.594L422.184 63.802L424.254 60.04H426.036L422.454 66.286L426.234 73H424.38L422.13 68.878L421.734 68.086C421.662 67.954 421.602 67.828 421.554 67.708H421.5C421.452 67.828 421.398 67.954 421.338 68.086C421.278 68.194 421.212 68.32 421.14 68.464C421.08 68.596 421.014 68.728 420.942 68.86L418.674 73H416.874L420.654 66.394ZM431.447 66.394L427.865 60.04H429.737L431.771 63.802C431.939 64.09 432.071 64.354 432.167 64.594C432.239 64.714 432.299 64.834 432.347 64.954H432.401C432.449 64.846 432.509 64.726 432.581 64.594L432.977 63.802L435.047 60.04H436.829L433.247 66.286L437.027 73H435.173L432.923 68.878L432.527 68.086C432.455 67.954 432.395 67.828 432.347 67.708H432.293C432.245 67.828 432.191 67.954 432.131 68.086C432.071 68.194 432.005 68.32 431.933 68.464C431.873 68.596 431.807 68.728 431.735 68.86L429.467 73H427.667L431.447 66.394ZM442.312 71.578V61.462H439.45V60.04H446.83V61.462H443.968V71.578H446.83V73H439.45V71.578H442.312ZM453.105 71.578V61.462H450.243V60.04H457.623V61.462H454.761V71.578H457.623V73H450.243V71.578H453.105ZM471.919 66.34H479.119V67.78H471.919V66.34ZM496.205 66.394L492.623 60.04H494.495L496.529 63.802C496.697 64.09 496.829 64.354 496.925 64.594C496.997 64.714 497.057 64.834 497.105 64.954H497.159C497.207 64.846 497.267 64.726 497.339 64.594L497.735 63.802L499.805 60.04H501.587L498.005 66.286L501.785 73H499.931L497.681 68.878L497.285 68.086C497.213 67.954 497.153 67.828 497.105 67.708H497.051C497.003 67.828 496.949 67.954 496.889 68.086C496.829 68.194 496.763 68.32 496.691 68.464C496.631 68.596 496.565 68.728 496.493 68.86L494.225 73H492.425L496.205 66.394ZM506.998 66.394L503.416 60.04H505.288L507.322 63.802C507.49 64.09 507.622 64.354 507.718 64.594C507.79 64.714 507.85 64.834 507.898 64.954H507.952C508 64.846 508.06 64.726 508.132 64.594L508.528 63.802L510.598 60.04H512.38L508.798 66.286L512.578 73H510.724L508.474 68.878L508.078 68.086C508.006 67.954 507.946 67.828 507.898 67.708H507.844C507.796 67.828 507.742 67.954 507.682 68.086C507.622 68.194 507.556 68.32 507.484 68.464C507.424 68.596 507.358 68.728 507.286 68.86L505.018 73H503.218L506.998 66.394ZM517.863 71.578V61.462H515.001V60.04H522.381V61.462H519.519V71.578H522.381V73H515.001V71.578H517.863ZM528.656 71.578V61.462H525.794V60.04H533.174V61.462H530.312V71.578H533.174V73H525.794V71.578H528.656ZM539.449 71.578V61.462H536.587V60.04H543.967V61.462H541.105V71.578H543.967V73H536.587V71.578H539.449Z" fill="white"/>
<path d="M139.537 94.394L135.955 88.04H137.827L139.861 91.802C140.029 92.09 140.161 92.354 140.257 92.594C140.329 92.714 140.389 92.834 140.437 92.954H140.491C140.539 92.846 140.599 92.726 140.671 92.594L141.067 91.802L143.137 88.04H144.919L141.337 94.286L145.117 101H143.263L141.013 96.878L140.617 96.086C140.545 95.954 140.485 95.828 140.437 95.708H140.383C140.335 95.828 140.281 95.954 140.221 96.086C140.161 96.194 140.095 96.32 140.023 96.464C139.963 96.596 139.897 96.728 139.825 96.86L137.557 101H135.757L139.537 94.394ZM150.33 94.394L146.748 88.04H148.62L150.654 91.802C150.822 92.09 150.954 92.354 151.05 92.594C151.122 92.714 151.182 92.834 151.23 92.954H151.284C151.332 92.846 151.392 92.726 151.464 92.594L151.86 91.802L153.93 88.04H155.712L152.13 94.286L155.91 101H154.056L151.806 96.878L151.41 96.086C151.338 95.954 151.278 95.828 151.23 95.708H151.176C151.128 95.828 151.074 95.954 151.014 96.086C150.954 96.194 150.888 96.32 150.816 96.464C150.756 96.596 150.69 96.728 150.618 96.86L148.35 101H146.55L150.33 94.394ZM161.195 99.578V89.462H158.333V88.04H165.713V89.462H162.851V99.578H165.713V101H158.333V99.578H161.195ZM168.208 88.04H169.936L172.42 98.174C172.48 98.426 172.534 98.66 172.582 98.876C172.63 99.08 172.666 99.26 172.69 99.416C172.714 99.608 172.738 99.776 172.762 99.92H172.834C172.858 99.776 172.888 99.608 172.924 99.416C172.948 99.26 172.984 99.08 173.032 98.876C173.08 98.66 173.134 98.426 173.194 98.174L175.732 88.04H177.424L173.896 101H171.628L168.208 88.04ZM190.802 94.34H198.002V95.78H190.802V94.34ZM215.088 94.394L211.506 88.04H213.378L215.412 91.802C215.58 92.09 215.712 92.354 215.808 92.594C215.88 92.714 215.94 92.834 215.988 92.954H216.042C216.09 92.846 216.15 92.726 216.222 92.594L216.618 91.802L218.688 88.04H220.47L216.888 94.286L220.668 101H218.814L216.564 96.878L216.168 96.086C216.096 95.954 216.036 95.828 215.988 95.708H215.934C215.886 95.828 215.832 95.954 215.772 96.086C215.712 96.194 215.646 96.32 215.574 96.464C215.514 96.596 215.448 96.728 215.376 96.86L213.108 101H211.308L215.088 94.394ZM225.881 94.394L222.299 88.04H224.171L226.205 91.802C226.373 92.09 226.505 92.354 226.601 92.594C226.673 92.714 226.733 92.834 226.781 92.954H226.835C226.883 92.846 226.943 92.726 227.015 92.594L227.411 91.802L229.481 88.04H231.263L227.681 94.286L231.461 101H229.607L227.357 96.878L226.961 96.086C226.889 95.954 226.829 95.828 226.781 95.708H226.727C226.679 95.828 226.625 95.954 226.565 96.086C226.505 96.194 226.439 96.32 226.367 96.464C226.307 96.596 226.241 96.728 226.169 96.86L223.901 101H222.101L225.881 94.394ZM236.674 94.394L233.092 88.04H234.964L236.998 91.802C237.166 92.09 237.298 92.354 237.394 92.594C237.466 92.714 237.526 92.834 237.574 92.954H237.628C237.676 92.846 237.736 92.726 237.808 92.594L238.204 91.802L240.274 88.04H242.056L238.474 94.286L242.254 101H240.4L238.15 96.878L237.754 96.086C237.682 95.954 237.622 95.828 237.574 95.708H237.52C237.472 95.828 237.418 95.954 237.358 96.086C237.298 96.194 237.232 96.32 237.16 96.464C237.1 96.596 237.034 96.728 236.962 96.86L234.694 101H232.894L236.674 94.394ZM255.56 94.34H262.76V95.78H255.56V94.34ZM279.846 94.394L276.264 88.04H278.136L280.17 91.802C280.338 92.09 280.47 92.354 280.566 92.594C280.638 92.714 280.698 92.834 280.746 92.954H280.8C280.848 92.846 280.908 92.726 280.98 92.594L281.376 91.802L283.446 88.04H285.228L281.646 94.286L285.426 101H283.572L281.322 96.878L280.926 96.086C280.854 95.954 280.794 95.828 280.746 95.708H280.692C280.644 95.828 280.59 95.954 280.53 96.086C280.47 96.194 280.404 96.32 280.332 96.464C280.272 96.596 280.206 96.728 280.134 96.86L277.866 101H276.066L279.846 94.394ZM290.639 94.394L287.057 88.04H288.929L290.963 91.802C291.131 92.09 291.263 92.354 291.359 92.594C291.431 92.714 291.491 92.834 291.539 92.954H291.593C291.641 92.846 291.701 92.726 291.773 92.594L292.169 91.802L294.239 88.04H296.021L292.439 94.286L296.219 101H294.365L292.115 96.878L291.719 96.086C291.647 95.954 291.587 95.828 291.539 95.708H291.485C291.437 95.828 291.383 95.954 291.323 96.086C291.263 96.194 291.197 96.32 291.125 96.464C291.065 96.596 290.999 96.728 290.927 96.86L288.659 101H286.859L290.639 94.394ZM301.504 99.578V89.462H298.642V88.04H306.022V89.462H303.16V99.578H306.022V101H298.642V99.578H301.504ZM312.297 99.578V89.462H309.435V88.04H316.815V89.462H313.953V99.578H316.815V101H309.435V99.578H312.297ZM331.111 94.34H338.311V95.78H331.111V94.34ZM355.396 94.394L351.814 88.04H353.686L355.72 91.802C355.888 92.09 356.02 92.354 356.116 92.594C356.188 92.714 356.248 92.834 356.296 92.954H356.35C356.398 92.846 356.458 92.726 356.53 92.594L356.926 91.802L358.996 88.04H360.778L357.196 94.286L360.976 101H359.122L356.872 96.878L356.476 96.086C356.404 95.954 356.344 95.828 356.296 95.708H356.242C356.194 95.828 356.14 95.954 356.08 96.086C356.02 96.194 355.954 96.32 355.882 96.464C355.822 96.596 355.756 96.728 355.684 96.86L353.416 101H351.616L355.396 94.394ZM366.189 94.394L362.607 88.04H364.479L366.513 91.802C366.681 92.09 366.813 92.354 366.909 92.594C366.981 92.714 367.041 92.834 367.089 92.954H367.143C367.191 92.846 367.251 92.726 367.323 92.594L367.719 91.802L369.789 88.04H371.571L367.989 94.286L371.769 101H369.915L367.665 96.878L367.269 96.086C367.197 95.954 367.137 95.828 367.089 95.708H367.035C366.987 95.828 366.933 95.954 366.873 96.086C366.813 96.194 366.747 96.32 366.675 96.464C366.615 96.596 366.549 96.728 366.477 96.86L364.209 101H362.409L366.189 94.394ZM376.982 94.394L373.4 88.04H375.272L377.306 91.802C377.474 92.09 377.606 92.354 377.702 92.594C377.774 92.714 377.834 92.834 377.882 92.954H377.936C377.984 92.846 378.044 92.726 378.116 92.594L378.512 91.802L380.582 88.04H382.364L378.782 94.286L382.562 101H380.708L378.458 96.878L378.062 96.086C377.99 95.954 377.93 95.828 377.882 95.708H377.828C377.78 95.828 377.726 95.954 377.666 96.086C377.606 96.194 377.54 96.32 377.468 96.464C377.408 96.596 377.342 96.728 377.27 96.86L375.002 101H373.202L376.982 94.394ZM387.847 99.578V89.462H384.985V88.04H392.365V89.462H389.503V99.578H392.365V101H384.985V99.578H387.847ZM398.64 99.578V89.462H395.778V88.04H403.158V89.462H400.296V99.578H403.158V101H395.778V99.578H398.64ZM417.454 94.34H424.654V95.78H417.454V94.34ZM441.74 94.394L438.158 88.04H440.03L442.064 91.802C442.232 92.09 442.364 92.354 442.46 92.594C442.532 92.714 442.592 92.834 442.64 92.954H442.694C442.742 92.846 442.802 92.726 442.874 92.594L443.27 91.802L445.34 88.04H447.122L443.54 94.286L447.32 101H445.466L443.216 96.878L442.82 96.086C442.748 95.954 442.688 95.828 442.64 95.708H442.586C442.538 95.828 442.484 95.954 442.424 96.086C442.364 96.194 442.298 96.32 442.226 96.464C442.166 96.596 442.1 96.728 442.028 96.86L439.76 101H437.96L441.74 94.394ZM452.533 94.394L448.951 88.04H450.823L452.857 91.802C453.025 92.09 453.157 92.354 453.253 92.594C453.325 92.714 453.385 92.834 453.433 92.954H453.487C453.535 92.846 453.595 92.726 453.667 92.594L454.063 91.802L456.133 88.04H457.915L454.333 94.286L458.113 101H456.259L454.009 96.878L453.613 96.086C453.541 95.954 453.481 95.828 453.433 95.708H453.379C453.331 95.828 453.277 95.954 453.217 96.086C453.157 96.194 453.091 96.32 453.019 96.464C452.959 96.596 452.893 96.728 452.821 96.86L450.553 101H448.753L452.533 94.394ZM463.398 99.578V89.462H460.536V88.04H467.916V89.462H465.054V99.578H467.916V101H460.536V99.578H463.398ZM474.191 99.578V89.462H471.329V88.04H478.709V89.462H475.847V99.578H478.709V101H471.329V99.578H474.191ZM493.005 94.34H500.205V95.78H493.005V94.34ZM517.291 94.394L513.709 88.04H515.581L517.615 91.802C517.783 92.09 517.915 92.354 518.011 92.594C518.083 92.714 518.143 92.834 518.191 92.954H518.245C518.293 92.846 518.353 92.726 518.425 92.594L518.821 91.802L520.891 88.04H522.673L519.091 94.286L522.871 101H521.017L518.767 96.878L518.371 96.086C518.299 95.954 518.239 95.828 518.191 95.708H518.137C518.089 95.828 518.035 95.954 517.975 96.086C517.915 96.194 517.849 96.32 517.777 96.464C517.717 96.596 517.651 96.728 517.579 96.86L515.311 101H513.511L517.291 94.394ZM528.084 94.394L524.502 88.04H526.374L528.408 91.802C528.576 92.09 528.708 92.354 528.804 92.594C528.876 92.714 528.936 92.834 528.984 92.954H529.038C529.086 92.846 529.146 92.726 529.218 92.594L529.614 91.802L531.684 88.04H533.466L529.884 94.286L533.664 101H531.81L529.56 96.878L529.164 96.086C529.092 95.954 529.032 95.828 528.984 95.708H528.93C528.882 95.828 528.828 95.954 528.768 96.086C528.708 96.194 528.642 96.32 528.57 96.464C528.51 96.596 528.444 96.728 528.372 96.86L526.104 101H524.304L528.084 94.394ZM538.949 99.578V89.462H536.087V88.04H543.467V89.462H540.605V99.578H543.467V101H536.087V99.578H538.949ZM545.962 88.04H547.69L550.174 98.174C550.234 98.426 550.288 98.66 550.336 98.876C550.384 99.08 550.42 99.26 550.444 99.416C550.468 99.608 550.492 99.776 550.516 99.92H550.588C550.612 99.776 550.642 99.608 550.678 99.416C550.702 99.26 550.738 99.08 550.786 98.876C550.834 98.66 550.888 98.426 550.948 98.174L553.486 88.04H555.178L551.65 101H549.382L545.962 88.04Z" fill="white"/>
<path d="M333.811 122.394L330.229 116.04H332.101L334.135 119.802C334.303 120.09 334.435 120.354 334.531 120.594C334.603 120.714 334.663 120.834 334.711 120.954H334.765C334.813 120.846 334.873 120.726 334.945 120.594L335.341 119.802L337.411 116.04H339.193L335.611 122.286L339.391 129H337.537L335.287 124.878L334.891 124.086C334.819 123.954 334.759 123.828 334.711 123.708H334.657C334.609 123.828 334.555 123.954 334.495 124.086C334.435 124.194 334.369 124.32 334.297 124.464C334.237 124.596 334.171 124.728 334.099 124.86L331.831 129H330.031L333.811 122.394ZM344.676 127.578V117.462H341.814V116.04H349.194V117.462H346.332V127.578H349.194V129H341.814V127.578H344.676ZM355.468 127.578V117.462H352.606V116.04H359.986V117.462H357.124V127.578H359.986V129H352.606V127.578H355.468Z" fill="white"/>
<path d="M4.625 150.394L1.043 144.04H2.915L4.949 147.802C5.117 148.09 5.249 148.354 5.345 148.594C5.417 148.714 5.477 148.834 5.525 148.954H5.579C5.627 148.846 5.687 148.726 5.759 148.594L6.155 147.802L8.225 144.04H10.007L6.425 150.286L10.205 157H8.351L6.101 152.878L5.705 152.086C5.633 151.954 5.573 151.828 5.525 151.708H5.471C5.423 151.828 5.369 151.954 5.309 152.086C5.249 152.194 5.183 152.32 5.111 152.464C5.051 152.596 4.985 152.728 4.913 152.86L2.645 157H0.845L4.625 150.394ZM15.418 150.394L11.836 144.04H13.708L15.742 147.802C15.91 148.09 16.042 148.354 16.138 148.594C16.21 148.714 16.27 148.834 16.318 148.954H16.372C16.42 148.846 16.48 148.726 16.552 148.594L16.948 147.802L19.018 144.04H20.8L17.218 150.286L20.998 157H19.144L16.894 152.878L16.498 152.086C16.426 151.954 16.366 151.828 16.318 151.708H16.264C16.216 151.828 16.162 151.954 16.102 152.086C16.042 152.194 15.976 152.32 15.904 152.464C15.844 152.596 15.778 152.728 15.706 152.86L13.438 157H11.638L15.418 150.394ZM26.2109 150.394L22.6289 144.04H24.5009L26.5349 147.802C26.7029 148.09 26.8349 148.354 26.9309 148.594C27.0029 148.714 27.0629 148.834 27.1109 148.954H27.1649C27.2129 148.846 27.2729 148.726 27.3449 148.594L27.7409 147.802L29.8109 144.04H31.5929L28.0109 150.286L31.7909 157H29.9369L27.6869 152.878L27.2909 152.086C27.2189 151.954 27.1589 151.828 27.1109 151.708H27.0569C27.0089 151.828 26.9549 151.954 26.8949 152.086C26.8349 152.194 26.7689 152.32 26.6969 152.464C26.6369 152.596 26.5709 152.728 26.4989 152.86L24.2309 157H22.4309L26.2109 150.394ZM37.0759 155.578V145.462H34.2139V144.04H41.5939V145.462H38.7319V155.578H41.5939V157H34.2139V155.578H37.0759ZM55.8898 150.34H63.0898V151.78H55.8898V150.34ZM80.1758 150.394L76.5938 144.04H78.4658L80.4998 147.802C80.6678 148.09 80.7998 148.354 80.8958 148.594C80.9678 148.714 81.0278 148.834 81.0758 148.954H81.1298C81.1778 148.846 81.2378 148.726 81.3098 148.594L81.7058 147.802L83.7758 144.04H85.5578L81.9758 150.286L85.7558 157H83.9018L81.6518 152.878L81.2558 152.086C81.1838 151.954 81.1238 151.828 81.0758 151.708H81.0218C80.9738 151.828 80.9198 151.954 80.8598 152.086C80.7998 152.194 80.7338 152.32 80.6618 152.464C80.6018 152.596 80.5358 152.728 80.4638 152.86L78.1958 157H76.3958L80.1758 150.394ZM90.9688 150.394L87.3868 144.04H89.2588L91.2928 147.802C91.4608 148.09 91.5928 148.354 91.6888 148.594C91.7608 148.714 91.8208 148.834 91.8688 148.954H91.9228C91.9708 148.846 92.0308 148.726 92.1028 148.594L92.4988 147.802L94.5688 144.04H96.3508L92.7688 150.286L96.5488 157H94.6948L92.4448 152.878L92.0488 152.086C91.9768 151.954 91.9168 151.828 91.8688 151.708H91.8148C91.7668 151.828 91.7128 151.954 91.6528 152.086C91.5928 152.194 91.5268 152.32 91.4548 152.464C91.3948 152.596 91.3288 152.728 91.2568 152.86L88.9888 157H87.1888L90.9688 150.394ZM101.834 155.578V145.462H98.9717V144.04H106.352V145.462H103.49V155.578H106.352V157H98.9717V155.578H101.834ZM112.627 155.578V145.462H109.765V144.04H117.145V145.462H114.283V155.578H117.145V157H109.765V155.578H112.627ZM131.441 150.34H138.641V151.78H131.441V150.34ZM155.727 150.394L152.145 144.04H154.017L156.051 147.802C156.219 148.09 156.351 148.354 156.447 148.594C156.519 148.714 156.579 148.834 156.627 148.954H156.681C156.729 148.846 156.789 148.726 156.861 148.594L157.257 147.802L159.327 144.04H161.109L157.527 150.286L161.307 157H159.453L157.203 152.878L156.807 152.086C156.735 151.954 156.675 151.828 156.627 151.708H156.573C156.525 151.828 156.471 151.954 156.411 152.086C156.351 152.194 156.285 152.32 156.213 152.464C156.153 152.596 156.087 152.728 156.015 152.86L153.747 157H151.947L155.727 150.394ZM166.52 150.394L162.938 144.04H164.81L166.844 147.802C167.012 148.09 167.144 148.354 167.24 148.594C167.312 148.714 167.372 148.834 167.42 148.954H167.474C167.522 148.846 167.582 148.726 167.654 148.594L168.05 147.802L170.12 144.04H171.902L168.32 150.286L172.1 157H170.246L167.996 152.878L167.6 152.086C167.528 151.954 167.468 151.828 167.42 151.708H167.366C167.318 151.828 167.264 151.954 167.204 152.086C167.144 152.194 167.078 152.32 167.006 152.464C166.946 152.596 166.88 152.728 166.808 152.86L164.54 157H162.74L166.52 150.394ZM177.312 150.394L173.731 144.04H175.603L177.637 147.802C177.805 148.09 177.937 148.354 178.033 148.594C178.105 148.714 178.165 148.834 178.213 148.954H178.267C178.315 148.846 178.375 148.726 178.447 148.594L178.843 147.802L180.913 144.04H182.695L179.113 150.286L182.893 157H181.039L178.789 152.878L178.393 152.086C178.321 151.954 178.261 151.828 178.213 151.708H178.159C178.111 151.828 178.057 151.954 177.997 152.086C177.937 152.194 177.871 152.32 177.799 152.464C177.739 152.596 177.673 152.728 177.601 152.86L175.333 157H173.533L177.312 150.394ZM188.177 155.578V145.462H185.315V144.04H192.695V145.462H189.833V155.578H192.695V157H185.315V155.578H188.177ZM206.991 150.34H214.191V151.78H206.991V150.34ZM231.277 150.394L227.695 144.04H229.567L231.601 147.802C231.769 148.09 231.901 148.354 231.997 148.594C232.069 148.714 232.129 148.834 232.177 148.954H232.231C232.279 148.846 232.339 148.726 232.411 148.594L232.807 147.802L234.877 144.04H236.659L233.077 150.286L236.857 157H235.003L232.753 152.878L232.357 152.086C232.285 151.954 232.225 151.828 232.177 151.708H232.123C232.075 151.828 232.021 151.954 231.961 152.086C231.901 152.194 231.835 152.32 231.763 152.464C231.703 152.596 231.637 152.728 231.565 152.86L229.297 157H227.497L231.277 150.394ZM242.07 150.394L238.488 144.04H240.36L242.394 147.802C242.562 148.09 242.694 148.354 242.79 148.594C242.862 148.714 242.922 148.834 242.97 148.954H243.024C243.072 148.846 243.132 148.726 243.204 148.594L243.6 147.802L245.67 144.04H247.452L243.87 150.286L247.65 157H245.796L243.546 152.878L243.15 152.086C243.078 151.954 243.018 151.828 242.97 151.708H242.916C242.868 151.828 242.814 151.954 242.754 152.086C242.694 152.194 242.628 152.32 242.556 152.464C242.496 152.596 242.43 152.728 242.358 152.86L240.09 157H238.29L242.07 150.394ZM252.863 150.394L249.281 144.04H251.153L253.187 147.802C253.355 148.09 253.487 148.354 253.583 148.594C253.655 148.714 253.715 148.834 253.763 148.954H253.817C253.865 148.846 253.925 148.726 253.997 148.594L254.393 147.802L256.463 144.04H258.245L254.663 150.286L258.443 157H256.589L254.339 152.878L253.943 152.086C253.871 151.954 253.811 151.828 253.763 151.708H253.709C253.661 151.828 253.607 151.954 253.547 152.086C253.487 152.194 253.421 152.32 253.349 152.464C253.289 152.596 253.223 152.728 253.151 152.86L250.883 157H249.083L252.863 150.394ZM263.728 155.578V145.462H260.866V144.04H268.246V145.462H265.384V155.578H268.246V157H260.866V155.578H263.728ZM274.521 155.578V145.462H271.659V144.04H279.039V145.462H276.177V155.578H279.039V157H271.659V155.578H274.521ZM293.335 150.34H300.535V151.78H293.335V150.34ZM317.621 150.394L314.039 144.04H315.911L317.945 147.802C318.113 148.09 318.245 148.354 318.341 148.594C318.413 148.714 318.473 148.834 318.521 148.954H318.575C318.623 148.846 318.683 148.726 318.755 148.594L319.151 147.802L321.221 144.04H323.003L319.421 150.286L323.201 157H321.347L319.097 152.878L318.701 152.086C318.629 151.954 318.569 151.828 318.521 151.708H318.467C318.419 151.828 318.365 151.954 318.305 152.086C318.245 152.194 318.179 152.32 318.107 152.464C318.047 152.596 317.981 152.728 317.909 152.86L315.641 157H313.841L317.621 150.394ZM324.706 144.04H326.434L328.918 154.174C328.978 154.426 329.032 154.66 329.08 154.876C329.128 155.08 329.164 155.26 329.188 155.416C329.212 155.608 329.236 155.776 329.26 155.92H329.332C329.356 155.776 329.386 155.608 329.422 155.416C329.446 155.26 329.482 155.08 329.53 154.876C329.578 154.66 329.632 154.426 329.692 154.174L332.23 144.04H333.922L330.394 157H328.126L324.706 144.04ZM339.279 155.578V145.462H336.417V144.04H343.797V145.462H340.935V155.578H343.797V157H336.417V155.578H339.279ZM350.072 155.578V145.462H347.21V144.04H354.59V145.462H351.728V155.578H354.59V157H347.21V155.578H350.072ZM360.865 155.578V145.462H358.003V144.04H365.383V145.462H362.521V155.578H365.383V157H358.003V155.578H360.865ZM379.679 150.34H386.879V151.78H379.679V150.34ZM403.965 150.394L400.383 144.04H402.255L404.289 147.802C404.457 148.09 404.589 148.354 404.685 148.594C404.757 148.714 404.817 148.834 404.865 148.954H404.919C404.967 148.846 405.027 148.726 405.099 148.594L405.495 147.802L407.565 144.04H409.347L405.765 150.286L409.545 157H407.691L405.441 152.878L405.045 152.086C404.973 151.954 404.913 151.828 404.865 151.708H404.811C404.763 151.828 404.709 151.954 404.649 152.086C404.589 152.194 404.523 152.32 404.451 152.464C404.391 152.596 404.325 152.728 404.253 152.86L401.985 157H400.185L403.965 150.394ZM414.758 150.394L411.176 144.04H413.048L415.082 147.802C415.25 148.09 415.382 148.354 415.478 148.594C415.55 148.714 415.61 148.834 415.658 148.954H415.712C415.76 148.846 415.82 148.726 415.892 148.594L416.288 147.802L418.358 144.04H420.14L416.558 150.286L420.338 157H418.484L416.234 152.878L415.838 152.086C415.766 151.954 415.706 151.828 415.658 151.708H415.604C415.556 151.828 415.502 151.954 415.442 152.086C415.382 152.194 415.316 152.32 415.244 152.464C415.184 152.596 415.118 152.728 415.046 152.86L412.778 157H410.978L414.758 150.394ZM421.843 144.04H423.571L426.055 154.174C426.115 154.426 426.169 154.66 426.217 154.876C426.265 155.08 426.301 155.26 426.325 155.416C426.349 155.608 426.373 155.776 426.397 155.92H426.469C426.493 155.776 426.523 155.608 426.559 155.416C426.583 155.26 426.619 155.08 426.667 154.876C426.715 154.66 426.769 154.426 426.829 154.174L429.367 144.04H431.059L427.531 157H425.263L421.843 144.04ZM436.416 155.578V145.462H433.554V144.04H440.934V145.462H438.072V155.578H440.934V157H433.554V155.578H436.416ZM455.23 150.34H462.43V151.78H455.23V150.34ZM479.516 150.394L475.934 144.04H477.806L479.84 147.802C480.008 148.09 480.14 148.354 480.236 148.594C480.308 148.714 480.368 148.834 480.416 148.954H480.47C480.518 148.846 480.578 148.726 480.65 148.594L481.046 147.802L483.116 144.04H484.898L481.316 150.286L485.096 157H483.242L480.992 152.878L480.596 152.086C480.524 151.954 480.464 151.828 480.416 151.708H480.362C480.314 151.828 480.26 151.954 480.2 152.086C480.14 152.194 480.074 152.32 480.002 152.464C479.942 152.596 479.876 152.728 479.804 152.86L477.536 157H475.736L479.516 150.394ZM490.309 150.394L486.727 144.04H488.599L490.633 147.802C490.801 148.09 490.933 148.354 491.029 148.594C491.101 148.714 491.161 148.834 491.209 148.954H491.263C491.311 148.846 491.371 148.726 491.443 148.594L491.839 147.802L493.909 144.04H495.691L492.109 150.286L495.889 157H494.035L491.785 152.878L491.389 152.086C491.317 151.954 491.257 151.828 491.209 151.708H491.155C491.107 151.828 491.053 151.954 490.993 152.086C490.933 152.194 490.867 152.32 490.795 152.464C490.735 152.596 490.669 152.728 490.597 152.86L488.329 157H486.529L490.309 150.394ZM497.394 144.04H499.122L501.606 154.174C501.666 154.426 501.72 154.66 501.768 154.876C501.816 155.08 501.852 155.26 501.876 155.416C501.9 155.608 501.924 155.776 501.948 155.92H502.02C502.044 155.776 502.074 155.608 502.11 155.416C502.134 155.26 502.17 155.08 502.218 154.876C502.266 154.66 502.32 154.426 502.38 154.174L504.918 144.04H506.61L503.082 157H500.814L497.394 144.04ZM511.967 155.578V145.462H509.105V144.04H516.485V145.462H513.623V155.578H516.485V157H509.105V155.578H511.967ZM522.76 155.578V145.462H519.898V144.04H527.277V145.462H524.416V155.578H527.277V157H519.898V155.578H522.76ZM541.573 150.34H548.773V151.78H541.573V150.34ZM562.151 144.04H563.879L566.363 154.174C566.423 154.426 566.477 154.66 566.525 154.876C566.573 155.08 566.609 155.26 566.633 155.416C566.657 155.608 566.681 155.776 566.705 155.92H566.777C566.801 155.776 566.831 155.608 566.867 155.416C566.891 155.26 566.927 155.08 566.975 154.876C567.023 154.66 567.077 154.426 567.137 154.174L569.675 144.04H571.367L567.839 157H565.571L562.151 144.04ZM576.724 155.578V145.462H573.862V144.04H581.242V145.462H578.38V155.578H581.242V157H573.862V155.578H576.724ZM587.517 155.578V145.462H584.655V144.04H592.035V145.462H589.173V155.578H592.035V157H584.655V155.578H587.517ZM598.31 155.578V145.462H595.448V144.04H602.828V145.462H599.966V155.578H602.828V157H595.448V155.578H598.31ZM617.124 150.34H624.324V151.78H617.124V150.34ZM641.41 150.394L637.828 144.04H639.7L641.734 147.802C641.902 148.09 642.034 148.354 642.13 148.594C642.202 148.714 642.262 148.834 642.31 148.954H642.364C642.412 148.846 642.472 148.726 642.544 148.594L642.94 147.802L645.01 144.04H646.792L643.21 150.286L646.99 157H645.136L642.886 152.878L642.49 152.086C642.418 151.954 642.358 151.828 642.31 151.708H642.256C642.208 151.828 642.154 151.954 642.094 152.086C642.034 152.194 641.968 152.32 641.896 152.464C641.836 152.596 641.77 152.728 641.698 152.86L639.43 157H637.63L641.41 150.394ZM652.203 150.394L648.621 144.04H650.493L652.527 147.802C652.695 148.09 652.827 148.354 652.923 148.594C652.995 148.714 653.055 148.834 653.103 148.954H653.157C653.205 148.846 653.265 148.726 653.337 148.594L653.733 147.802L655.803 144.04H657.585L654.003 150.286L657.783 157H655.929L653.679 152.878L653.283 152.086C653.211 151.954 653.151 151.828 653.103 151.708H653.049C653.001 151.828 652.947 151.954 652.887 152.086C652.827 152.194 652.761 152.32 652.689 152.464C652.629 152.596 652.563 152.728 652.491 152.86L650.223 157H648.423L652.203 150.394ZM663.068 155.578V145.462H660.206V144.04H667.586V145.462H664.724V155.578H667.586V157H660.206V155.578H663.068ZM673.861 155.578V145.462H670.999V144.04H678.379V145.462H675.517V155.578H678.379V157H670.999V155.578H673.861ZM684.654 155.578V145.462H681.792V144.04H689.172V145.462H686.31V155.578H689.172V157H681.792V155.578H684.654Z" fill="white"/>
<path d="M58.5898 178.394L55.0078 172.04H56.8798L58.9138 175.802C59.0818 176.09 59.2138 176.354 59.3098 176.594C59.3818 176.714 59.4418 176.834 59.4898 176.954H59.5438C59.5918 176.846 59.6518 176.726 59.7238 176.594L60.1198 175.802L62.1898 172.04H63.9718L60.3898 178.286L64.1698 185H62.3158L60.0658 180.878L59.6698 180.086C59.5978 179.954 59.5378 179.828 59.4898 179.708H59.4358C59.3878 179.828 59.3338 179.954 59.2738 180.086C59.2138 180.194 59.1478 180.32 59.0758 180.464C59.0158 180.596 58.9498 180.728 58.8778 180.86L56.6098 185H54.8098L58.5898 178.394ZM69.4548 183.578V173.462H66.5928V172.04H73.9728V173.462H71.1108V183.578H73.9728V185H66.5928V183.578H69.4548ZM80.2478 183.578V173.462H77.3858V172.04H84.7658V173.462H81.9038V183.578H84.7658V185H77.3858V183.578H80.2478ZM91.0408 183.578V173.462H88.1788V172.04H95.5587V173.462H92.6968V183.578H95.5587V185H88.1788V183.578H91.0408ZM109.855 178.34H117.055V179.78H109.855V178.34ZM134.141 178.394L130.559 172.04H132.431L134.465 175.802C134.633 176.09 134.765 176.354 134.861 176.594C134.933 176.714 134.993 176.834 135.041 176.954H135.095C135.143 176.846 135.203 176.726 135.275 176.594L135.671 175.802L137.741 172.04H139.523L135.941 178.286L139.721 185H137.867L135.617 180.878L135.221 180.086C135.149 179.954 135.089 179.828 135.041 179.708H134.987C134.939 179.828 134.885 179.954 134.825 180.086C134.765 180.194 134.699 180.32 134.627 180.464C134.567 180.596 134.501 180.728 134.429 180.86L132.161 185H130.361L134.141 178.394ZM144.934 178.394L141.352 172.04H143.224L145.258 175.802C145.426 176.09 145.558 176.354 145.654 176.594C145.726 176.714 145.786 176.834 145.834 176.954H145.888C145.936 176.846 145.996 176.726 146.068 176.594L146.464 175.802L148.534 172.04H150.316L146.734 178.286L150.514 185H148.66L146.41 180.878L146.014 180.086C145.942 179.954 145.882 179.828 145.834 179.708H145.78C145.732 179.828 145.678 179.954 145.618 180.086C145.558 180.194 145.492 180.32 145.42 180.464C145.36 180.596 145.294 180.728 145.222 180.86L142.954 185H141.154L144.934 178.394ZM152.019 172.04H153.747L156.231 182.174C156.291 182.426 156.345 182.66 156.393 182.876C156.441 183.08 156.477 183.26 156.501 183.416C156.525 183.608 156.549 183.776 156.573 183.92H156.645C156.669 183.776 156.699 183.608 156.735 183.416C156.759 183.26 156.795 183.08 156.843 182.876C156.891 182.66 156.945 182.426 157.005 182.174L159.543 172.04H161.235L157.707 185H155.439L152.019 172.04ZM166.592 183.578V173.462H163.73V172.04H171.11V173.462H168.248V183.578H171.11V185H163.73V183.578H166.592ZM177.385 183.578V173.462H174.523V172.04H181.902V173.462H179.041V183.578H181.902V185H174.523V183.578H177.385ZM196.198 178.34H203.398V179.78H196.198V178.34ZM220.484 178.394L216.902 172.04H218.774L220.808 175.802C220.976 176.09 221.108 176.354 221.204 176.594C221.276 176.714 221.336 176.834 221.384 176.954H221.438C221.486 176.846 221.546 176.726 221.618 176.594L222.014 175.802L224.084 172.04H225.866L222.284 178.286L226.064 185H224.21L221.96 180.878L221.564 180.086C221.492 179.954 221.432 179.828 221.384 179.708H221.33C221.282 179.828 221.228 179.954 221.168 180.086C221.108 180.194 221.042 180.32 220.97 180.464C220.91 180.596 220.844 180.728 220.772 180.86L218.504 185H216.704L220.484 178.394ZM231.349 183.578V173.462H228.487V172.04H235.867V173.462H233.005V183.578H235.867V185H228.487V183.578H231.349ZM242.142 183.578V173.462H239.28V172.04H246.66V173.462H243.798V183.578H246.66V185H239.28V183.578H242.142ZM252.935 183.578V173.462H250.073V172.04H257.453V173.462H254.591V183.578H257.453V185H250.073V183.578H252.935ZM271.749 178.34H278.949V179.78H271.749V178.34ZM296.035 178.394L292.453 172.04H294.325L296.359 175.802C296.527 176.09 296.659 176.354 296.755 176.594C296.827 176.714 296.887 176.834 296.935 176.954H296.989C297.037 176.846 297.097 176.726 297.169 176.594L297.565 175.802L299.635 172.04H301.417L297.835 178.286L301.615 185H299.761L297.511 180.878L297.115 180.086C297.043 179.954 296.983 179.828 296.935 179.708H296.881C296.833 179.828 296.779 179.954 296.719 180.086C296.659 180.194 296.593 180.32 296.521 180.464C296.461 180.596 296.395 180.728 296.323 180.86L294.055 185H292.255L296.035 178.394ZM306.828 178.394L303.246 172.04H305.118L307.152 175.802C307.32 176.09 307.452 176.354 307.548 176.594C307.62 176.714 307.68 176.834 307.728 176.954H307.782C307.83 176.846 307.89 176.726 307.962 176.594L308.358 175.802L310.428 172.04H312.21L308.628 178.286L312.408 185H310.554L308.304 180.878L307.908 180.086C307.836 179.954 307.776 179.828 307.728 179.708H307.674C307.626 179.828 307.572 179.954 307.512 180.086C307.452 180.194 307.386 180.32 307.314 180.464C307.254 180.596 307.188 180.728 307.116 180.86L304.848 185H303.048L306.828 178.394ZM313.913 172.04H315.641L318.125 182.174C318.185 182.426 318.239 182.66 318.287 182.876C318.335 183.08 318.371 183.26 318.395 183.416C318.419 183.608 318.443 183.776 318.467 183.92H318.539C318.563 183.776 318.593 183.608 318.629 183.416C318.653 183.26 318.689 183.08 318.737 182.876C318.785 182.66 318.839 182.426 318.899 182.174L321.437 172.04H323.129L319.601 185H317.333L313.913 172.04ZM336.507 178.34H343.707V179.78H336.507V178.34ZM360.793 178.394L357.211 172.04H359.083L361.117 175.802C361.285 176.09 361.417 176.354 361.513 176.594C361.585 176.714 361.645 176.834 361.693 176.954H361.747C361.795 176.846 361.855 176.726 361.927 176.594L362.323 175.802L364.393 172.04H366.175L362.593 178.286L366.373 185H364.519L362.269 180.878L361.873 180.086C361.801 179.954 361.741 179.828 361.693 179.708H361.639C361.591 179.828 361.537 179.954 361.477 180.086C361.417 180.194 361.351 180.32 361.279 180.464C361.219 180.596 361.153 180.728 361.081 180.86L358.813 185H357.013L360.793 178.394ZM371.586 178.394L368.004 172.04H369.876L371.91 175.802C372.078 176.09 372.21 176.354 372.306 176.594C372.378 176.714 372.438 176.834 372.486 176.954H372.54C372.588 176.846 372.648 176.726 372.72 176.594L373.116 175.802L375.186 172.04H376.968L373.386 178.286L377.166 185H375.312L373.062 180.878L372.666 180.086C372.594 179.954 372.534 179.828 372.486 179.708H372.432C372.384 179.828 372.33 179.954 372.27 180.086C372.21 180.194 372.144 180.32 372.072 180.464C372.012 180.596 371.946 180.728 371.874 180.86L369.606 185H367.806L371.586 178.394ZM382.451 183.578V173.462H379.589V172.04H386.969V173.462H384.107V183.578H386.969V185H379.589V183.578H382.451ZM393.244 183.578V173.462H390.382V172.04H397.762V173.462H394.9V183.578H397.762V185H390.382V183.578H393.244ZM412.058 178.34H419.258V179.78H412.058V178.34ZM436.344 178.394L432.762 172.04H434.634L436.668 175.802C436.836 176.09 436.968 176.354 437.064 176.594C437.136 176.714 437.196 176.834 437.244 176.954H437.298C437.346 176.846 437.406 176.726 437.478 176.594L437.874 175.802L439.944 172.04H441.726L438.144 178.286L441.924 185H440.07L437.82 180.878L437.424 180.086C437.352 179.954 437.292 179.828 437.244 179.708H437.19C437.142 179.828 437.088 179.954 437.028 180.086C436.968 180.194 436.902 180.32 436.83 180.464C436.77 180.596 436.704 180.728 436.632 180.86L434.364 185H432.564L436.344 178.394ZM447.137 178.394L443.555 172.04H445.427L447.461 175.802C447.629 176.09 447.761 176.354 447.857 176.594C447.929 176.714 447.989 176.834 448.037 176.954H448.091C448.139 176.846 448.199 176.726 448.271 176.594L448.667 175.802L450.737 172.04H452.519L448.937 178.286L452.717 185H450.863L448.613 180.878L448.217 180.086C448.145 179.954 448.085 179.828 448.037 179.708H447.983C447.935 179.828 447.881 179.954 447.821 180.086C447.761 180.194 447.695 180.32 447.623 180.464C447.563 180.596 447.497 180.728 447.425 180.86L445.157 185H443.357L447.137 178.394ZM457.93 178.394L454.348 172.04H456.22L458.254 175.802C458.422 176.09 458.554 176.354 458.65 176.594C458.722 176.714 458.782 176.834 458.83 176.954H458.884C458.932 176.846 458.992 176.726 459.064 176.594L459.46 175.802L461.53 172.04H463.312L459.73 178.286L463.51 185H461.656L459.406 180.878L459.01 180.086C458.938 179.954 458.878 179.828 458.83 179.708H458.776C458.728 179.828 458.674 179.954 458.614 180.086C458.554 180.194 458.488 180.32 458.416 180.464C458.356 180.596 458.29 180.728 458.218 180.86L455.95 185H454.15L457.93 178.394ZM468.795 183.578V173.462H465.933V172.04H473.313V173.462H470.451V183.578H473.313V185H465.933V183.578H468.795ZM479.588 183.578V173.462H476.726V172.04H484.106V173.462H481.244V183.578H484.106V185H476.726V183.578H479.588ZM498.402 178.34H505.602V179.78H498.402V178.34ZM522.688 178.394L519.106 172.04H520.978L523.012 175.802C523.18 176.09 523.312 176.354 523.408 176.594C523.48 176.714 523.54 176.834 523.588 176.954H523.642C523.69 176.846 523.75 176.726 523.822 176.594L524.218 175.802L526.288 172.04H528.07L524.488 178.286L528.268 185H526.414L524.164 180.878L523.768 180.086C523.696 179.954 523.636 179.828 523.588 179.708H523.534C523.486 179.828 523.432 179.954 523.372 180.086C523.312 180.194 523.246 180.32 523.174 180.464C523.114 180.596 523.048 180.728 522.976 180.86L520.708 185H518.908L522.688 178.394ZM533.48 178.394L529.898 172.04H531.77L533.804 175.802C533.972 176.09 534.104 176.354 534.2 176.594C534.272 176.714 534.332 176.834 534.38 176.954H534.434C534.482 176.846 534.542 176.726 534.614 176.594L535.01 175.802L537.08 172.04H538.862L535.28 178.286L539.06 185H537.206L534.956 180.878L534.56 180.086C534.488 179.954 534.428 179.828 534.38 179.708H534.326C534.278 179.828 534.224 179.954 534.164 180.086C534.104 180.194 534.038 180.32 533.966 180.464C533.906 180.596 533.84 180.728 533.768 180.86L531.5 185H529.7L533.48 178.394ZM544.345 183.578V173.462H541.483V172.04H548.863V173.462H546.001V183.578H548.863V185H541.483V183.578H544.345ZM555.138 183.578V173.462H552.276V172.04H559.656V173.462H556.794V183.578H559.656V185H552.276V183.578H555.138ZM573.952 178.34H581.152V179.78H573.952V178.34ZM598.238 178.394L594.656 172.04H596.528L598.562 175.802C598.73 176.09 598.862 176.354 598.958 176.594C599.03 176.714 599.09 176.834 599.138 176.954H599.192C599.24 176.846 599.3 176.726 599.372 176.594L599.768 175.802L601.838 172.04H603.62L600.038 178.286L603.818 185H601.964L599.714 180.878L599.318 180.086C599.246 179.954 599.186 179.828 599.138 179.708H599.084C599.036 179.828 598.982 179.954 598.922 180.086C598.862 180.194 598.796 180.32 598.724 180.464C598.664 180.596 598.598 180.728 598.526 180.86L596.258 185H594.458L598.238 178.394ZM609.031 178.394L605.449 172.04H607.321L609.355 175.802C609.523 176.09 609.655 176.354 609.751 176.594C609.823 176.714 609.883 176.834 609.931 176.954H609.985C610.033 176.846 610.093 176.726 610.165 176.594L610.561 175.802L612.631 172.04H614.413L610.831 178.286L614.611 185H612.757L610.507 180.878L610.111 180.086C610.039 179.954 609.979 179.828 609.931 179.708H609.877C609.829 179.828 609.775 179.954 609.715 180.086C609.655 180.194 609.589 180.32 609.517 180.464C609.457 180.596 609.391 180.728 609.319 180.86L607.051 185H605.251L609.031 178.394ZM619.896 183.578V173.462H617.034V172.04H624.414V173.462H621.552V183.578H624.414V185H617.034V183.578H619.896ZM626.909 172.04H628.637L631.121 182.174C631.181 182.426 631.235 182.66 631.283 182.876C631.331 183.08 631.367 183.26 631.391 183.416C631.415 183.608 631.439 183.776 631.463 183.92H631.535C631.559 183.776 631.589 183.608 631.625 183.416C631.649 183.26 631.685 183.08 631.733 182.876C631.781 182.66 631.835 182.426 631.895 182.174L634.433 172.04H636.125L632.597 185H630.329L626.909 172.04Z" fill="white"/>
</svg>
