<svg width="657" height="319" viewBox="0 0 657 319" fill="none" xmlns="http://www.w3.org/2000/svg">
<path d="M165.855 91.6667C162.829 91.7805 159.831 92.3045 156.945 93.2242C155.201 93.739 153.426 94.1414 151.631 94.4287C150.908 90.3875 148.788 86.7288 145.641 84.0916C142.495 81.4544 138.522 80.0062 134.417 80V85.8333C136.943 85.8419 139.398 86.6716 141.411 88.1973C143.425 89.723 144.887 91.862 145.579 94.2917C143.993 94.0018 142.419 93.6466 140.863 93.2271C137.85 92.3212 134.736 91.797 131.593 91.6667C120.737 91.6667 114 100.606 114 115C114 136.904 125.865 149.997 137.333 150H137.339C139.844 149.867 142.304 149.284 144.602 148.279C145.996 147.653 147.48 147.25 149 147.083C150.522 147.249 152.01 147.653 153.407 148.279C155.704 149.284 158.163 149.867 160.667 150C172.129 149.997 184 136.904 184 115C184 104.238 179.246 91.6667 165.855 91.6667ZM160.667 144.167C158.863 144.013 157.097 143.556 155.446 142.813C153.407 141.913 151.225 141.383 149 141.25C146.779 141.384 144.6 141.913 142.566 142.813C140.91 143.555 139.141 144.013 137.333 144.167H137.339C128.735 144.164 119.833 133.255 119.833 115C119.833 109.738 120.98 97.5 131.593 97.5C134.245 97.6415 136.87 98.1047 139.41 98.8796C142.303 99.7449 145.29 100.261 148.306 100.417H149.738C152.706 100.275 155.643 99.7496 158.476 98.8533C160.866 98.0816 163.347 97.6266 165.855 97.5C177.572 97.5 178.167 112.078 178.167 115C178.167 133.255 169.265 144.164 160.667 144.167Z" fill="white"/>
<path d="M255.855 91.6667C252.829 91.7805 249.831 92.3045 246.945 93.2242C245.201 93.739 243.426 94.1414 241.631 94.4287C240.908 90.3875 238.788 86.7288 235.641 84.0916C232.495 81.4544 228.522 80.0062 224.417 80V85.8333C226.943 85.8419 229.398 86.6716 231.411 88.1973C233.425 89.723 234.887 91.862 235.579 94.2917C233.993 94.0018 232.419 93.6466 230.863 93.2271C227.85 92.3212 224.736 91.797 221.593 91.6667C210.737 91.6667 204 100.606 204 115C204 136.904 215.865 149.997 227.333 150H227.339C229.844 149.867 232.304 149.284 234.602 148.279C235.996 147.653 237.48 147.25 239 147.083C240.522 147.249 242.01 147.653 243.407 148.279C245.704 149.284 248.163 149.867 250.667 150C262.129 149.997 274 136.904 274 115C274 104.238 269.246 91.6667 255.855 91.6667ZM250.667 144.167C248.863 144.013 247.097 143.556 245.446 142.813C243.407 141.913 241.225 141.383 239 141.25C236.779 141.384 234.6 141.913 232.566 142.813C230.91 143.555 229.141 144.013 227.333 144.167H227.339C218.735 144.164 209.833 133.255 209.833 115C209.833 109.738 210.98 97.5 221.593 97.5C224.245 97.6415 226.87 98.1047 229.41 98.8796C232.303 99.7449 235.29 100.261 238.306 100.417H239.738C242.706 100.275 245.643 99.7496 248.476 98.8533C250.866 98.0816 253.347 97.6266 255.855 97.5C267.572 97.5 268.167 112.078 268.167 115C268.167 133.255 259.265 144.164 250.667 144.167Z" fill="white"/>
<path d="M345.855 91.6667C342.829 91.7805 339.831 92.3045 336.945 93.2242C335.201 93.739 333.426 94.1414 331.631 94.4287C330.908 90.3875 328.788 86.7288 325.641 84.0916C322.495 81.4544 318.522 80.0062 314.417 80V85.8333C316.943 85.8419 319.398 86.6716 321.411 88.1973C323.425 89.723 324.887 91.862 325.579 94.2917C323.993 94.0018 322.419 93.6466 320.863 93.2271C317.85 92.3212 314.736 91.797 311.593 91.6667C300.737 91.6667 294 100.606 294 115C294 136.904 305.865 149.997 317.333 150H317.339C319.844 149.867 322.304 149.284 324.602 148.279C325.996 147.653 327.48 147.25 329 147.083C330.522 147.249 332.01 147.653 333.407 148.279C335.704 149.284 338.163 149.867 340.667 150C352.129 149.997 364 136.904 364 115C364 104.238 359.246 91.6667 345.855 91.6667ZM340.667 144.167C338.863 144.013 337.097 143.556 335.446 142.813C333.407 141.913 331.225 141.383 329 141.25C326.779 141.384 324.6 141.913 322.566 142.813C320.91 143.555 319.141 144.013 317.333 144.167H317.339C308.735 144.164 299.833 133.255 299.833 115C299.833 109.738 300.98 97.5 311.593 97.5C314.245 97.6415 316.87 98.1047 319.41 98.8796C322.303 99.7449 325.29 100.261 328.306 100.417H329.738C332.706 100.275 335.643 99.7496 338.476 98.8533C340.866 98.0816 343.347 97.6266 345.855 97.5C357.572 97.5 358.167 112.078 358.167 115C358.167 133.255 349.265 144.164 340.667 144.167Z" fill="white"/>
<path d="M435.855 91.6667C432.829 91.7805 429.831 92.3045 426.945 93.2242C425.201 93.739 423.426 94.1414 421.631 94.4287C420.908 90.3875 418.788 86.7288 415.641 84.0916C412.495 81.4544 408.522 80.0062 404.417 80V85.8333C406.943 85.8419 409.398 86.6716 411.411 88.1973C413.425 89.723 414.887 91.862 415.579 94.2917C413.993 94.0018 412.419 93.6466 410.863 93.2271C407.85 92.3212 404.736 91.797 401.593 91.6667C390.737 91.6667 384 100.606 384 115C384 136.904 395.865 149.997 407.333 150H407.339C409.844 149.867 412.304 149.284 414.602 148.279C415.996 147.653 417.48 147.25 419 147.083C420.522 147.249 422.01 147.653 423.407 148.279C425.704 149.284 428.163 149.867 430.667 150C442.129 149.997 454 136.904 454 115C454 104.238 449.246 91.6667 435.855 91.6667ZM430.667 144.167C428.863 144.013 427.097 143.556 425.446 142.813C423.407 141.913 421.225 141.383 419 141.25C416.779 141.384 414.6 141.913 412.566 142.813C410.91 143.555 409.141 144.013 407.333 144.167H407.339C398.735 144.164 389.833 133.255 389.833 115C389.833 109.738 390.98 97.5 401.593 97.5C404.245 97.6415 406.87 98.1047 409.41 98.8796C412.303 99.7449 415.29 100.261 418.306 100.417H419.738C422.706 100.275 425.643 99.7496 428.476 98.8533C430.866 98.0816 433.347 97.6266 435.855 97.5C447.572 97.5 448.167 112.078 448.167 115C448.167 133.255 439.265 144.164 430.667 144.167Z" fill="white"/>
<path d="M525.855 91.6667C522.829 91.7805 519.831 92.3045 516.945 93.2242C515.201 93.739 513.426 94.1414 511.631 94.4287C510.908 90.3875 508.788 86.7288 505.641 84.0916C502.495 81.4544 498.522 80.0062 494.417 80V85.8333C496.943 85.8419 499.398 86.6716 501.411 88.1973C503.425 89.723 504.887 91.862 505.579 94.2917C503.993 94.0018 502.419 93.6466 500.863 93.2271C497.85 92.3212 494.736 91.797 491.593 91.6667C480.737 91.6667 474 100.606 474 115C474 136.904 485.865 149.997 497.333 150H497.339C499.844 149.867 502.304 149.284 504.602 148.279C505.996 147.653 507.48 147.25 509 147.083C510.522 147.249 512.01 147.653 513.407 148.279C515.704 149.284 518.163 149.867 520.667 150C532.129 149.997 544 136.904 544 115C544 104.238 539.246 91.6667 525.855 91.6667ZM520.667 144.167C518.863 144.013 517.097 143.556 515.446 142.813C513.407 141.913 511.225 141.383 509 141.25C506.779 141.384 504.6 141.913 502.566 142.813C500.91 143.555 499.141 144.013 497.333 144.167H497.339C488.735 144.164 479.833 133.255 479.833 115C479.833 109.738 480.98 97.5 491.593 97.5C494.245 97.6415 496.87 98.1047 499.41 98.8796C502.303 99.7449 505.29 100.261 508.306 100.417H509.738C512.706 100.275 515.643 99.7496 518.476 98.8533C520.866 98.0816 523.347 97.6266 525.855 97.5C537.572 97.5 538.167 112.078 538.167 115C538.167 133.255 529.265 144.164 520.667 144.167Z" fill="white"/>
<path d="M154 89H151V86C151.002 84.4092 151.634 82.884 152.759 81.7591C153.884 80.6342 155.409 80.0016 157 80H160V83C159.998 84.5908 159.366 86.116 158.241 87.2409C157.116 88.3658 155.591 88.9984 154 89V89Z" fill="white"/>
<path d="M244 89H241V86C241.002 84.4092 241.634 82.884 242.759 81.7591C243.884 80.6342 245.409 80.0016 247 80H250V83C249.998 84.5908 249.366 86.116 248.241 87.2409C247.116 88.3658 245.591 88.9984 244 89V89Z" fill="white"/>
<path d="M334 89H331V86C331.002 84.4092 331.634 82.884 332.759 81.7591C333.884 80.6342 335.409 80.0016 337 80H340V83C339.998 84.5908 339.366 86.116 338.241 87.2409C337.116 88.3658 335.591 88.9984 334 89V89Z" fill="white"/>
<path d="M424 89H421V86C421.002 84.4092 421.634 82.884 422.759 81.7591C423.884 80.6342 425.409 80.0016 427 80H430V83C429.998 84.5908 429.366 86.116 428.241 87.2409C427.116 88.3658 425.591 88.9984 424 89V89Z" fill="white"/>
<path d="M514 89H511V86C511.002 84.4092 511.634 82.884 512.759 81.7591C513.884 80.6342 515.409 80.0016 517 80H520V83C519.998 84.5908 519.366 86.116 518.241 87.2409C517.116 88.3658 515.591 88.9984 514 89V89Z" fill="white"/>
<path d="M193.5 213C196.304 213 198.993 214.117 200.975 216.105C202.958 218.093 204.071 220.789 204.071 223.6C204.071 226.411 202.958 229.107 200.975 231.095C198.993 233.083 196.304 234.2 193.5 234.2C190.696 234.2 188.007 233.083 186.025 231.095C184.042 229.107 182.929 226.411 182.929 223.6C182.929 220.789 184.042 218.093 186.025 216.105C188.007 214.117 190.696 213 193.5 213ZM185.571 239.5H201.429C204.232 239.5 206.921 240.617 208.904 242.605C210.886 244.593 212 247.289 212 250.1V279.25H204.071V319H182.929V279.25H175V250.1C175 247.289 176.114 244.593 178.096 242.605C180.079 240.617 182.768 239.5 185.571 239.5Z" fill="white"/>
<path d="M373.5 213C376.304 213 378.993 214.117 380.975 216.105C382.958 218.093 384.071 220.789 384.071 223.6C384.071 226.411 382.958 229.107 380.975 231.095C378.993 233.083 376.304 234.2 373.5 234.2C370.696 234.2 368.007 233.083 366.025 231.095C364.042 229.107 362.929 226.411 362.929 223.6C362.929 220.789 364.042 218.093 366.025 216.105C368.007 214.117 370.696 213 373.5 213ZM365.571 239.5H381.429C384.232 239.5 386.921 240.617 388.904 242.605C390.886 244.593 392 247.289 392 250.1V279.25H384.071V319H362.929V279.25H355V250.1C355 247.289 356.114 244.593 358.096 242.605C360.079 240.617 362.768 239.5 365.571 239.5Z" fill="white"/>
<path d="M114 156V160.651C114 165.467 114.333 169.121 114.833 171.114C115.833 174.768 117.667 177.758 120 180.083C122.333 182.242 125.333 184.069 129.333 185.232C133.333 186.228 140 186.893 149 186.893C158.167 187.059 164.167 187.059 166.5 187.225C171.833 187.557 175.833 188.388 178.667 189.716C181.333 191.045 183.667 193.204 185.333 195.862C186.5 197.855 187.167 200.678 187.333 204H200.833C201 199.848 202.167 196.692 204 194.201C206 191.543 208.667 189.55 212.5 188.554C216.167 187.557 223 186.893 233.167 186.893C243.167 186.893 249.833 186.561 253.5 186.062C258.833 185.398 263 183.903 266 181.744C269 179.419 271.333 176.595 272.667 172.775C273.667 170.284 274 166.298 274 160.651V156H261.167C261.167 161.481 260.667 165.135 260 166.796C259.333 168.457 258.5 169.619 257.5 170.284C255.833 171.446 253.5 172.277 250.5 172.609C248.667 172.775 242.333 172.941 231.5 172.941C219.5 172.941 211.167 174.27 205.833 176.927C200.5 179.585 196.5 184.069 194 190.215C191.5 184.734 188.5 180.747 184.667 178.422C181 175.931 175.833 174.104 169 173.439C165.333 173.107 157.167 172.941 144.167 172.941C137 172.941 132.333 171.779 130.167 169.952C128.167 168.125 127.167 164.471 127.167 158.657V156H114Z" fill="#FEFFCD"/>
<path d="M294 156V160.651C294 165.467 294.333 169.121 294.833 171.114C295.833 174.768 297.667 177.758 300 180.083C302.333 182.242 305.333 184.069 309.333 185.232C313.333 186.228 320 186.893 329 186.893C338.167 187.059 344.167 187.059 346.5 187.225C351.833 187.557 355.833 188.388 358.667 189.716C361.333 191.045 363.667 193.204 365.333 195.862C366.5 197.855 367.167 200.678 367.333 204H380.833C381 199.848 382.167 196.692 384 194.201C386 191.543 388.667 189.55 392.5 188.554C396.167 187.557 403 186.893 413.167 186.893C423.167 186.893 429.833 186.561 433.5 186.062C438.833 185.398 443 183.903 446 181.744C449 179.419 451.333 176.595 452.667 172.775C453.667 170.284 454 166.298 454 160.651V156H441.167C441.167 161.481 440.667 165.135 440 166.796C439.333 168.457 438.5 169.619 437.5 170.284C435.833 171.446 433.5 172.277 430.5 172.609C428.667 172.775 422.333 172.941 411.5 172.941C399.5 172.941 391.167 174.27 385.833 176.927C380.5 179.585 376.5 184.069 374 190.215C371.5 184.734 368.5 180.747 364.667 178.422C361 175.931 355.833 174.104 349 173.439C345.333 173.107 337.167 172.941 324.167 172.941C317 172.941 312.333 171.779 310.167 169.952C308.167 168.125 307.167 164.471 307.167 158.657V156H294Z" fill="#FEFFCD"/>
<path d="M20.3125 16.0234V15.9297H2.10156V12.1797H24.4844V16.0938L9.4375 46H5.00781L20.3125 16.0234ZM51.0391 46H30.0859V12.1797H51.0391V15.9766H34.3047V26.8281H50.1719V30.5781H34.3047V42.2031H51.0391V46ZM72.3906 38.9688H55.3984V35.1484C58.0859 30.1641 63.0312 22.5078 70.2344 12.1797H76.4688V35.2656H81.25V38.9688H76.4688V46H72.3906V38.9688ZM59.5703 35.2656H72.3906V15.6953H72.3203C66.3984 24.1484 62.1484 30.6406 59.5703 35.1719V35.2656Z" fill="#FEFFCD"/>
<path d="M498.289 111.016C498.43 108.344 499.344 106.195 501.031 104.57C502.859 102.805 505.352 101.922 508.508 101.922C511.43 101.922 513.828 102.734 515.703 104.359C517.531 105.953 518.445 107.969 518.445 110.406C518.445 113.828 516.812 116.523 513.547 118.492C512.078 119.367 511.07 120.203 510.523 121C509.992 121.766 509.727 122.773 509.727 124.023V125.547H505.625V123.391C505.609 120.531 507.172 118.156 510.312 116.266C511.688 115.422 512.656 114.586 513.219 113.758C513.797 112.898 514.086 111.852 514.086 110.617C514.086 109.148 513.562 107.945 512.516 107.008C511.453 106.055 510.062 105.578 508.344 105.578C506.578 105.578 505.164 106.062 504.102 107.031C503.023 108 502.422 109.328 502.297 111.016H498.289ZM507.688 136.234C506.938 136.234 506.305 135.977 505.789 135.461C505.273 134.945 505.016 134.312 505.016 133.562C505.016 132.797 505.273 132.164 505.789 131.664C506.305 131.148 506.938 130.891 507.688 130.891C508.453 130.891 509.086 131.148 509.586 131.664C510.102 132.164 510.359 132.797 510.359 133.562C510.359 134.312 510.102 134.945 509.586 135.461C509.086 135.977 508.453 136.234 507.688 136.234Z" fill="#FEFFCD"/>
<path d="M582.016 26.8281H586.07C588.008 26.8281 589.594 26.2656 590.828 25.1406C592.062 24.0312 592.68 22.6172 592.68 20.8984C592.68 19.1797 592.125 17.8203 591.016 16.8203C589.844 15.7891 588.211 15.2734 586.117 15.2734C584.18 15.2734 582.602 15.7891 581.383 16.8203C580.164 17.8516 579.461 19.2578 579.273 21.0391H575.219C575.453 18.1641 576.562 15.875 578.547 14.1719C580.547 12.4687 583.133 11.6172 586.305 11.6172C589.352 11.6172 591.875 12.4375 593.875 14.0781C595.906 15.7188 596.922 17.8047 596.922 20.3359C596.922 22.4453 596.297 24.2188 595.047 25.6562C593.797 27.0938 592.109 28 589.984 28.375V28.4688C592.547 28.625 594.586 29.4375 596.102 30.9062C597.617 32.3906 598.375 34.3203 598.375 36.6953C598.375 39.5703 597.219 41.9375 594.906 43.7969C592.625 45.6406 589.805 46.5625 586.445 46.5625C582.945 46.5625 580.117 45.6797 577.961 43.9141C575.836 42.1797 574.695 39.8906 574.539 37.0469H578.594C578.781 38.8125 579.562 40.2188 580.938 41.2656C582.344 42.3594 584.164 42.9062 586.398 42.9062C588.633 42.9062 590.477 42.3359 591.93 41.1953C593.367 40.0547 594.086 38.6016 594.086 36.8359C594.086 34.8516 593.383 33.2812 591.977 32.125C590.586 30.9688 588.68 30.3906 586.258 30.3906H582.016V26.8281ZM625.258 46H604.305V12.1797H625.258V15.9766H608.523V26.8281H624.391V30.5781H608.523V42.2031H625.258V46ZM642.156 46.5625C638.578 46.5625 635.641 45.6484 633.344 43.8203C631.047 42.0078 629.898 39.6875 629.898 36.8594C629.898 34.75 630.562 32.8984 631.891 31.3047C633.219 29.7109 634.977 28.6641 637.164 28.1641V28.0703C635.336 27.5078 633.891 26.5469 632.828 25.1875C631.766 23.8438 631.234 22.2812 631.234 20.5C631.234 17.9531 632.273 15.8359 634.352 14.1484C636.414 12.4609 639.016 11.6172 642.156 11.6172C645.312 11.6172 647.922 12.4531 649.984 14.125C652.031 15.8125 653.055 17.9453 653.055 20.5234C653.055 22.2891 652.531 23.8359 651.484 25.1641C650.438 26.5234 648.992 27.4922 647.148 28.0703V28.1641C649.336 28.6797 651.102 29.7344 652.445 31.3281C653.773 32.9219 654.438 34.7656 654.438 36.8594C654.438 39.6875 653.289 42.0156 650.992 43.8438C648.695 45.6562 645.75 46.5625 642.156 46.5625ZM642.156 42.8828C644.484 42.8828 646.398 42.2891 647.898 41.1016C649.383 39.9141 650.125 38.3984 650.125 36.5547C650.125 34.6953 649.383 33.1719 647.898 31.9844C646.398 30.7969 644.484 30.2031 642.156 30.2031C639.828 30.2031 637.922 30.7969 636.438 31.9844C634.938 33.1875 634.188 34.7109 634.188 36.5547C634.188 38.3984 634.938 39.9141 636.438 41.1016C637.938 42.2891 639.844 42.8828 642.156 42.8828ZM642.156 26.5C644.125 26.5 645.742 25.9766 647.008 24.9297C648.258 23.8828 648.883 22.5391 648.883 20.8984C648.883 19.2422 648.258 17.8828 647.008 16.8203C645.758 15.7734 644.141 15.25 642.156 15.25C640.172 15.25 638.555 15.7813 637.305 16.8438C636.055 17.8906 635.43 19.2422 635.43 20.8984C635.43 22.5391 636.055 23.8828 637.305 24.9297C638.555 25.9766 640.172 26.5 642.156 26.5Z" fill="#FEFFCD"/>
</svg>
