<svg width="156" height="205" viewBox="0 0 156 205" fill="none" xmlns="http://www.w3.org/2000/svg">
<path d="M8.96538 5.72H11.3174L4.30938 16.4V17.36H9.94938V13.16H12.1094V23H9.94938V19.28H2.14938V16.16L8.96538 5.72ZM18.58 19.4C18.74 19.976 19.084 20.44 19.612 20.792C20.156 21.144 20.844 21.32 21.676 21.32C22.652 21.32 23.428 21.04 24.004 20.48C24.58 19.92 24.868 19.16 24.868 18.2V17C24.868 16.04 24.58 15.28 24.004 14.72C23.428 14.16 22.644 13.88 21.652 13.88C20.42 13.88 19.508 14.32 18.916 15.2H16.708L16.828 5.72H26.332V7.688H18.916L18.844 13.784H18.988C19.132 13.448 19.356 13.144 19.66 12.872C19.916 12.648 20.26 12.44 20.692 12.248C21.14 12.056 21.724 11.96 22.444 11.96C23.9 11.96 25.036 12.416 25.852 13.328C26.684 14.224 27.1 15.448 27.1 17V18.2C27.1 18.968 26.972 19.664 26.716 20.288C26.46 20.912 26.092 21.44 25.612 21.872C25.148 22.304 24.58 22.64 23.908 22.88C23.236 23.12 22.484 23.24 21.652 23.24C20.18 23.24 18.972 22.896 18.028 22.208C17.084 21.504 16.508 20.568 16.3 19.4H18.58ZM8.86469 45.28C8.89669 44.56 9.04869 43.904 9.32069 43.312C9.59269 42.72 9.96869 42.216 10.4487 41.8C10.9447 41.384 11.5207 41.064 12.1767 40.84C12.8487 40.6 13.5927 40.48 14.4087 40.48C15.2087 40.48 15.9287 40.592 16.5687 40.816C17.2087 41.04 17.7527 41.36 18.2007 41.776C18.6487 42.192 18.9927 42.696 19.2327 43.288C19.4887 43.88 19.6167 44.544 19.6167 45.28C19.6167 46.576 19.2567 47.832 18.5367 49.048C17.8327 50.248 16.7047 51.52 15.1527 52.864L12.2487 55.384C12.1687 55.448 12.0807 55.512 11.9847 55.576C11.8887 55.64 11.7927 55.704 11.6967 55.768C11.5687 55.848 11.4487 55.92 11.3367 55.984V56.08C11.5927 56.064 11.8407 56.056 12.0807 56.056C12.3047 56.04 12.5287 56.032 12.7527 56.032C12.9927 56.032 13.2087 56.032 13.4007 56.032H19.7847V58H8.98469V55.6L13.5447 51.688C14.2327 51.096 14.8167 50.536 15.2967 50.008C15.7927 49.48 16.1927 48.96 16.4967 48.448C16.8007 47.936 17.0247 47.424 17.1687 46.912C17.3127 46.4 17.3847 45.864 17.3847 45.304C17.3847 44.408 17.1127 43.704 16.5687 43.192C16.0407 42.664 15.3207 42.4 14.4087 42.4C13.4007 42.4 12.5927 42.664 11.9847 43.192C11.3927 43.72 11.0967 44.416 11.0967 45.28H8.86469ZM1.66938 80.28C1.70138 79.56 1.85338 78.904 2.12538 78.312C2.39738 77.72 2.77338 77.216 3.25338 76.8C3.74938 76.384 4.32538 76.064 4.98138 75.84C5.65338 75.6 6.39738 75.48 7.21338 75.48C8.01338 75.48 8.73338 75.592 9.37338 75.816C10.0134 76.04 10.5574 76.36 11.0054 76.776C11.4534 77.192 11.7974 77.696 12.0374 78.288C12.2934 78.88 12.4214 79.544 12.4214 80.28C12.4214 81.576 12.0614 82.832 11.3414 84.048C10.6374 85.248 9.50938 86.52 7.95738 87.864L5.05338 90.384C4.97338 90.448 4.88538 90.512 4.78938 90.576C4.69338 90.64 4.59738 90.704 4.50138 90.768C4.37338 90.848 4.25338 90.92 4.14138 90.984V91.08C4.39738 91.064 4.64538 91.056 4.88538 91.056C5.10938 91.04 5.33338 91.032 5.55738 91.032C5.79738 91.032 6.01338 91.032 6.20538 91.032H12.5894V93H1.78938V90.6L6.34938 86.688C7.03738 86.096 7.62138 85.536 8.10138 85.008C8.59738 84.48 8.99738 83.96 9.30138 83.448C9.60538 82.936 9.82938 82.424 9.97338 81.912C10.1174 81.4 10.1894 80.864 10.1894 80.304C10.1894 79.408 9.91738 78.704 9.37338 78.192C8.84538 77.664 8.12538 77.4 7.21338 77.4C6.20538 77.4 5.39738 77.664 4.78938 78.192C4.19738 78.72 3.90138 79.416 3.90138 80.28H1.66938ZM21.556 93.24C20.804 93.24 20.108 93.128 19.468 92.904C18.844 92.68 18.292 92.368 17.812 91.968C17.348 91.552 16.964 91.056 16.66 90.48C16.372 89.904 16.196 89.264 16.132 88.56H18.292C18.42 89.392 18.78 90.064 19.372 90.576C19.964 91.072 20.692 91.32 21.556 91.32C22.564 91.32 23.372 91.016 23.98 90.408C24.588 89.784 24.892 88.968 24.892 87.96C24.892 86.952 24.58 86.144 23.956 85.536C23.332 84.912 22.5 84.6 21.46 84.6H19.444V82.32L22.876 78.84C23.036 78.68 23.204 78.528 23.38 78.384C23.556 78.24 23.724 78.112 23.884 78C24.06 77.856 24.244 77.72 24.436 77.592V77.544C24.26 77.56 24.076 77.576 23.884 77.592C23.708 77.608 23.516 77.624 23.308 77.64C23.116 77.64 22.908 77.64 22.684 77.64H16.66V75.72H26.26V78.12L22.204 81.984C22.108 82.08 22.012 82.168 21.916 82.248C21.82 82.328 21.732 82.4 21.652 82.464C21.572 82.544 21.492 82.616 21.412 82.68C22.276 82.68 23.052 82.808 23.74 83.064C24.444 83.304 25.036 83.656 25.516 84.12C26.012 84.568 26.396 85.12 26.668 85.776C26.94 86.432 27.076 87.16 27.076 87.96C27.076 88.776 26.948 89.512 26.692 90.168C26.436 90.808 26.068 91.36 25.588 91.824C25.108 92.272 24.524 92.624 23.836 92.88C23.164 93.12 22.404 93.24 21.556 93.24ZM2.26938 128V126.08H6.90138V113.96C6.90138 113.832 6.90138 113.688 6.90138 113.528C6.91738 113.352 6.92538 113.192 6.92538 113.048C6.92538 112.904 6.92538 112.784 6.92538 112.688C6.94138 112.576 6.94938 112.52 6.94938 112.52H6.90138C6.78938 112.616 6.67738 112.704 6.56538 112.784C6.46938 112.864 6.36538 112.944 6.25338 113.024C6.15738 113.104 6.06138 113.176 5.96538 113.24L2.58138 115.544V113.36L6.30138 110.72H9.06138V126.08H12.9494V128H2.26938ZM16.18 122.84C16.18 121.88 16.404 120.856 16.852 119.768C17.3 118.68 17.916 117.48 18.7 116.168L21.964 110.72H24.58L20.932 116.48C20.612 116.992 20.34 117.408 20.116 117.728C19.908 118.048 19.74 118.296 19.612 118.472C19.468 118.664 19.356 118.8 19.276 118.88H19.636C19.764 118.624 19.948 118.4 20.188 118.208C20.412 118.032 20.7 117.88 21.052 117.752C21.404 117.608 21.852 117.536 22.396 117.536C23.1 117.536 23.748 117.664 24.34 117.92C24.932 118.176 25.436 118.536 25.852 119C26.284 119.464 26.62 120.024 26.86 120.68C27.1 121.32 27.22 122.04 27.22 122.84C27.22 123.64 27.084 124.376 26.812 125.048C26.54 125.704 26.156 126.272 25.66 126.752C25.18 127.216 24.604 127.584 23.932 127.856C23.26 128.112 22.524 128.24 21.724 128.24C20.908 128.24 20.156 128.112 19.468 127.856C18.796 127.6 18.212 127.24 17.716 126.776C17.236 126.296 16.86 125.728 16.588 125.072C16.316 124.4 16.18 123.656 16.18 122.84ZM18.34 122.84C18.34 123.896 18.652 124.744 19.276 125.384C19.9 126.008 20.716 126.32 21.724 126.32C22.204 126.32 22.644 126.24 23.044 126.08C23.46 125.904 23.812 125.664 24.1 125.36C24.404 125.056 24.636 124.696 24.796 124.28C24.972 123.848 25.06 123.368 25.06 122.84C25.06 122.312 24.972 121.84 24.796 121.424C24.636 120.992 24.404 120.624 24.1 120.32C23.812 120.016 23.46 119.784 23.044 119.624C22.644 119.448 22.204 119.36 21.724 119.36C20.732 119.36 19.916 119.68 19.276 120.32C18.652 120.96 18.34 121.8 18.34 122.84ZM9.10469 145.72H19.9047V148.168L13.8327 163H11.4087L17.2407 149.224C17.3527 148.952 17.4487 148.728 17.5287 148.552C17.6247 148.376 17.7047 148.232 17.7687 148.12C17.8487 147.976 17.9207 147.864 17.9847 147.784V147.64C17.7287 147.656 17.4807 147.664 17.2407 147.664C17.0327 147.664 16.8167 147.672 16.5927 147.688C16.3847 147.688 16.2007 147.688 16.0407 147.688H11.2647V150.28H9.10469V145.72ZM2.26938 198V196.08H6.90138V183.96C6.90138 183.832 6.90138 183.688 6.90138 183.528C6.91738 183.352 6.92538 183.192 6.92538 183.048C6.92538 182.904 6.92538 182.784 6.92538 182.688C6.94138 182.576 6.94938 182.52 6.94938 182.52H6.90138C6.78938 182.616 6.67738 182.704 6.56538 182.784C6.46938 182.864 6.36538 182.944 6.25338 183.024C6.15738 183.104 6.06138 183.176 5.96538 183.24L2.58138 185.544V183.36L6.30138 180.72H9.06138V196.08H12.9494V198H2.26938ZM16.42 185.64C16.42 184.856 16.54 184.144 16.78 183.504C17.036 182.864 17.388 182.32 17.836 181.872C18.3 181.424 18.852 181.08 19.492 180.84C20.148 180.6 20.884 180.48 21.7 180.48C22.516 180.48 23.244 180.6 23.884 180.84C24.54 181.08 25.092 181.424 25.54 181.872C26.004 182.32 26.356 182.864 26.596 183.504C26.852 184.144 26.98 184.856 26.98 185.64V193.08C26.98 193.864 26.852 194.576 26.596 195.216C26.356 195.84 26.004 196.376 25.54 196.824C25.092 197.272 24.54 197.624 23.884 197.88C23.228 198.12 22.5 198.24 21.7 198.24C20.884 198.24 20.148 198.12 19.492 197.88C18.852 197.64 18.3 197.296 17.836 196.848C17.388 196.4 17.036 195.856 16.78 195.216C16.54 194.576 16.42 193.864 16.42 193.08V185.64ZM18.58 193.08C18.58 194.072 18.86 194.864 19.42 195.456C19.98 196.032 20.74 196.32 21.7 196.32C22.66 196.32 23.42 196.032 23.98 195.456C24.54 194.864 24.82 194.072 24.82 193.08V185.64C24.82 184.648 24.54 183.864 23.98 183.288C23.42 182.696 22.66 182.4 21.7 182.4C20.74 182.4 19.98 182.696 19.42 183.288C18.86 183.864 18.58 184.648 18.58 185.64V193.08ZM20.5 187.56C20.5 187.16 20.604 186.84 20.812 186.6C21.036 186.36 21.332 186.24 21.7 186.24C22.068 186.24 22.356 186.36 22.564 186.6C22.788 186.84 22.9 187.16 22.9 187.56V191.4C22.9 191.8 22.788 192.12 22.564 192.36C22.356 192.6 22.068 192.72 21.7 192.72C21.332 192.72 21.036 192.6 20.812 192.36C20.604 192.12 20.5 191.8 20.5 191.4V187.56Z" fill="white"/>
<path d="M54.9847 17.84C54.9847 16.88 55.2087 15.856 55.6567 14.768C56.1047 13.68 56.7207 12.48 57.5047 11.168L60.7687 5.72H63.3847L59.7367 11.48C59.4167 11.992 59.1447 12.408 58.9207 12.728C58.7127 13.048 58.5447 13.296 58.4167 13.472C58.2727 13.664 58.1607 13.8 58.0807 13.88H58.4407C58.5687 13.624 58.7527 13.4 58.9927 13.208C59.2167 13.032 59.5047 12.88 59.8567 12.752C60.2087 12.608 60.6567 12.536 61.2007 12.536C61.9047 12.536 62.5527 12.664 63.1447 12.92C63.7367 13.176 64.2407 13.536 64.6567 14C65.0887 14.464 65.4247 15.024 65.6647 15.68C65.9047 16.32 66.0247 17.04 66.0247 17.84C66.0247 18.64 65.8887 19.376 65.6167 20.048C65.3447 20.704 64.9607 21.272 64.4647 21.752C63.9847 22.216 63.4087 22.584 62.7367 22.856C62.0647 23.112 61.3287 23.24 60.5287 23.24C59.7127 23.24 58.9607 23.112 58.2727 22.856C57.6007 22.6 57.0167 22.24 56.5207 21.776C56.0407 21.296 55.6647 20.728 55.3927 20.072C55.1207 19.4 54.9847 18.656 54.9847 17.84ZM57.1447 17.84C57.1447 18.896 57.4567 19.744 58.0807 20.384C58.7047 21.008 59.5207 21.32 60.5287 21.32C61.0087 21.32 61.4487 21.24 61.8487 21.08C62.2647 20.904 62.6167 20.664 62.9047 20.36C63.2087 20.056 63.4407 19.696 63.6007 19.28C63.7767 18.848 63.8647 18.368 63.8647 17.84C63.8647 17.312 63.7767 16.84 63.6007 16.424C63.4407 15.992 63.2087 15.624 62.9047 15.32C62.6167 15.016 62.2647 14.784 61.8487 14.624C61.4487 14.448 61.0087 14.36 60.5287 14.36C59.5367 14.36 58.7207 14.68 58.0807 15.32C57.4567 15.96 57.1447 16.8 57.1447 17.84ZM48.2694 58V56.08H52.9014V43.96C52.9014 43.832 52.9014 43.688 52.9014 43.528C52.9174 43.352 52.9254 43.192 52.9254 43.048C52.9254 42.904 52.9254 42.784 52.9254 42.688C52.9414 42.576 52.9494 42.52 52.9494 42.52H52.9014C52.7894 42.616 52.6774 42.704 52.5654 42.784C52.4694 42.864 52.3654 42.944 52.2534 43.024C52.1574 43.104 52.0614 43.176 51.9654 43.24L48.5814 45.544V43.36L52.3014 40.72H55.0614V56.08H58.9494V58H48.2694ZM62.66 58V56.08H67.292V43.96C67.292 43.832 67.292 43.688 67.292 43.528C67.308 43.352 67.316 43.192 67.316 43.048C67.316 42.904 67.316 42.784 67.316 42.688C67.332 42.576 67.34 42.52 67.34 42.52H67.292C67.18 42.616 67.068 42.704 66.956 42.784C66.86 42.864 66.756 42.944 66.644 43.024C66.548 43.104 66.452 43.176 66.356 43.24L62.972 45.544V43.36L66.692 40.72H69.452V56.08H73.34V58H62.66ZM54.9654 75.72H57.3174L50.3094 86.4V87.36H55.9494V83.16H58.1094V93H55.9494V89.28H48.1494V86.16L54.9654 75.72ZM62.06 80.28C62.092 79.56 62.244 78.904 62.516 78.312C62.788 77.72 63.164 77.216 63.644 76.8C64.14 76.384 64.716 76.064 65.372 75.84C66.044 75.6 66.788 75.48 67.604 75.48C68.404 75.48 69.124 75.592 69.764 75.816C70.404 76.04 70.948 76.36 71.396 76.776C71.844 77.192 72.188 77.696 72.428 78.288C72.684 78.88 72.812 79.544 72.812 80.28C72.812 81.576 72.452 82.832 71.732 84.048C71.028 85.248 69.9 86.52 68.348 87.864L65.444 90.384C65.364 90.448 65.276 90.512 65.18 90.576C65.084 90.64 64.988 90.704 64.892 90.768C64.764 90.848 64.644 90.92 64.532 90.984V91.08C64.788 91.064 65.036 91.056 65.276 91.056C65.5 91.04 65.724 91.032 65.948 91.032C66.188 91.032 66.404 91.032 66.596 91.032H72.98V93H62.18V90.6L66.74 86.688C67.428 86.096 68.012 85.536 68.492 85.008C68.988 84.48 69.388 83.96 69.692 83.448C69.996 82.936 70.22 82.424 70.364 81.912C70.508 81.4 70.58 80.864 70.58 80.304C70.58 79.408 70.308 78.704 69.764 78.192C69.236 77.664 68.516 77.4 67.604 77.4C66.596 77.4 65.788 77.664 65.18 78.192C64.588 78.72 64.292 79.416 64.292 80.28H62.06ZM48.2694 128V126.08H52.9014V113.96C52.9014 113.832 52.9014 113.688 52.9014 113.528C52.9174 113.352 52.9254 113.192 52.9254 113.048C52.9254 112.904 52.9254 112.784 52.9254 112.688C52.9414 112.576 52.9494 112.52 52.9494 112.52H52.9014C52.7894 112.616 52.6774 112.704 52.5654 112.784C52.4694 112.864 52.3654 112.944 52.2534 113.024C52.1574 113.104 52.0614 113.176 51.9654 113.24L48.5814 115.544V113.36L52.3014 110.72H55.0614V126.08H58.9494V128H48.2694ZM62.18 122.84C62.18 121.88 62.404 120.856 62.852 119.768C63.3 118.68 63.916 117.48 64.7 116.168L67.964 110.72H70.58L66.932 116.48C66.612 116.992 66.34 117.408 66.116 117.728C65.908 118.048 65.74 118.296 65.612 118.472C65.468 118.664 65.356 118.8 65.276 118.88H65.636C65.764 118.624 65.948 118.4 66.188 118.208C66.412 118.032 66.7 117.88 67.052 117.752C67.404 117.608 67.852 117.536 68.396 117.536C69.1 117.536 69.748 117.664 70.34 117.92C70.932 118.176 71.436 118.536 71.852 119C72.284 119.464 72.62 120.024 72.86 120.68C73.1 121.32 73.22 122.04 73.22 122.84C73.22 123.64 73.084 124.376 72.812 125.048C72.54 125.704 72.156 126.272 71.66 126.752C71.18 127.216 70.604 127.584 69.932 127.856C69.26 128.112 68.524 128.24 67.724 128.24C66.908 128.24 66.156 128.112 65.468 127.856C64.796 127.6 64.212 127.24 63.716 126.776C63.236 126.296 62.86 125.728 62.588 125.072C62.316 124.4 62.18 123.656 62.18 122.84ZM64.34 122.84C64.34 123.896 64.652 124.744 65.276 125.384C65.9 126.008 66.716 126.32 67.724 126.32C68.204 126.32 68.644 126.24 69.044 126.08C69.46 125.904 69.812 125.664 70.1 125.36C70.404 125.056 70.636 124.696 70.796 124.28C70.972 123.848 71.06 123.368 71.06 122.84C71.06 122.312 70.972 121.84 70.796 121.424C70.636 120.992 70.404 120.624 70.1 120.32C69.812 120.016 69.46 119.784 69.044 119.624C68.644 119.448 68.204 119.36 67.724 119.36C66.732 119.36 65.916 119.68 65.276 120.32C64.652 120.96 64.34 121.8 64.34 122.84ZM47.6694 150.28C47.7014 149.56 47.8534 148.904 48.1254 148.312C48.3974 147.72 48.7734 147.216 49.2534 146.8C49.7494 146.384 50.3254 146.064 50.9814 145.84C51.6534 145.6 52.3974 145.48 53.2134 145.48C54.0134 145.48 54.7334 145.592 55.3734 145.816C56.0134 146.04 56.5574 146.36 57.0054 146.776C57.4534 147.192 57.7974 147.696 58.0374 148.288C58.2934 148.88 58.4214 149.544 58.4214 150.28C58.4214 151.576 58.0614 152.832 57.3414 154.048C56.6374 155.248 55.5094 156.52 53.9574 157.864L51.0534 160.384C50.9734 160.448 50.8854 160.512 50.7894 160.576C50.6934 160.64 50.5974 160.704 50.5014 160.768C50.3734 160.848 50.2534 160.92 50.1414 160.984V161.08C50.3974 161.064 50.6454 161.056 50.8854 161.056C51.1094 161.04 51.3334 161.032 51.5574 161.032C51.7974 161.032 52.0134 161.032 52.2054 161.032H58.5894V163H47.7894V160.6L52.3494 156.688C53.0374 156.096 53.6214 155.536 54.1014 155.008C54.5974 154.48 54.9974 153.96 55.3014 153.448C55.6054 152.936 55.8294 152.424 55.9734 151.912C56.1174 151.4 56.1894 150.864 56.1894 150.304C56.1894 149.408 55.9174 148.704 55.3734 148.192C54.8454 147.664 54.1254 147.4 53.2134 147.4C52.2054 147.4 51.3974 147.664 50.7894 148.192C50.1974 148.72 49.9014 149.416 49.9014 150.28H47.6694ZM62.42 150.64C62.42 149.856 62.54 149.144 62.78 148.504C63.036 147.864 63.388 147.32 63.836 146.872C64.3 146.424 64.852 146.08 65.492 145.84C66.148 145.6 66.884 145.48 67.7 145.48C68.516 145.48 69.244 145.6 69.884 145.84C70.54 146.08 71.092 146.424 71.54 146.872C72.004 147.32 72.356 147.864 72.596 148.504C72.852 149.144 72.98 149.856 72.98 150.64V158.08C72.98 158.864 72.852 159.576 72.596 160.216C72.356 160.84 72.004 161.376 71.54 161.824C71.092 162.272 70.54 162.624 69.884 162.88C69.228 163.12 68.5 163.24 67.7 163.24C66.884 163.24 66.148 163.12 65.492 162.88C64.852 162.64 64.3 162.296 63.836 161.848C63.388 161.4 63.036 160.856 62.78 160.216C62.54 159.576 62.42 158.864 62.42 158.08V150.64ZM64.58 158.08C64.58 159.072 64.86 159.864 65.42 160.456C65.98 161.032 66.74 161.32 67.7 161.32C68.66 161.32 69.42 161.032 69.98 160.456C70.54 159.864 70.82 159.072 70.82 158.08V150.64C70.82 149.648 70.54 148.864 69.98 148.288C69.42 147.696 68.66 147.4 67.7 147.4C66.74 147.4 65.98 147.696 65.42 148.288C64.86 148.864 64.58 149.648 64.58 150.64V158.08ZM66.5 152.56C66.5 152.16 66.604 151.84 66.812 151.6C67.036 151.36 67.332 151.24 67.7 151.24C68.068 151.24 68.356 151.36 68.564 151.6C68.788 151.84 68.9 152.16 68.9 152.56V156.4C68.9 156.8 68.788 157.12 68.564 157.36C68.356 157.6 68.068 157.72 67.7 157.72C67.332 157.72 67.036 157.6 66.812 157.36C66.604 157.12 66.5 156.8 66.5 156.4V152.56ZM47.6694 185.28C47.7014 184.56 47.8534 183.904 48.1254 183.312C48.3974 182.72 48.7734 182.216 49.2534 181.8C49.7494 181.384 50.3254 181.064 50.9814 180.84C51.6534 180.6 52.3974 180.48 53.2134 180.48C54.0134 180.48 54.7334 180.592 55.3734 180.816C56.0134 181.04 56.5574 181.36 57.0054 181.776C57.4534 182.192 57.7974 182.696 58.0374 183.288C58.2934 183.88 58.4214 184.544 58.4214 185.28C58.4214 186.576 58.0614 187.832 57.3414 189.048C56.6374 190.248 55.5094 191.52 53.9574 192.864L51.0534 195.384C50.9734 195.448 50.8854 195.512 50.7894 195.576C50.6934 195.64 50.5974 195.704 50.5014 195.768C50.3734 195.848 50.2534 195.92 50.1414 195.984V196.08C50.3974 196.064 50.6454 196.056 50.8854 196.056C51.1094 196.04 51.3334 196.032 51.5574 196.032C51.7974 196.032 52.0134 196.032 52.2054 196.032H58.5894V198H47.7894V195.6L52.3494 191.688C53.0374 191.096 53.6214 190.536 54.1014 190.008C54.5974 189.48 54.9974 188.96 55.3014 188.448C55.6054 187.936 55.8294 187.424 55.9734 186.912C56.1174 186.4 56.1894 185.864 56.1894 185.304C56.1894 184.408 55.9174 183.704 55.3734 183.192C54.8454 182.664 54.1254 182.4 53.2134 182.4C52.2054 182.4 51.3974 182.664 50.7894 183.192C50.1974 183.72 49.9014 184.416 49.9014 185.28H47.6694ZM62.18 185.88C62.18 185.08 62.316 184.352 62.588 183.696C62.86 183.024 63.236 182.456 63.716 181.992C64.212 181.512 64.796 181.144 65.468 180.888C66.14 180.616 66.876 180.48 67.676 180.48C68.492 180.48 69.236 180.608 69.908 180.864C70.596 181.12 71.18 181.488 71.66 181.968C72.156 182.432 72.54 183 72.812 183.672C73.084 184.328 73.22 185.064 73.22 185.88C73.22 186.84 72.996 187.864 72.548 188.952C72.1 190.04 71.484 191.24 70.7 192.552L67.436 198H64.82L68.468 192.24C68.804 191.712 69.076 191.296 69.284 190.992C69.492 190.672 69.66 190.424 69.788 190.248C69.932 190.056 70.044 189.92 70.124 189.84H69.764C69.636 190.096 69.452 190.32 69.212 190.512C68.988 190.688 68.7 190.848 68.348 190.992C68.012 191.12 67.564 191.184 67.004 191.184C66.3 191.184 65.652 191.056 65.06 190.8C64.468 190.544 63.956 190.184 63.524 189.72C63.108 189.256 62.78 188.704 62.54 188.064C62.3 187.408 62.18 186.68 62.18 185.88ZM67.676 189.36C68.668 189.36 69.476 189.04 70.1 188.4C70.74 187.76 71.06 186.92 71.06 185.88C71.06 184.824 70.748 183.984 70.124 183.36C69.5 182.72 68.684 182.4 67.676 182.4C67.196 182.4 66.748 182.488 66.332 182.664C65.932 182.824 65.58 183.056 65.276 183.36C64.988 183.664 64.756 184.032 64.58 184.464C64.42 184.88 64.34 185.352 64.34 185.88C64.34 186.408 64.42 186.888 64.58 187.32C64.756 187.736 64.988 188.096 65.276 188.4C65.58 188.704 65.932 188.944 66.332 189.12C66.748 189.28 67.196 189.36 67.676 189.36Z" fill="white"/>
<path d="M96.9847 10.88C96.9847 10.08 97.1207 9.352 97.3927 8.696C97.6647 8.024 98.0407 7.456 98.5207 6.992C99.0167 6.512 99.6007 6.144 100.273 5.888C100.945 5.616 101.681 5.48 102.481 5.48C103.297 5.48 104.041 5.608 104.713 5.864C105.401 6.12 105.985 6.488 106.465 6.968C106.961 7.432 107.345 8 107.617 8.672C107.889 9.328 108.025 10.064 108.025 10.88C108.025 11.84 107.801 12.864 107.353 13.952C106.905 15.04 106.289 16.24 105.505 17.552L102.241 23H99.6247L103.273 17.24C103.609 16.712 103.881 16.296 104.089 15.992C104.297 15.672 104.465 15.424 104.593 15.248C104.737 15.056 104.849 14.92 104.929 14.84H104.569C104.441 15.096 104.257 15.32 104.017 15.512C103.793 15.688 103.505 15.848 103.153 15.992C102.817 16.12 102.369 16.184 101.809 16.184C101.105 16.184 100.457 16.056 99.8647 15.8C99.2727 15.544 98.7607 15.184 98.3287 14.72C97.9127 14.256 97.5847 13.704 97.3447 13.064C97.1047 12.408 96.9847 11.68 96.9847 10.88ZM102.481 14.36C103.473 14.36 104.281 14.04 104.905 13.4C105.545 12.76 105.865 11.92 105.865 10.88C105.865 9.824 105.553 8.984 104.929 8.36C104.305 7.72 103.489 7.4 102.481 7.4C102.001 7.4 101.553 7.488 101.137 7.664C100.737 7.824 100.385 8.056 100.081 8.36C99.7927 8.664 99.5607 9.032 99.3847 9.464C99.2247 9.88 99.1447 10.352 99.1447 10.88C99.1447 11.408 99.2247 11.888 99.3847 12.32C99.5607 12.736 99.7927 13.096 100.081 13.4C100.385 13.704 100.737 13.944 101.137 14.12C101.553 14.28 102.001 14.36 102.481 14.36ZM97.4647 58V56.08H102.097V43.96C102.097 43.832 102.097 43.688 102.097 43.528C102.113 43.352 102.121 43.192 102.121 43.048C102.121 42.904 102.121 42.784 102.121 42.688C102.137 42.576 102.145 42.52 102.145 42.52H102.097C101.985 42.616 101.873 42.704 101.761 42.784C101.665 42.864 101.561 42.944 101.449 43.024C101.353 43.104 101.257 43.176 101.161 43.24L97.7767 45.544V43.36L101.497 40.72H104.257V56.08H108.145V58H97.4647ZM102.361 93.24C101.609 93.24 100.913 93.128 100.273 92.904C99.6487 92.68 99.0967 92.368 98.6167 91.968C98.1527 91.552 97.7687 91.056 97.4647 90.48C97.1767 89.904 97.0007 89.264 96.9367 88.56H99.0967C99.2247 89.392 99.5847 90.064 100.177 90.576C100.769 91.072 101.497 91.32 102.361 91.32C103.369 91.32 104.177 91.016 104.785 90.408C105.393 89.784 105.697 88.968 105.697 87.96C105.697 86.952 105.385 86.144 104.761 85.536C104.137 84.912 103.305 84.6 102.265 84.6H100.249V82.32L103.681 78.84C103.841 78.68 104.009 78.528 104.185 78.384C104.361 78.24 104.529 78.112 104.689 78C104.865 77.856 105.049 77.72 105.241 77.592V77.544C105.065 77.56 104.881 77.576 104.689 77.592C104.513 77.608 104.321 77.624 104.113 77.64C103.921 77.64 103.713 77.64 103.489 77.64H97.4647V75.72H107.065V78.12L103.009 81.984C102.913 82.08 102.817 82.168 102.721 82.248C102.625 82.328 102.537 82.4 102.457 82.464C102.377 82.544 102.297 82.616 102.217 82.68C103.081 82.68 103.857 82.808 104.545 83.064C105.249 83.304 105.841 83.656 106.321 84.12C106.817 84.568 107.201 85.12 107.473 85.776C107.745 86.432 107.881 87.16 107.881 87.96C107.881 88.776 107.753 89.512 107.497 90.168C107.241 90.808 106.873 91.36 106.393 91.824C105.913 92.272 105.329 92.624 104.641 92.88C103.969 93.12 103.209 93.24 102.361 93.24ZM96.9847 115.88C96.9847 115.08 97.1207 114.352 97.3927 113.696C97.6647 113.024 98.0407 112.456 98.5207 111.992C99.0167 111.512 99.6007 111.144 100.273 110.888C100.945 110.616 101.681 110.48 102.481 110.48C103.297 110.48 104.041 110.608 104.713 110.864C105.401 111.12 105.985 111.488 106.465 111.968C106.961 112.432 107.345 113 107.617 113.672C107.889 114.328 108.025 115.064 108.025 115.88C108.025 116.84 107.801 117.864 107.353 118.952C106.905 120.04 106.289 121.24 105.505 122.552L102.241 128H99.6247L103.273 122.24C103.609 121.712 103.881 121.296 104.089 120.992C104.297 120.672 104.465 120.424 104.593 120.248C104.737 120.056 104.849 119.92 104.929 119.84H104.569C104.441 120.096 104.257 120.32 104.017 120.512C103.793 120.688 103.505 120.848 103.153 120.992C102.817 121.12 102.369 121.184 101.809 121.184C101.105 121.184 100.457 121.056 99.8647 120.8C99.2727 120.544 98.7607 120.184 98.3287 119.72C97.9127 119.256 97.5847 118.704 97.3447 118.064C97.1047 117.408 96.9847 116.68 96.9847 115.88ZM102.481 119.36C103.473 119.36 104.281 119.04 104.905 118.4C105.545 117.76 105.865 116.92 105.865 115.88C105.865 114.824 105.553 113.984 104.929 113.36C104.305 112.72 103.489 112.4 102.481 112.4C102.001 112.4 101.553 112.488 101.137 112.664C100.737 112.824 100.385 113.056 100.081 113.36C99.7927 113.664 99.5607 114.032 99.3847 114.464C99.2247 114.88 99.1447 115.352 99.1447 115.88C99.1447 116.408 99.2247 116.888 99.3847 117.32C99.5607 117.736 99.7927 118.096 100.081 118.4C100.385 118.704 100.737 118.944 101.137 119.12C101.553 119.28 102.001 119.36 102.481 119.36ZM96.9847 150.88C96.9847 150.08 97.1207 149.352 97.3927 148.696C97.6647 148.024 98.0407 147.456 98.5207 146.992C99.0167 146.512 99.6007 146.144 100.273 145.888C100.945 145.616 101.681 145.48 102.481 145.48C103.297 145.48 104.041 145.608 104.713 145.864C105.401 146.12 105.985 146.488 106.465 146.968C106.961 147.432 107.345 148 107.617 148.672C107.889 149.328 108.025 150.064 108.025 150.88C108.025 151.84 107.801 152.864 107.353 153.952C106.905 155.04 106.289 156.24 105.505 157.552L102.241 163H99.6247L103.273 157.24C103.609 156.712 103.881 156.296 104.089 155.992C104.297 155.672 104.465 155.424 104.593 155.248C104.737 155.056 104.849 154.92 104.929 154.84H104.569C104.441 155.096 104.257 155.32 104.017 155.512C103.793 155.688 103.505 155.848 103.153 155.992C102.817 156.12 102.369 156.184 101.809 156.184C101.105 156.184 100.457 156.056 99.8647 155.8C99.2727 155.544 98.7607 155.184 98.3287 154.72C97.9127 154.256 97.5847 153.704 97.3447 153.064C97.1047 152.408 96.9847 151.68 96.9847 150.88ZM102.481 154.36C103.473 154.36 104.281 154.04 104.905 153.4C105.545 152.76 105.865 151.92 105.865 150.88C105.865 149.824 105.553 148.984 104.929 148.36C104.305 147.72 103.489 147.4 102.481 147.4C102.001 147.4 101.553 147.488 101.137 147.664C100.737 147.824 100.385 148.056 100.081 148.36C99.7927 148.664 99.5607 149.032 99.3847 149.464C99.2247 149.88 99.1447 150.352 99.1447 150.88C99.1447 151.408 99.2247 151.888 99.3847 152.32C99.5607 152.736 99.7927 153.096 100.081 153.4C100.385 153.704 100.737 153.944 101.137 154.12C101.553 154.28 102.001 154.36 102.481 154.36ZM90.2694 198V196.08H94.9014V183.96C94.9014 183.832 94.9014 183.688 94.9014 183.528C94.9174 183.352 94.9254 183.192 94.9254 183.048C94.9254 182.904 94.9254 182.784 94.9254 182.688C94.9414 182.576 94.9494 182.52 94.9494 182.52H94.9014C94.7894 182.616 94.6774 182.704 94.5654 182.784C94.4694 182.864 94.3654 182.944 94.2534 183.024C94.1574 183.104 94.0614 183.176 93.9654 183.24L90.5814 185.544V183.36L94.3014 180.72H97.0614V196.08H100.949V198H90.2694ZM104.06 185.28C104.092 184.56 104.244 183.904 104.516 183.312C104.788 182.72 105.164 182.216 105.644 181.8C106.14 181.384 106.716 181.064 107.372 180.84C108.044 180.6 108.788 180.48 109.604 180.48C110.404 180.48 111.124 180.592 111.764 180.816C112.404 181.04 112.948 181.36 113.396 181.776C113.844 182.192 114.188 182.696 114.428 183.288C114.684 183.88 114.812 184.544 114.812 185.28C114.812 186.576 114.452 187.832 113.732 189.048C113.028 190.248 111.9 191.52 110.348 192.864L107.444 195.384C107.364 195.448 107.276 195.512 107.18 195.576C107.084 195.64 106.988 195.704 106.892 195.768C106.764 195.848 106.644 195.92 106.532 195.984V196.08C106.788 196.064 107.036 196.056 107.276 196.056C107.5 196.04 107.724 196.032 107.948 196.032C108.188 196.032 108.404 196.032 108.596 196.032H114.98V198H104.18V195.6L108.74 191.688C109.428 191.096 110.012 190.536 110.492 190.008C110.988 189.48 111.388 188.96 111.692 188.448C111.996 187.936 112.22 187.424 112.364 186.912C112.508 186.4 112.58 185.864 112.58 185.304C112.58 184.408 112.308 183.704 111.764 183.192C111.236 182.664 110.516 182.4 109.604 182.4C108.596 182.4 107.788 182.664 107.18 183.192C106.588 183.72 106.292 184.416 106.292 185.28H104.06Z" fill="white"/>
<path d="M141.361 23.24C140.609 23.24 139.913 23.128 139.273 22.904C138.649 22.68 138.097 22.368 137.617 21.968C137.153 21.552 136.769 21.056 136.465 20.48C136.177 19.904 136.001 19.264 135.937 18.56H138.097C138.225 19.392 138.585 20.064 139.177 20.576C139.769 21.072 140.497 21.32 141.361 21.32C142.369 21.32 143.177 21.016 143.785 20.408C144.393 19.784 144.697 18.968 144.697 17.96C144.697 16.952 144.385 16.144 143.761 15.536C143.137 14.912 142.305 14.6 141.265 14.6H139.249V12.32L142.681 8.84C142.841 8.68 143.009 8.528 143.185 8.384C143.361 8.24 143.529 8.112 143.689 8C143.865 7.856 144.049 7.72 144.241 7.592V7.544C144.065 7.56 143.881 7.576 143.689 7.592C143.513 7.608 143.321 7.624 143.113 7.64C142.921 7.64 142.713 7.64 142.489 7.64H136.465V5.72H146.065V8.12L142.009 11.984C141.913 12.08 141.817 12.168 141.721 12.248C141.625 12.328 141.537 12.4 141.457 12.464C141.377 12.544 141.297 12.616 141.217 12.68C142.081 12.68 142.857 12.808 143.545 13.064C144.249 13.304 144.841 13.656 145.321 14.12C145.817 14.568 146.201 15.12 146.473 15.776C146.745 16.432 146.881 17.16 146.881 17.96C146.881 18.776 146.753 19.512 146.497 20.168C146.241 20.808 145.873 21.36 145.393 21.824C144.913 22.272 144.329 22.624 143.641 22.88C142.969 23.12 142.209 23.24 141.361 23.24ZM136.465 58V56.08H141.097V43.96C141.097 43.832 141.097 43.688 141.097 43.528C141.113 43.352 141.121 43.192 141.121 43.048C141.121 42.904 141.121 42.784 141.121 42.688C141.137 42.576 141.145 42.52 141.145 42.52H141.097C140.985 42.616 140.873 42.704 140.761 42.784C140.665 42.864 140.561 42.944 140.449 43.024C140.353 43.104 140.257 43.176 140.161 43.24L136.777 45.544V43.36L140.497 40.72H143.257V56.08H147.145V58H136.465ZM135.865 80.28C135.897 79.56 136.049 78.904 136.321 78.312C136.593 77.72 136.969 77.216 137.449 76.8C137.945 76.384 138.521 76.064 139.177 75.84C139.849 75.6 140.593 75.48 141.409 75.48C142.209 75.48 142.929 75.592 143.569 75.816C144.209 76.04 144.753 76.36 145.201 76.776C145.649 77.192 145.993 77.696 146.233 78.288C146.489 78.88 146.617 79.544 146.617 80.28C146.617 81.576 146.257 82.832 145.537 84.048C144.833 85.248 143.705 86.52 142.153 87.864L139.249 90.384C139.169 90.448 139.081 90.512 138.985 90.576C138.889 90.64 138.793 90.704 138.697 90.768C138.569 90.848 138.449 90.92 138.337 90.984V91.08C138.593 91.064 138.841 91.056 139.081 91.056C139.305 91.04 139.529 91.032 139.753 91.032C139.993 91.032 140.209 91.032 140.401 91.032H146.785V93H135.985V90.6L140.545 86.688C141.233 86.096 141.817 85.536 142.297 85.008C142.793 84.48 143.193 83.96 143.497 83.448C143.801 82.936 144.025 82.424 144.169 81.912C144.313 81.4 144.385 80.864 144.385 80.304C144.385 79.408 144.113 78.704 143.569 78.192C143.041 77.664 142.321 77.4 141.409 77.4C140.401 77.4 139.593 77.664 138.985 78.192C138.393 78.72 138.097 79.416 138.097 80.28H135.865ZM141.361 128.24C140.609 128.24 139.913 128.128 139.273 127.904C138.649 127.68 138.097 127.368 137.617 126.968C137.153 126.552 136.769 126.056 136.465 125.48C136.177 124.904 136.001 124.264 135.937 123.56H138.097C138.225 124.392 138.585 125.064 139.177 125.576C139.769 126.072 140.497 126.32 141.361 126.32C142.369 126.32 143.177 126.016 143.785 125.408C144.393 124.784 144.697 123.968 144.697 122.96C144.697 121.952 144.385 121.144 143.761 120.536C143.137 119.912 142.305 119.6 141.265 119.6H139.249V117.32L142.681 113.84C142.841 113.68 143.009 113.528 143.185 113.384C143.361 113.24 143.529 113.112 143.689 113C143.865 112.856 144.049 112.72 144.241 112.592V112.544C144.065 112.56 143.881 112.576 143.689 112.592C143.513 112.608 143.321 112.624 143.113 112.64C142.921 112.64 142.713 112.64 142.489 112.64H136.465V110.72H146.065V113.12L142.009 116.984C141.913 117.08 141.817 117.168 141.721 117.248C141.625 117.328 141.537 117.4 141.457 117.464C141.377 117.544 141.297 117.616 141.217 117.68C142.081 117.68 142.857 117.808 143.545 118.064C144.249 118.304 144.841 118.656 145.321 119.12C145.817 119.568 146.201 120.12 146.473 120.776C146.745 121.432 146.881 122.16 146.881 122.96C146.881 123.776 146.753 124.512 146.497 125.168C146.241 125.808 145.873 126.36 145.393 126.824C144.913 127.272 144.329 127.624 143.641 127.88C142.969 128.12 142.209 128.24 141.361 128.24ZM129.269 163V161.08H133.901V148.96C133.901 148.832 133.901 148.688 133.901 148.528C133.917 148.352 133.925 148.192 133.925 148.048C133.925 147.904 133.925 147.784 133.925 147.688C133.941 147.576 133.949 147.52 133.949 147.52H133.901C133.789 147.616 133.677 147.704 133.565 147.784C133.469 147.864 133.365 147.944 133.253 148.024C133.157 148.104 133.061 148.176 132.965 148.24L129.581 150.544V148.36L133.301 145.72H136.061V161.08H139.949V163H129.269ZM143.66 163V161.08H148.292V148.96C148.292 148.832 148.292 148.688 148.292 148.528C148.308 148.352 148.316 148.192 148.316 148.048C148.316 147.904 148.316 147.784 148.316 147.688C148.332 147.576 148.34 147.52 148.34 147.52H148.292C148.18 147.616 148.068 147.704 147.956 147.784C147.86 147.864 147.756 147.944 147.644 148.024C147.548 148.104 147.452 148.176 147.356 148.24L143.972 150.544V148.36L147.692 145.72H150.452V161.08H154.34V163H143.66ZM135.985 192.84C135.985 191.88 136.209 190.856 136.657 189.768C137.105 188.68 137.721 187.48 138.505 186.168L141.769 180.72H144.385L140.737 186.48C140.417 186.992 140.145 187.408 139.921 187.728C139.713 188.048 139.545 188.296 139.417 188.472C139.273 188.664 139.161 188.8 139.081 188.88H139.441C139.569 188.624 139.753 188.4 139.993 188.208C140.217 188.032 140.505 187.88 140.857 187.752C141.209 187.608 141.657 187.536 142.201 187.536C142.905 187.536 143.553 187.664 144.145 187.92C144.737 188.176 145.241 188.536 145.657 189C146.089 189.464 146.425 190.024 146.665 190.68C146.905 191.32 147.025 192.04 147.025 192.84C147.025 193.64 146.889 194.376 146.617 195.048C146.345 195.704 145.961 196.272 145.465 196.752C144.985 197.216 144.409 197.584 143.737 197.856C143.065 198.112 142.329 198.24 141.529 198.24C140.713 198.24 139.961 198.112 139.273 197.856C138.601 197.6 138.017 197.24 137.521 196.776C137.041 196.296 136.665 195.728 136.393 195.072C136.121 194.4 135.985 193.656 135.985 192.84ZM138.145 192.84C138.145 193.896 138.457 194.744 139.081 195.384C139.705 196.008 140.521 196.32 141.529 196.32C142.009 196.32 142.449 196.24 142.849 196.08C143.265 195.904 143.617 195.664 143.905 195.36C144.209 195.056 144.441 194.696 144.601 194.28C144.777 193.848 144.865 193.368 144.865 192.84C144.865 192.312 144.777 191.84 144.601 191.424C144.441 190.992 144.209 190.624 143.905 190.32C143.617 190.016 143.265 189.784 142.849 189.624C142.449 189.448 142.009 189.36 141.529 189.36C140.537 189.36 139.721 189.68 139.081 190.32C138.457 190.96 138.145 191.8 138.145 192.84Z" fill="white"/>
</svg>
