<svg width="736" height="294" viewBox="0 0 736 294" fill="none" xmlns="http://www.w3.org/2000/svg">
<circle cx="119" cy="119" r="116" stroke="url(#paint0_linear)" stroke-width="6"/>
<path d="M186.417 196.254C143.472 238.48 69.0968 219.526 47.9839 190.256" stroke="#FFF0A8" stroke-width="6" stroke-linecap="round"/>
<path d="M184.258 41.2661C142.71 3.78298 73.2081 15.2835 52.7822 41.2661" stroke="url(#paint1_linear)" stroke-width="6" stroke-linecap="round"/>
<ellipse cx="37.6675" cy="176.821" rx="4.07863" ry="4.07862" fill="#FFF0A8"/>
<ellipse cx="43.4256" cy="51.5827" rx="4.07863" ry="4.07863" fill="#FFEA87"/>
<circle cx="198.893" cy="59.7399" r="4.07863" fill="#FFEB8D"/>
<ellipse cx="192.655" cy="184.978" rx="4.07862" ry="4.07863" fill="#FFF0A8"/>
<path d="M43.6651 82.5322L36.4675 68.1371L23.272 75.8145" stroke="#FFF0A8" stroke-width="6" stroke-linecap="round" stroke-linejoin="round"/>
<path d="M192.895 153.069L200.093 167.464L213.288 159.786" stroke="#FFF0A8" stroke-width="6" stroke-linecap="round" stroke-linejoin="round"/>
<path d="M25.1914 164.105C29.1901 160.266 37.1394 152.589 36.9475 152.589C36.7555 152.589 26.311 152.589 21.1128 152.589" stroke="#FFF0A8" stroke-width="6" stroke-linecap="round" stroke-linejoin="round"/>
<path d="M211.369 71.496C207.37 75.3347 199.421 83.0121 199.613 83.0121C199.805 83.0121 210.249 83.0121 215.448 83.0121" stroke="#FFF0A8" stroke-width="6" stroke-linecap="round" stroke-linejoin="round"/>
<path d="M36.7077 140.353L29.9899 129.077L22.3125 140.353L14.875 130.036" stroke="#FFF0A8" stroke-width="6" stroke-linecap="round" stroke-linejoin="round"/>
<path d="M199.853 95.248L206.571 106.524L214.248 95.248L221.686 105.565" stroke="#FFF0A8" stroke-width="6" stroke-linecap="round" stroke-linejoin="round"/>
<path d="M33.5889 119.48V110.603L25.3116 110.003M17.0344 117.8V109.403L25.3116 110.003M25.3116 110.003V117.8" stroke="#FFF0A8" stroke-width="6" stroke-linecap="round" stroke-linejoin="round"/>
<path d="M202.972 116.121V124.998L211.249 125.598M219.526 117.8V126.198L211.249 125.598M211.249 125.598V117.8" stroke="#FFF0A8" stroke-width="6" stroke-linecap="round" stroke-linejoin="round"/>
<path d="M16.5544 98.3669L33.1089 94.7681L19.9133 85.8911" stroke="#FFF0A8" stroke-width="6" stroke-linecap="round" stroke-linejoin="round"/>
<path d="M220.006 137.234L203.451 140.833L216.647 149.71" stroke="#FFF0A8" stroke-width="6" stroke-linecap="round" stroke-linejoin="round"/>
<path d="M96.4476 197.933C91.1693 192.735 77.206 184.642 63.5786 193.855" stroke="#FFFDF5" stroke-width="6" stroke-linecap="round"/>
<path d="M52.3025 183.298C56.2355 179.963 60.6256 177.269 67.1775 176.626M130.036 167.943C123.894 188.672 130.036 198.973 133.875 201.532C97.8955 180.994 79.0106 175.464 67.1775 176.626M130.036 167.943C107.724 164.104 111.323 162.185 107.724 146.59M130.036 167.943L151.149 173.701C154.268 173.941 161.034 169.766 161.226 163.625C161.386 160.506 161.61 154.268 161.226 154.268L166.744 152.588L162.665 148.51L159.786 144.911M67.1775 176.626L76.2944 153.068L69.8166 118.04M159.786 144.911L154.748 146.11M159.786 144.911L171.782 141.072L165.784 134.354L180.899 132.675L166.984 110.602V97.4068M166.984 97.4068C170.439 94.3358 170.663 89.7294 170.343 87.81M166.984 97.4068C164.505 99.0863 158.779 102.301 155.708 101.725M178.98 80.3725C181.779 83.0116 185.41 90.3052 177.54 98.3665M100.046 134.354C95.7279 135.154 86.8989 135.362 86.1311 129.796C86.1311 128.069 86.1311 121.239 86.1311 118.04L67.1775 110.602C71.7691 109.511 77.5262 107.958 83.9718 105.979M162.665 65.4976C160.826 68.5365 166.024 79.173 181.859 71.9755C176.341 63.0984 166.984 65.2576 162.665 65.4976ZM162.665 65.4976C144.934 83.9934 109.185 98.2386 83.9718 105.979M162.665 65.4976C165.225 62.7412 165.784 50.6229 158.347 47.0241C154.268 52.7822 154.028 61.4189 162.665 65.4976ZM147.071 77.7334C145.231 80.7724 147.071 90.929 162.665 86.3705C157.627 78.6931 151.389 77.4935 147.071 77.7334ZM147.071 77.7334C149.63 74.9771 150.19 62.8586 142.752 59.2598C136.754 60.6027 138.434 73.6548 147.071 77.7334ZM83.9718 105.979C86.531 103.223 90.3057 95.9763 84.9315 89.0413C81.4927 91.7865 76.4864 99.0173 83.9718 105.979ZM90.2097 64.0584C89.1701 67.2626 87.7146 74.4834 90.2097 77.7334M81.0928 62.8588C78.5337 66.7561 74.1831 75.9997 77.2541 81.796M105.085 53.502C110.523 53.422 121.783 54.7016 123.319 60.4596M115.401 45.1048C120.2 43.7453 131.188 43.3294 136.754 52.5423M66.2178 104.365C44.1452 50.6226 102.446 16.0746 151.389 44.1451M83.9718 107.963C82.1325 111.002 81.9565 117.512 95.9678 119.239C96.7356 109.643 88.2904 107.723 83.9718 107.963ZM106.524 99.3262C104.685 102.365 104.125 109.403 120.68 109.403C121.447 99.806 110.843 99.0863 106.524 99.3262ZM127.637 89.0413C125.798 92.0803 125.238 99.1179 141.792 99.1179C142.56 89.5212 131.956 88.8014 127.637 89.0413ZM105.085 98.7337C107.644 95.9774 111.419 88.731 106.044 81.796C102.606 84.5411 97.5993 91.7719 105.085 98.7337ZM127.637 88.53C130.196 85.7737 133.011 77.9509 127.637 71.0159C121.639 72.3588 119 84.4514 127.637 88.53Z" stroke="url(#paint2_linear)" stroke-width="6" stroke-linecap="round" stroke-linejoin="round"/>
<path d="M330.262 89V62.2256H340.745C343.046 62.2256 344.901 62.8379 346.312 64.0625C347.722 65.2871 348.427 66.9014 348.427 68.9053C348.427 70.3031 347.981 71.5648 347.091 72.6904C346.188 73.8285 345.093 74.515 343.807 74.75V74.8984C345.625 75.1335 347.078 75.8447 348.167 77.0322C349.243 78.2197 349.781 79.7041 349.781 81.4854C349.781 83.848 348.983 85.6911 347.388 87.0146C345.78 88.3382 343.553 89 340.708 89H330.262ZM333.602 73.7666H338.945C340.924 73.7666 342.434 73.3831 343.473 72.6162C344.524 71.8493 345.05 70.7422 345.05 69.2949C345.05 67.9714 344.611 66.9508 343.732 66.2334C342.854 65.5283 341.605 65.1758 339.984 65.1758H333.602V73.7666ZM340.207 86.0498C344.301 86.0498 346.349 84.4727 346.349 81.3184C346.349 78.2012 344.196 76.6426 339.892 76.6426H333.602V86.0498H340.207ZM372.01 67.6992H371.713L357.24 89H353.938V62.2256H357.24V83.6006H357.537L372.01 62.2256H375.312V89H372.01V67.6992ZM401.308 89H396.725L384.367 75.9932H384.219V89H380.879V62.2256H384.219V74.5645H384.367L395.871 62.2256H400.064L387.893 75.0283L401.308 89ZM434.224 94.2881V89H404.592V62.2256H407.932V85.9941H417.617V62.2256H420.957V85.9941H430.643V62.2256H433.982V85.9941H437.322V94.2881H434.224ZM450.311 89V62.2256H460.794C463.095 62.2256 464.95 62.8379 466.36 64.0625C467.771 65.2871 468.476 66.9014 468.476 68.9053C468.476 70.3031 468.03 71.5648 467.14 72.6904C466.237 73.8285 465.142 74.515 463.855 74.75V74.8984C465.674 75.1335 467.127 75.8447 468.216 77.0322C469.292 78.2197 469.83 79.7041 469.83 81.4854C469.83 83.848 469.032 85.6911 467.437 87.0146C465.828 88.3382 463.602 89 460.757 89H450.311ZM453.65 73.7666H458.994C460.973 73.7666 462.482 73.3831 463.521 72.6162C464.573 71.8493 465.099 70.7422 465.099 69.2949C465.099 67.9714 464.66 66.9508 463.781 66.2334C462.903 65.5283 461.654 65.1758 460.033 65.1758H453.65V73.7666ZM460.256 86.0498C464.35 86.0498 466.397 84.4727 466.397 81.3184C466.397 78.2012 464.245 76.6426 459.94 76.6426H453.65V86.0498H460.256ZM492.059 67.6992H491.762L477.289 89H473.986V62.2256H477.289V83.6006H477.586L492.059 62.2256H495.361V89H492.059V67.6992ZM521.356 89H516.773L504.416 75.9932H504.268V89H500.928V62.2256H504.268V74.5645H504.416L515.92 62.2256H520.113L507.941 75.0283L521.356 89ZM554.272 94.2881V89H524.641V62.2256H527.98V85.9941H537.666V62.2256H541.006V85.9941H550.691V62.2256H554.031V85.9941H557.371V94.2881H554.272ZM347.425 134H342.842L330.484 120.993H330.336V134H326.996V107.226H330.336V119.564H330.484L341.988 107.226H346.182L334.01 120.028L347.425 134ZM380.341 139.288V134H350.709V107.226H354.049V130.994H363.734V107.226H367.074V130.994H376.76V107.226H380.1V130.994H383.439V139.288H380.341ZM405.408 112.699H405.111L390.639 134H387.336V107.226H390.639V128.601H390.936L405.408 107.226H408.711V134H405.408V112.699ZM432.35 112.699H432.053L417.58 134H414.277V107.226H417.58V128.601H417.877L432.35 107.226H435.652V134H432.35V112.699ZM421.477 99.6738C421.477 100.725 421.804 101.604 422.46 102.309C423.116 103.026 423.944 103.385 424.946 103.385C425.948 103.385 426.777 103.026 427.433 102.309C428.088 101.604 428.416 100.725 428.416 99.6738H430.698C430.698 101.307 430.166 102.636 429.103 103.663C428.026 104.702 426.641 105.222 424.946 105.222C423.252 105.222 421.866 104.702 420.79 103.663C419.726 102.636 419.194 101.307 419.194 99.6738H421.477ZM470.739 134H466.156L453.799 120.993H453.65V134H450.311V107.226H453.65V119.564H453.799L465.303 107.226H469.496L457.324 120.028L470.739 134ZM503.655 139.288V134H474.023V107.226H477.363V130.994H487.049V107.226H490.389V130.994H500.074V107.226H503.414V130.994H506.754V139.288H503.655ZM528.723 112.699H528.426L513.953 134H510.65V107.226H513.953V128.601H514.25L528.723 107.226H532.025V134H528.723V112.699ZM555.664 112.699H555.367L540.895 134H537.592V107.226H540.895V128.601H541.191L555.664 107.226H558.967V134H555.664V112.699ZM544.791 99.6738C544.791 100.725 545.119 101.604 545.774 102.309C546.43 103.026 547.259 103.385 548.261 103.385C549.263 103.385 550.091 103.026 550.747 102.309C551.403 101.604 551.73 100.725 551.73 99.6738H554.013C554.013 101.307 553.481 102.636 552.417 103.663C551.341 104.702 549.955 105.222 548.261 105.222C546.566 105.222 545.181 104.702 544.104 103.663C543.041 102.636 542.509 101.307 542.509 99.6738H544.791ZM410.808 179H394.22V152.226H410.808V155.231H397.56V163.822H410.121V166.791H397.56V175.994H410.808V179ZM398.858 149.591C398.289 149.591 397.801 149.387 397.393 148.979C396.984 148.57 396.78 148.082 396.78 147.513C396.78 146.944 396.984 146.455 397.393 146.047C397.801 145.639 398.289 145.435 398.858 145.435C399.44 145.435 399.928 145.639 400.324 146.047C400.732 146.443 400.937 146.931 400.937 147.513C400.937 148.082 400.732 148.57 400.324 148.979C399.916 149.387 399.427 149.591 398.858 149.591ZM406.169 149.591C405.6 149.591 405.111 149.387 404.703 148.979C404.295 148.57 404.091 148.082 404.091 147.513C404.091 146.944 404.295 146.455 404.703 146.047C405.111 145.639 405.6 145.435 406.169 145.435C406.75 145.435 407.239 145.639 407.635 146.047C408.043 146.443 408.247 146.931 408.247 147.513C408.247 148.082 408.043 148.57 407.635 148.979C407.227 149.387 406.738 149.591 406.169 149.591ZM432.183 179H415.595V152.226H432.183V155.231H418.935V163.822H431.496V166.791H418.935V175.994H432.183V179ZM420.233 149.591C419.664 149.591 419.176 149.387 418.768 148.979C418.359 148.57 418.155 148.082 418.155 147.513C418.155 146.944 418.359 146.455 418.768 146.047C419.176 145.639 419.664 145.435 420.233 145.435C420.815 145.435 421.303 145.639 421.699 146.047C422.107 146.443 422.312 146.931 422.312 147.513C422.312 148.082 422.107 148.57 421.699 148.979C421.291 149.387 420.802 149.591 420.233 149.591ZM427.544 149.591C426.975 149.591 426.486 149.387 426.078 148.979C425.67 148.57 425.466 148.082 425.466 147.513C425.466 146.944 425.67 146.455 426.078 146.047C426.486 145.639 426.975 145.435 427.544 145.435C428.125 145.435 428.614 145.639 429.01 146.047C429.418 146.443 429.622 146.931 429.622 147.513C429.622 148.082 429.418 148.57 429.01 148.979C428.602 149.387 428.113 149.591 427.544 149.591ZM457.398 179H452.815L440.458 165.993H440.31V179H436.97V152.226H440.31V164.564H440.458L451.962 152.226H456.155L443.983 165.028L457.398 179ZM490.314 184.288V179H460.683V152.226H464.022V175.994H473.708V152.226H477.048V175.994H486.733V152.226H490.073V175.994H493.413V184.288H490.314Z" fill="white"/>
<path d="M303 111.143H284.143V130H277.857V111.143H259V104.857H277.857V86H284.143V104.857H303V111.143Z" fill="white"/>
<path d="M627 111.143H608.143V130H601.857V111.143H583V104.857H601.857V86H608.143V104.857H627V111.143Z" fill="white"/>
<path d="M680.926 110.48H660.746L655.648 125H649.004L667.707 74.2695H673.965L692.668 125H686.023L680.926 110.48ZM662.609 105.102H679.062L670.941 81.9688H670.73L662.609 105.102ZM703.777 118.742H703.672L697.414 123.031V118.039L703.602 113.82H709.156V137.902H703.777V118.742ZM724.52 138.5C720.98 138.5 718.32 137.129 716.539 134.387C714.992 132.23 714.219 129.43 714.219 125.984C714.219 122.047 715.145 118.93 716.996 116.633C718.848 114.359 721.379 113.223 724.59 113.223C726.957 113.223 728.984 113.855 730.672 115.121C732.359 116.387 733.367 118.027 733.695 120.043H728.141C727.672 118.449 726.477 117.652 724.555 117.652C722.961 117.652 721.719 118.391 720.828 119.867C719.938 121.344 719.539 123.348 719.633 125.879H719.738C720.793 123.254 722.902 121.941 726.066 121.941C728.363 121.941 730.262 122.691 731.762 124.191C733.262 125.691 734.012 127.59 734.012 129.887C734.012 132.395 733.121 134.457 731.34 136.074C729.559 137.691 727.285 138.5 724.52 138.5ZM724.484 134.035C725.609 134.035 726.57 133.648 727.367 132.875C728.141 132.102 728.527 131.164 728.527 130.062C728.527 128.938 728.141 128 727.367 127.25C726.594 126.5 725.633 126.125 724.484 126.125C723.336 126.125 722.375 126.5 721.602 127.25C720.828 128 720.441 128.926 720.441 130.027C720.441 131.152 720.84 132.102 721.637 132.875C722.41 133.648 723.359 134.035 724.484 134.035Z" fill="white"/>
<path d="M417 252H318V238H417V252ZM417 294H318V280H417V294Z" fill="white"/>
<defs>
<linearGradient id="paint0_linear" x1="119" y1="0" x2="119" y2="238" gradientUnits="userSpaceOnUse">
<stop stop-color="#FFEA87"/>
<stop offset="1" stop-color="white"/>
</linearGradient>
<linearGradient id="paint1_linear" x1="118.52" y1="41.2661" x2="118.52" y2="17.2742" gradientUnits="userSpaceOnUse">
<stop stop-color="#FFEA87"/>
<stop offset="1" stop-color="#FFEC94"/>
</linearGradient>
<linearGradient id="paint2_linear" x1="117.302" y1="34.1507" x2="117.302" y2="201.532" gradientUnits="userSpaceOnUse">
<stop stop-color="#FFEA87"/>
<stop offset="1" stop-color="white"/>
</linearGradient>
</defs>
</svg>
